<svg xmlns="http://www.w3.org/2000/svg" width="48" height="48" viewBox="0 0 48 48">
  <defs>
    <linearGradient id="a" x1="55.784%" x2="4.597%" y1="55.446%" y2="74.773%">
      <stop offset="2.197%" stop-color="#41A327" />
      <stop offset="100%" stop-color="#00772A" />
    </linearGradient>
    <linearGradient id="b" x1="-.01%" x2="100.004%" y1="49.989%" y2="49.989%">
      <stop offset="2.197%" stop-color="#41A327" />
      <stop offset="100%" stop-color="#00772A" />
    </linearGradient>
    <linearGradient id="c" x1="53.075%" x2="25.007%" y1="73.059%" y2="13.861%">
      <stop offset="2.197%" stop-color="#41A327" />
      <stop offset="100%" stop-color="#00772A" />
    </linearGradient>
  </defs>
  <g fill="none" fill-rule="evenodd">
    <circle cx="23.969" cy="23.969" r="23.969" fill="#FFF" />
    <path fill="#002E61"
      d="M27.7 23.226c.14.062.202.108.264.124 1.44.278 2.57.944 2.91 2.493.372 1.718-.061 3.251-1.424 4.397a6.213 6.213 0 0 1-1.873 1.053c-2.09.697-4.212.681-6.318.015-1.858-.588-2.957-2.043-3.08-3.948-.047-.774.293-1.285.928-1.394.62-.108 1.115.28 1.285 1.038.434 1.858 1.347 2.648 3.252 2.802 1.161.093 2.322.047 3.406-.464 1.1-.527 1.61-1.378 1.549-2.524-.062-1.115-.62-1.873-1.843-2.199-.944-.247-1.92-.31-2.895-.387-.62-.046-1.115-.186-1.084-.898.03-.635.495-.805 1.084-.836.867-.062 1.75-.14 2.585-.325.79-.186 1.379-.697 1.518-1.58.14-.944-.124-1.734-.883-2.338-1.27-1.006-3.948-1.068-5.156.016-.526.48-.851 1.254-1.084 1.966-.278.821-.65 1.255-1.362 1.146-.713-.108-1.053-.728-.914-1.595.34-2.043 1.533-3.36 3.515-3.855 1.935-.496 3.886-.48 5.745.372 1.13.51 1.95 1.331 2.291 2.554.511 1.812-.217 3.36-1.95 4.104-.11.092-.264.154-.465.263z" />
    <path
      d="M13.843 29.512l3.67 3.546c2.693.836 4.846 1.533 5.542 1.796 4.351 1.672 9.554-.294 10.715-5.202l1.208-5.157c-.604-2.647-1.068-4.769-1.177-5.48-.727-4.6-5.032-8.13-9.878-6.659l-4.692 1.425c-2.121 1.904-3.825 3.422-4.413 3.886-3.639 2.85-4.614 8.33-.975 11.845z" />
    <path fill="url(#a)"
      d="M29.11.542c3.623 1.13 6.178 4.924 5.202 9.089l-2.43 10.343-1.208 5.156c-1.162 4.924-6.364 6.875-10.715 5.203-.697-.263-2.85-.96-5.544-1.796l7.804 7.51c2.756 2.663 6.72 2.725 9.538.882a9.07 9.07 0 0 0 3.144-3.902 9.294 9.294 0 0 0 .727-3.5l.264-19.942c.062-4.49-2.973-7.975-6.782-9.043z"
      transform="translate(3.097 4.49)" />
    <path fill="url(#b)"
      d="M22.157 1.347L7.061 9.832l-2.292 1.285c-3.933 2.2-5.42 6.566-4.428 10.406-.836-3.717 1.16-7.82 5.264-9.058l10.545-3.19L20.84 7.85c4.831-1.47 9.151 2.06 9.879 6.658.108.713.573 2.834 1.177 5.482l2.43-10.344c.976-4.165-1.579-7.958-5.202-9.089 3.81 1.069 6.844 4.537 6.782 9.043l-.263 19.943a9.17 9.17 0 0 1-.728 3.5c0 .015 0 .03.016.046a9.172 9.172 0 0 0 .774-3.608l.217-19.958c.092-7.123-7.557-11.66-13.766-8.176z"
      transform="translate(3.097 4.49)" />
    <path fill="url(#c)"
      d="M31.757 36.945c-2.833 1.842-6.782 1.78-9.538-.883l-7.804-7.51-3.67-3.546c-3.638-3.499-2.662-8.98.992-11.86.588-.465 2.291-1.982 4.413-3.887L5.605 12.45c-4.088 1.239-6.1 5.357-5.264 9.058.387 1.053.433 1.502 1.517 3.19a9.432 9.432 0 0 0 2.586 2.338l3.98 2.43L21.46 37.44c3.84 2.354 8.376 1.517 11.24-1.223-.309.278-.618.51-.944.728z"
      transform="translate(3.097 4.49)" />
  </g>
</svg>