<svg xmlns="http://www.w3.org/2000/svg" width="48" height="48" viewBox="0 0 48 48">
  <g fill="none" fill-rule="evenodd">
    <circle cx="23.874" cy="23.874" r="23.874" fill="#00A8E7" />
    <g fill="#FFF">
      <path
        d="M23.874 9.179c1.094 0 1.979.884 1.979 1.979v7.284a1.977 1.977 0 0 1-1.98 1.98 1.977 1.977 0 0 1-1.978-1.98v-7.284c0-1.095.884-1.98 1.979-1.98zM9.053 19.916a1.983 1.983 0 0 1 2.484-1.263l6.905 2.231a1.983 1.983 0 0 1 1.263 2.484 1.983 1.983 0 0 1-2.484 1.264L10.316 22.4a1.983 1.983 0 0 1-1.263-2.484zM14.737 37.305c-.884-.631-1.053-1.852-.421-2.737l4.295-5.894c.631-.885 1.852-1.053 2.736-.421.885.631 1.053 1.852.421 2.736l-4.294 5.895c-.632.884-1.895 1.053-2.737.421zM33.01 37.305a1.99 1.99 0 0 1-2.736-.42l-4.295-5.896a1.99 1.99 0 0 1 .421-2.736 1.99 1.99 0 0 1 2.737.42l4.295 5.895a1.99 1.99 0 0 1-.421 2.737zM38.653 19.916c.336 1.01-.253 2.147-1.264 2.484l-6.905 2.232c-1.01.336-2.147-.253-2.484-1.264-.337-1.01.253-2.147 1.263-2.484l6.905-2.231c1.053-.295 2.148.252 2.485 1.263z" />
    </g>
  </g>
</svg>