<svg xmlns="http://www.w3.org/2000/svg" width="30" height="30" viewBox="0 0 30 30">
    <g fill="none" fill-rule="evenodd">
        <rect width="30" height="30" />
        <path fill="#FFFFFF" fill-rule="nonzero"
            d="M22.86875,7.13125 L22.86875,7.13125 L22.86875,7.13125 C22.3820491,6.64454906 21.5929509,6.64454906 21.10625,7.13125 L15,13.2375 L8.89375,7.13125 L8.89375,7.13125 C8.40704906,6.64454906 7.61795094,6.64454906 7.13125,7.13125 L7.13125,7.13125 L7.13125,7.13125 C6.64454906,7.61795094 6.64454906,8.40704906 7.13125,8.89375 L13.2375,15 L7.13125,21.10625 L7.13125,21.10625 C6.64454906,21.5929509 6.64454906,22.3820491 7.13125,22.86875 L7.13125,22.86875 L7.13125,22.86875 C7.61795094,23.3554509 8.40704906,23.3554509 8.89375,22.86875 L15,16.7625 L21.10625,22.86875 L21.10625,22.86875 C21.5929509,23.3554509 22.3820491,23.3554509 22.86875,22.86875 L22.86875,22.86875 L22.86875,22.86875 C23.3554509,22.3820491 23.3554509,21.5929509 22.86875,21.10625 L16.7625,15 L22.86875,8.89375 L22.86875,8.89375 C23.3554509,8.40704906 23.3554509,7.61795094 22.86875,7.13125 Z" />
    </g>
</svg>