<svg height="24" width="24" version="1.1" viewBox="0 0 24 24" xmlns="http://www.w3.org/2000/svg">
  <path
    d="M12.192 10.868c-1.736-.438-2.294-.892-2.294-1.597 0-.81.772-1.373 2.065-1.373 1.362 0 1.867.631 1.913 1.56h1.69c-.054-1.28-.817-2.502-2.634-2.92V5h-1.805v1.517c-1.673.255-2.99 1.335-2.99 2.769 0 1.715 1.461 2.57 3.595 3.067 1.913.445 2.295 1.1 2.295 1.79 0 .512-.375 1.329-2.065 1.329-1.576 0-2.195-.683-2.295-1.56H8c.092 1.627 1.596 2.908 3.127 2.908v1.548h1.805v-1.53c1.498 0 2.855-1.18 2.855-2.703 0-2.109-1.859-2.822-3.595-3.267z"
    fill="#FFF" fill-rule="evenodd" stroke="none" stroke-width="1"></path>
</svg>