<svg xmlns="http://www.w3.org/2000/svg" xmlns:xlink="http://www.w3.org/1999/xlink" width="24px" height="24px"
  viewBox="0 0 24 24" version="1.1">
  <!-- Generator: Sketch 64 (93537) - https://sketch.com -->
  <title>Icons/Payment/44/money</title>
  <desc>Created with Sketch.</desc>
  <defs>
    <path
      d="M0,11 C0,4.925 4.9253,0 11,0 C17.0757,0 22,4.925 22,11 C22,17.076 17.0757,22 11,22 C4.9253,22 0,17.076 0,11 Z M15.125,10.511 C15.3781,10.511 15.5833,10.306 15.5833,10.053 L15.5833,9.409 C15.5833,9.156 15.3781,8.951 15.125,8.951 L14.9163,8.951 C14.8652,8.951 14.8145,8.942 14.7664,8.925 C14.5345,8.842 14.4136,8.587 14.4964,8.355 C14.539,8.236 14.5703,8.132 14.5901,8.044 C14.6615,7.726 14.6977,7.423 14.6977,7.135 C14.6977,6 14.3816,5.138 13.7502,4.549 C13.1188,3.961 12.2189,3.667 11.0514,3.667 C10.3315,3.667 9.7258,3.769 9.2335,3.975 C8.7402,4.18 8.3431,4.457 8.0413,4.805 C7.7394,5.155 7.5223,5.558 7.3899,6.012 C7.3263,6.231 7.2741,6.539 7.2333,6.938 C7.2317,6.953 7.2309,6.969 7.2309,6.985 C7.2309,7.238 7.4361,7.443 7.6893,7.443 L8.638,7.443 C8.8748,7.443 9.0726,7.263 9.0944,7.027 C9.1141,6.814 9.1382,6.65 9.1669,6.536 C9.2345,6.268 9.3468,6.041 9.503,5.856 C9.6592,5.67 9.863,5.527 10.1144,5.428 C10.3648,5.328 10.6781,5.278 11.0514,5.278 C11.6828,5.278 12.1361,5.436 12.4103,5.751 C12.6855,6.067 12.8236,6.516 12.8236,7.099 C12.8236,7.388 12.7931,7.693 12.7312,8.016 C12.7006,8.177 12.6294,8.394 12.5175,8.667 C12.4469,8.839 12.2794,8.951 12.0935,8.951 L6.875,8.951 C6.6219,8.951 6.4167,9.156 6.4167,9.409 L6.4167,10.053 C6.4167,10.306 6.6219,10.511 6.875,10.511 L15.125,10.511 Z M15.125,12.996 C15.3781,12.996 15.5833,12.791 15.5833,12.538 L15.5833,11.947 C15.5833,11.694 15.3781,11.489 15.125,11.489 L6.875,11.489 C6.6219,11.489 6.4167,11.694 6.4167,11.947 L6.4167,12.538 C6.4167,12.791 6.6219,12.996 6.875,12.996 L7.0533,12.996 C7.11,12.996 7.166,13.009 7.2172,13.033 C7.4062,13.124 7.486,13.351 7.3955,13.54 C7.3258,13.685 7.2748,13.811 7.2423,13.919 C7.1404,14.257 7.089,14.604 7.089,14.961 C7.089,15.51 7.1794,15.995 7.3594,16.414 C7.5385,16.834 7.7984,17.187 8.1384,17.471 C8.4774,17.755 8.8869,17.971 9.3659,18.115 C9.8439,18.261 10.3858,18.333 10.9895,18.333 C11.5399,18.333 12.0589,18.263 12.5484,18.121 C13.0369,17.979 13.4636,17.758 13.8264,17.461 C14.1892,17.163 14.4768,16.784 14.6872,16.325 C14.7942,16.091 14.8807,15.72 14.9467,15.21 C14.9492,15.19 14.9505,15.171 14.9505,15.151 C14.9505,14.898 14.7452,14.693 14.4921,14.693 L13.5467,14.693 C13.3141,14.693 13.1183,14.867 13.0914,15.098 C13.061,15.359 13.0225,15.55 12.976,15.67 C12.8741,15.934 12.7303,16.147 12.5427,16.312 C12.356,16.477 12.1304,16.595 11.8656,16.667 C11.6009,16.741 11.3095,16.776 10.9895,16.776 C10.2905,16.776 9.7782,16.618 9.4516,16.301 C9.1259,15.985 8.9631,15.543 8.9631,14.976 C8.9631,14.784 8.9697,14.605 8.984,14.437 C8.9974,14.269 9.0259,14.106 9.0697,13.947 C9.1145,13.787 9.1754,13.632 9.2535,13.477 C9.2878,13.409 9.3443,13.316 9.4231,13.199 C9.5082,13.072 9.6508,12.996 9.8034,12.996 L15.125,12.996 Z"
      id="path-1" />
  </defs>
  <g id="Icons/Payment/44/money" stroke="none" stroke-width="1" fill="none" fill-rule="evenodd">
    <rect id="Rectangle" x="0" y="0" width="24" height="24" />
    <g id="Group-135" transform="translate(1.000000, 1.000000)">
      <mask id="mask-2" fill="white">
        <use xlink:href="#path-1" />
      </mask>
      <g id="Clip-134" />
      <polygon id="Fill-133" fill="#8DC641" mask="url(#mask-2)" points="-1 -1 23 -1 23 23 -1 23" />
    </g>
  </g>
</svg>