<svg height="24px" width="24px" version="1.1" viewBox="0 0 24 24" xmlns="http://www.w3.org/2000/svg">
  <g fill="none" fill-rule="evenodd" stroke="none" stroke-width="1">
    <path d="M0 0h24v24H0z"></path>
    <path
      d="M14.157 2a1.874 1.874 0 1 0 0 3.749 1.874 1.874 0 0 0 0-3.749zm-.45 5.96c-1.487.126-5.549 3.362-5.549 3.362-.25.188-.175.175.025.525.2.338.175.363.413.2.25-.162.662-.425 1.35-.85 2.649-1.699.424 2.225-.713 8.836-.45 3.274 2.5 1.587 3.262 1.087.75-.488 2.761-1.875 2.961-2.012.275-.188.075-.338-.137-.65-.15-.212-.3-.062-.3-.062-.812.537-2.3 1.662-2.5.95-.237-.713 1.288-5.6 2.125-8.96.137-.8.512-2.55-.937-2.425z"
      fill="#FFF"></path>
  </g>
</svg>