<svg xmlns="http://www.w3.org/2000/svg" width="48" height="48" viewBox="0 0 48 48">
  <g fill="none" fill-rule="evenodd">
    <circle cx="23.969" cy="23.969" r="23.969" fill="#FFF" />
    <path fill="#FFF"
      d="M17.697 16.636c4.16 0 7.533 3.296 7.533 7.362 0 4.067-3.373 7.365-7.533 7.365-4.157 0-7.53-3.298-7.53-7.365 0-4.066 3.373-7.362 7.53-7.362z" />
    <path fill="#FFAF38"
      d="M29.634 16.636c4.16 0 7.533 3.296 7.533 7.362 0 4.067-3.373 7.365-7.533 7.365S22.1 28.065 22.1 23.998c0-4.066 3.374-7.362 7.533-7.362z" />
    <path fill="#EB3636"
      d="M17.697 16.636c4.16 0 7.533 3.296 7.533 7.362 0 4.067-3.373 7.365-7.533 7.365-4.157 0-7.53-3.298-7.53-7.365 0-4.066 3.373-7.362 7.53-7.362z" />
    <path fill="#F57137"
      d="M22.152 23.974c0 1.685.587 3.234 1.563 4.477a7.219 7.219 0 0 0 1.542-4.452 7.2 7.2 0 0 0-1.563-4.477 7.229 7.229 0 0 0-1.542 4.452z" />
  </g>
</svg>