<svg xmlns="http://www.w3.org/2000/svg" xmlns:xlink="http://www.w3.org/1999/xlink" width="24px" height="24px"
  viewBox="0 0 24 24" version="1.1">
  <!-- Generator: Sketch 64 (93537) - https://sketch.com -->
  <title>Icons/Payment/44/tv</title>
  <desc>Created with Sketch.</desc>
  <defs>
    <path
      d="M8.590925,13.404 L12.409075,13.404 L12.409075,16.2762857 L8.590925,16.2762857 L8.590925,13.404 Z M6.1648125,16.2762857 L14.8351875,16.2762857 C15.0768625,16.2762857 15.2726875,16.4682857 15.2726875,16.7048571 L15.2726875,17.5714286 C15.2726875,17.808 15.0768625,18 14.8351875,18 L6.1648125,18 C5.9231375,18 5.7273125,17.808 5.7273125,17.5714286 L5.7273125,16.7048571 C5.7273125,16.4682857 5.9231375,16.2762857 6.1648125,16.2762857 Z M0.875,0 L20.125,0 C20.6082625,0 21,0.384 21,0.857142857 L21,12.5468571 C21,13.0208571 20.6082625,13.404 20.125,13.404 L0.875,13.404 C0.3917375,13.404 0,13.0208571 0,12.5468571 L0,0.857142857 C0,0.384 0.3917375,0 0.875,0 Z M2.784075,1.91485714 C2.3008125,1.91485714 1.909075,2.29885714 1.909075,2.772 L1.909075,10.632 C1.909075,11.106 2.3008125,11.4891429 2.784075,11.4891429 L18.215925,11.4891429 C18.6991875,11.4891429 19.090925,11.106 19.090925,10.632 L19.090925,2.772 C19.090925,2.29885714 18.6991875,1.91485714 18.215925,1.91485714 L2.784075,1.91485714 Z"
      id="path-1" />
  </defs>
  <g id="Icons/Payment/44/tv" stroke="none" stroke-width="1" fill="none" fill-rule="evenodd">
    <g id="Group-142" transform="translate(2.000000, 3.000000)">
      <mask id="mask-2" fill="white">
        <use xlink:href="#path-1" />
      </mask>
      <g id="Clip-141" />
      <polygon id="Fill-140" fill="#61B1E7" mask="url(#mask-2)"
        points="-4.375 -4.28571429 25.375 -4.28571429 25.375 22.2857143 -4.375 22.2857143" />
    </g>
  </g>
</svg>