<svg height="24px" width="24px" fill="none" viewBox="0 0 24 24" xmlns="http://www.w3.org/2000/svg">
  <path
    d="M11.99 12c-1.1 0-2.042-.392-2.825-1.175C8.38 10.042 7.99 9.1 7.99 8s.391-2.042 1.175-2.825C9.948 4.392 10.89 4 11.99 4s2.041.392 2.825 1.175C15.598 5.958 15.99 6.9 15.99 8s-.392 2.042-1.175 2.825C14.03 11.608 13.09 12 11.99 12zm-8 8v-2.8c0-.567.146-1.088.438-1.563A2.913 2.913 0 0 1 5.59 14.55a14.866 14.866 0 0 1 3.15-1.163A13.775 13.775 0 0 1 11.99 13c1.1 0 2.183.129 3.25.387 1.066.259 2.116.646 3.15 1.163.483.25.87.612 1.162 1.087.292.475.438.996.438 1.563V20h-16zm2-2h12v-.8a.942.942 0 0 0-.137-.5.977.977 0 0 0-.363-.35c-.9-.45-1.809-.788-2.725-1.013a11.614 11.614 0 0 0-5.55 0c-.917.225-1.825.563-2.725 1.013a.97.97 0 0 0-.5.85v.8zm6-8c.55 0 1.02-.196 1.413-.588.391-.391.587-.862.587-1.412 0-.55-.196-1.02-.587-1.412A1.927 1.927 0 0 0 11.99 6c-.55 0-1.02.196-1.412.588A1.923 1.923 0 0 0 9.99 8c0 .55.196 1.02.588 1.412.391.392.862.588 1.412.588z"
    fill="#8dc641"></path>
</svg>