<svg xmlns="http://www.w3.org/2000/svg" xmlns:xlink="http://www.w3.org/1999/xlink" width="24px" height="24px"
  viewBox="0 0 24 24" version="1.1">
  <!-- Generator: Sketch 64 (93537) - https://sketch.com -->
  <title>Icons/Payment/44/web</title>
  <desc>Created with Sketch.</desc>
  <g id="Icons/Payment/44/web" stroke="none" stroke-width="1" fill="none" fill-rule="evenodd">
    <g id="Group-120" transform="translate(1.000000, 3.000000)" fill="#61B1E7" fill-rule="nonzero">
      <path
        d="M11.0231579,12.32 C12.4300306,12.32 13.5705263,13.4604957 13.5705263,14.8673684 C13.5705263,16.2742412 12.4300306,17.4147368 11.0231579,17.4147368 C9.61628516,17.4147368 8.47578947,16.2742412 8.47578947,14.8673684 C8.47578947,13.4604957 9.61628516,12.32 11.0231579,12.32 Z M4.84,8.73052632 C8.24421053,5.32631579 13.7557895,5.32631579 17.16,8.70736842 C17.8084211,9.35578947 17.8084211,10.3747368 17.16,11.0231579 C16.5115789,11.6715789 15.4694737,11.6715789 14.8442105,11.0231579 C12.7368421,8.91578947 9.28631579,8.91578947 7.15578947,11.0463158 C6.83157895,11.3705263 6.41473684,11.5326316 5.99789474,11.5326316 C5.58105263,11.5326316 5.16421053,11.3705263 4.84,11.0463158 C4.19157895,10.3978947 4.19157895,9.37894737 4.84,8.73052632 Z M11,-6.65245636e-13 L11.3974418,0.00516077973 C15.2306901,0.10482807 18.8049825,1.64498246 21.5136842,4.35368421 C22.1621053,4.97894737 22.1621053,6.02105263 21.5136842,6.66947368 C20.8652632,7.31789474 19.8463158,7.31789474 19.1978947,6.66947368 C17.0210526,4.46947368 14.1031579,3.26526316 11,3.26526316 L11,3.26526316 L10.6427971,3.27059543 C7.6734849,3.3593678 4.89522267,4.55408907 2.80210526,6.66947368 C2.47789474,6.99368421 2.06105263,7.15578947 1.64421053,7.15578947 C1.22736842,7.15578947 0.810526316,6.99368421 0.486315789,6.66947368 C-0.162105263,6.02105263 -0.162105263,5.00210526 0.486315789,4.35368421 C3.28842105,1.55157895 7.01684211,-6.65245636e-13 11,-6.65245636e-13 L11,-6.65245636e-13 Z"
        id="Combined-Shape" />
    </g>
  </g>
</svg>