<svg xmlns="http://www.w3.org/2000/svg" width="48" height="48" viewBox="0 0 48 48">
  <g fill="none" fill-rule="evenodd">
    <circle cx="24" cy="24" r="24" fill="#FFF" />
    <path fill="#0C4CA3"
      d="M15.116 16.572s3.892-3.703 11.205-5.498c4.947-1.21 12.916-2.43 16.347 2.838 3.534 5.424-.973 12.361-4.097 15.23-3.124 2.869-10.908 9.806-23.148 9.806C7.997 38.948 6 33.94 6 33.94s3.278 3.494 11.01 1.877c6.382-1.335 17.106-8.293 13.265-16.273-3.872-8.032-15.16-2.973-15.16-2.973z" />
    <path fill="#FFDE00"
      d="M28.739 14.12s2.97.522 4.353 1.513c1.382.991 3.482 3.338 3.226 6.78-.256 3.443-2.048 6.833-4.66 9.546-2.612 2.712-7.682 5.476-7.682 5.476s5.838-2.138 9.474-5.163c3.636-3.026 6.453-6.885 6.811-10.484.359-3.6-2.1-6.155-3.482-6.99-1.383-.834-4.2-1.93-8.297-1.669-4.097.261-9.412 1.555-11.574 2.786 3.544-1.356 9.577-2.087 12.701 1.7 3.667 4.454 2.151 9.91-2.919 13.822 2.766-2.003 7.221-5.529 7.682-10.515.512-5.529-5.633-6.801-5.633-6.801z" />
    <path fill="#0C4CA3"
      d="M15.065 19.754L12.012 31.75H9.554l2.755-10.797s.37-1.2 1.24-1.2h1.516zM19.746 21.892l-2.459 9.858h2.459l2.437-9.858h3.534l.533-2.138h-8.215s-1.25-.126-1.536.938c-.236.898-.359 1.231-.359 1.231l3.606-.03z" />
  </g>
</svg>