<svg xmlns="http://www.w3.org/2000/svg" width="48" height="48" viewBox="0 0 48 48">
  <g fill="none" fill-rule="evenodd" transform="translate(.087 .129)">
    <ellipse cx="23.913" cy="23.872" fill="#FFCB08" rx="23.84" ry="23.841" />
    <path fill="#0C4EA3"
      d="M36.647 16.835c-2.903 0-5.257 2.36-5.257 5.272v.027c-9.398 2.741-18.626 9.69-23.199 19.664 2.447 2.172 5.325 3.768 8.435 4.783 1.74-10.441 9.387-18.383 16.038-21.041a5.251 5.251 0 0 0 3.983 1.84c2.903 0 5.257-2.36 5.257-5.272 0-2.912-2.354-5.272-5.257-5.272v-.001zM20.076 6.792c-2.904 0-5.257 2.36-5.257 5.273 0 .118.004.237.012.355C8.3 15.005 3.324 19.296.081 24.485c.14 4.623 1.55 9.107 4.185 12.893.24-8.48 4.465-16.604 11.672-22.063a5.252 5.252 0 0 0 4.138 2.022c2.903 0 5.257-2.36 5.257-5.272 0-2.912-2.354-5.272-5.257-5.272z" />
  </g>
</svg>