<svg xmlns="http://www.w3.org/2000/svg" width="48" height="48" viewBox="0 0 48 48">
  <g fill="none" fill-rule="evenodd">
    <circle cx="24" cy="24" r="24" fill="#FFF" />
    <path fill="#F91600" fill-rule="nonzero"
      d="M34.398 2.364c-4.416.627-7.834 4.743-7.92 9.757 6.11 1.125 10.726 5.227 10.726 12.548 0 7.065-5.869 12.777-13.204 12.777-7.293.014-13.204-6.396-13.204-14.7 0-11.451 10.17-20.951 23.032-20.652A24.073 24.073 0 0 0 24 0C10.754 0 0 10.74 0 24s10.754 24 24 24 24-10.74 24-24c0-9.529-5.555-17.761-13.602-21.636z" />
  </g>
</svg>