<svg height="24px" width="24px" fill="none" viewBox="0 0 24 24" xmlns="http://www.w3.org/2000/svg">
  <path
    d="M16.5 6.72c-1.785 0-2.732.892-4.135.874-1.403.018-2.35-.875-4.135-.875-1.421 0-3.225.875-4.044 2.15-1.512 2.332-1.367 4.865-.729 7.489.692 2.788 3.133 6.213 5.064 6.213 1.585 0 2.296-.856 3.844-.856s2.24.857 3.807.857c1.785 0 3.917-2.934 4.828-5.54-1.75-.693-2.933-2.423-2.933-4.264 0-1.822.929-3.225 2.35-4.026-.874-1.185-2.55-2.023-3.917-2.023zM16.026 2c-2.568.273-4.48 2.423-4.317 4.865C14.278 6.61 16.172 4.442 16.026 2z"
    fill="rgba(255, 255, 255, 0.54)" fill-rule="evenodd"></path>
</svg>