<svg xmlns="http://www.w3.org/2000/svg" xmlns:xlink="http://www.w3.org/1999/xlink" width="24px" height="24px"
  viewBox="0 0 24 24" version="1.1">
  <!-- Generator: Sketch 64 (93537) - https://sketch.com -->
  <title>iOS/Icons/_Services/my_payments/communal</title>
  <desc>Created with Sketch.</desc>
  <defs>
    <radialGradient cx="100%" cy="0%" fx="100%" fy="0%" r="141.421356%" id="radialGradient-1">
      <stop stop-color="#FFFFFF" stop-opacity="0.38244452" offset="0%" />
      <stop stop-color="#FFFFFF" stop-opacity="0" offset="100%" />
    </radialGradient>
    <path
      d="M7.38461538,0 L16.6153846,0 C20.6937951,0 24,3.30620492 24,7.38461538 L24,16.6153846 C24,20.6937951 20.6937951,24 16.6153846,24 L7.38461538,24 C3.30620492,24 0,20.6937951 0,16.6153846 L0,7.38461538 C0,3.30620492 3.30620492,0 7.38461538,0 Z"
      id="path-2" />
  </defs>
  <g id="icons" stroke="none" stroke-width="1" fill="none" fill-rule="evenodd">
    <g id="iOS/Icons/_Services/my_payments/communal">
      <g id="Rectangle">
        <use fill="#FF6400" xlink:href="#path-2" />
        <use fill="url(#radialGradient-1)" xlink:href="#path-2" />
      </g>
      <path
        d="M15.1341659,9.29065863 L15.1341659,7.64464051 C15.1341659,7.36849814 14.9103082,7.14464051 14.6341659,7.14464051 L14.5093791,7.14464051 C14.2332367,7.14464051 14.0093791,7.36849814 14.0093791,7.64464051 L14.0093791,7.88381835 C14.0093791,8.06327519 13.8639005,8.20875371 13.6844437,8.20875371 C13.603089,8.20875371 13.5246941,8.17823579 13.4647519,8.12323115 L12.291259,7.04640147 C12.2552652,7.01337259 12.2026244,7.00597733 12.1589233,7.02781026 L12.1589233,7.02781026 L12.1589233,7.02781026 L7.59565723,11.2020839 C7.46932072,11.3176509 7.46059034,11.5137525 7.57615738,11.640089 C7.63488795,11.7042926 7.71789624,11.7408596 7.80490988,11.7408596 L8.10314568,11.7408596 C8.37928806,11.7408596 8.60314568,11.9647172 8.60314568,12.2408596 L8.60314568,15.6365205 L8.60314568,15.6365205 C8.60314568,16.1803339 9.03854703,16.6153846 9.54651527,16.6153846 L10.4252862,16.6153846 C10.7014286,16.6153846 10.9252862,16.391527 10.9252862,16.1153846 L10.9252862,13.5898251 L10.9252862,13.5898251 C10.9252862,13.4810624 10.9978531,13.408554 11.1067034,13.408554 L13.2837101,13.408554 C13.3925605,13.408554 13.4651274,13.4810624 13.4651274,13.5898251 L13.4651274,16.1153846 C13.4651274,16.391527 13.688985,16.6153846 13.9651274,16.6153846 L14.8801818,16.6153846 L14.8801818,16.6153846 C15.4244334,16.6153846 15.8235513,16.1803339 15.8235513,15.6365205 L15.8235513,12.2408596 C15.8235513,11.9647172 16.047409,11.7408596 16.3235513,11.7408596 L16.567362,11.7408596 C16.7413795,11.7408596 16.8824485,11.5997905 16.8824485,11.425773 C16.8824485,11.3439513 16.8506198,11.2653383 16.7936956,11.206564 L15.2750048,9.63851398 C15.1846737,9.54524697 15.1341659,9.42049873 15.1341659,9.29065863 Z"
        id="sub_icon_gek" fill="#FFFFFF" />
    </g>
  </g>
</svg>