<svg xmlns="http://www.w3.org/2000/svg" xmlns:xlink="http://www.w3.org/1999/xlink" width="48" height="48" version="1.1"
  viewBox="0 0 48 48">
  <defs>
    <radialGradient id="serviceMobile_svg__b" cx="100%" cy="0%" r="141.421%" fx="100%" fy="0%">
      <stop offset="0%" stop-color="#FFF" stop-opacity=".382" />
      <stop offset="100%" stop-color="#FFF" stop-opacity="0" />
    </radialGradient>
    <path id="serviceMobile_svg__a"
      d="M14.77 0h18.46C41.389 0 48 6.612 48 14.77v18.46C48 41.389 41.388 48 33.23 48H14.77C6.611 48 0 41.388 0 33.23V14.77C0 6.611 6.612 0 14.77 0z" />
  </defs>
  <g fill="none" fill-rule="evenodd" stroke="none" stroke-width="1">
    <g>
      <use fill="#007AFF" xlink:href="#serviceMobile_svg__a" />
      <use fill="url(#serviceMobile_svg__b)" style="mix-blend-mode:lighten" xlink:href="#serviceMobile_svg__a" />
    </g>
    <path fill="#FFF"
      d="M17 15.441c0-.796.654-1.441 1.45-1.441h10.653c.801 0 1.45.643 1.45 1.441v17.847c0 .796-.653 1.441-1.45 1.441H18.45c-.8 0-1.45-.643-1.45-1.44V15.44zm2.259 2.014v12.668h9.036V17.455h-9.036zm4.518 16.123a1.14 1.14 0 001.13-1.152 1.14 1.14 0 00-1.13-1.151 1.14 1.14 0 00-1.13 1.151 1.14 1.14 0 001.13 1.152z" />
  </g>
</svg>