<svg xmlns="http://www.w3.org/2000/svg" xmlns:xlink="http://www.w3.org/1999/xlink" width="48" height="48" version="1.1"
  viewBox="0 0 48 48">
  <defs>
    <radialGradient id="servicePayments_svg__b" cx="100%" cy="0%" r="141.421%" fx="100%" fy="0%">
      <stop offset="0%" stop-color="#FFF" stop-opacity=".382" />
      <stop offset="100%" stop-color="#FFF" stop-opacity="0" />
    </radialGradient>
    <path id="servicePayments_svg__a"
      d="M14.77 0h18.46C41.389 0 48 6.612 48 14.77v18.46C48 41.389 41.388 48 33.23 48H14.77C6.611 48 0 41.388 0 33.23V14.77C0 6.611 6.612 0 14.77 0z" />
  </defs>
  <g fill="none" fill-rule="evenodd" stroke="none" stroke-width="1">
    <g stroke-width="1">
      <use fill="#FF6400" xlink:href="#servicePayments_svg__a" />
      <use fill="url(#servicePayments_svg__b)" xlink:href="#servicePayments_svg__a" />
    </g>
    <path fill="#FFF"
      d="M17 22.015h8.826c.203-.122.355-.22.482-.317.76-.609 1.167-1.315 1.167-2.119 0-.974-.305-1.68-.863-2.168-.583-.487-1.445-.73-2.561-.73-2.181 0-3.45 1.12-3.754 3.36H18.32c.203-1.68.811-2.946 1.826-3.799.964-.828 2.257-1.242 3.906-1.242 1.674 0 3.018.39 3.982 1.17 1.014.803 1.521 1.948 1.521 3.434 0 .876-.279 1.68-.837 2.41H31v1.219h-3.627c-.634.39-1.724.95-3.272 1.68l-.659.317H31v1.218h-9.51c-.762.584-1.117 1.242-1.117 1.948 0 .902.28 1.608.863 2.12.583.535 1.445.803 2.561.803 2.156 0 3.399-1.12 3.754-3.337h2.003c-.228 1.657-.837 2.923-1.826 3.8-.964.804-2.282 1.218-3.93 1.218-1.776 0-3.12-.39-4.034-1.17-.963-.803-1.445-1.948-1.445-3.41 0-.73.152-1.388.507-1.972H17V25.23h2.891l.051-.049c.482-.39 1.623-1.023 3.424-1.875.05-.049.101-.073.152-.073H17v-1.218z" />
  </g>
</svg>