<svg xmlns="http://www.w3.org/2000/svg" width="48" height="48" version="1.1" viewBox="0 0 48 48">
  <g fill="none" fill-rule="evenodd" stroke="none" stroke-width="1">
    <path fill="#FFF" stroke="#000" stroke-opacity=".24" stroke-width=".5"
      d="M14.77.25C6.75.25.25 6.75.25 14.77v18.46c0 8.02 6.5 14.52 14.52 14.52h18.46c8.02 0 14.52-6.5 14.52-14.52V14.77c0-8.02-6.5-14.52-14.52-14.52H14.77z" />
    <path fill="#8BC34A" fill-rule="nonzero"
      d="M31.5 32.522h-15c-1.38 0-2.5-1.053-2.5-2.352V18.351C14 17.053 15.12 16 16.5 16h12c1.38 0 2.5 1.053 2.5 2.351v.47h.5c1.38 0 2.5 1.053 2.5 2.352v8.997c0 1.299-1.12 2.352-2.5 2.352zm-4.045-8.827c-1.105 0-2 .843-2 1.882 0 1.038.895 1.88 2 1.88 1.104 0 2-.842 2-1.88 0-1.04-.896-1.882-2-1.882zM16 19.762h13v-1.41c0-.26-.224-.47-.5-.47h-12c-.276 0-.5.21-.5.47v1.41z" />
  </g>
</svg>