<svg xmlns="http://www.w3.org/2000/svg" xmlns:xlink="http://www.w3.org/1999/xlink" width="24px" height="24px"
  viewBox="0 0 24 24" version="1.1">
  <!-- Generator: Sketch 64 (93537) - https://sketch.com -->
  <title>iOS/Icons/_Services/my_payments/telecommunications</title>
  <desc>Created with Sketch.</desc>
  <defs>
    <radialGradient cx="100%" cy="0%" fx="100%" fy="0%" r="141.421356%" id="radialGradient-1">
      <stop stop-color="#FFFFFF" stop-opacity="0.38244452" offset="0%" />
      <stop stop-color="#FFFFFF" stop-opacity="0" offset="100%" />
    </radialGradient>
    <path
      d="M7.38461538,0 L16.6153846,0 C20.6937951,0 24,3.30620492 24,7.38461538 L24,16.6153846 C24,20.6937951 20.6937951,24 16.6153846,24 L7.38461538,24 C3.30620492,24 0,20.6937951 0,16.6153846 L0,7.38461538 C0,3.30620492 3.30620492,0 7.38461538,0 Z"
      id="path-2" />
  </defs>
  <g id="icons" stroke="none" stroke-width="1" fill="none" fill-rule="evenodd">
    <g id="iOS/Icons/_Services/my_payments/telecommunications">
      <g id="Rectangle" fill-rule="evenodd">
        <use fill="#FF6400" xlink:href="#path-2" />
        <use fill="url(#radialGradient-1)" xlink:href="#path-2" />
      </g>
      <path
        d="M12.0128259,13.8387692 C12.792017,13.8387692 13.4236761,14.4704284 13.4236761,15.2496194 C13.4236761,16.0288105 12.792017,16.6604696 12.0128259,16.6604696 C11.2336349,16.6604696 10.6019757,16.0288105 10.6019757,15.2496194 C10.6019757,14.4704284 11.2336349,13.8387692 12.0128259,13.8387692 Z M8.58830769,11.850753 C10.4737166,9.96534413 13.5262834,9.96534413 15.4116923,11.8379271 C15.7708178,12.1970526 15.7708178,12.7613927 15.4116923,13.1205182 C15.0525668,13.4796437 14.4754008,13.4796437 14.1291012,13.1205182 C12.9619433,11.9533603 11.0508826,11.9533603 9.87089879,13.1333441 C9.69133603,13.3129069 9.46046964,13.4026883 9.22960324,13.4026883 C8.99873684,13.4026883 8.76787045,13.3129069 8.58830769,13.1333441 C8.22918219,12.7742186 8.22918219,12.2098785 8.58830769,11.850753 Z M12,7.01538462 L12.314151,7.02121243 C14.4015573,7.09879666 16.34493,7.94862233 17.8229636,9.42665587 C18.1820891,9.77295547 18.1820891,10.3501215 17.8229636,10.709247 C17.4638381,11.0683725 16.899498,11.0683725 16.5403725,10.709247 C15.3347368,9.49078543 13.7186721,8.82383806 12,8.82383806 L12,8.82383806 L11.6978327,8.83073789 C10.0926228,8.90421081 8.59434342,9.56245963 7.45962753,10.709247 C7.28006478,10.8888097 7.04919838,10.9785911 6.81833198,10.9785911 C6.58746559,10.9785911 6.35659919,10.8888097 6.17703644,10.709247 C5.81791093,10.3501215 5.81791093,9.78578138 6.17703644,9.42665587 C7.72897166,7.87472065 9.79394332,7.01538462 12,7.01538462 L12,7.01538462 Z"
        id="Combined-Shape" fill="#FFFFFF" fill-rule="nonzero" />
    </g>
  </g>
</svg>