<svg height="24px" width="24px" fill="none" viewBox="0 0 24 24" xmlns="http://www.w3.org/2000/svg">
  <path d="M10.858 13.43h.72l-.365-.842-.355.842z" fill="rgba(255, 255, 255, 0.54)"></path>
  <path
    d="M8.065 3h7.87C19.648 3 21 4.352 21 8.065v7.87C21 19.648 19.637 21 15.935 21h-7.87C4.352 21 3 19.637 3 15.935v-7.87C3 4.352 4.363 3 8.065 3zm3.946 6.007a2.994 2.994 0 0 1-2.993-2.992h.422a2.573 2.573 0 0 0 2.571 2.571 2.573 2.573 0 0 0 2.572-2.571h.42a3.001 3.001 0 0 1-2.992 2.992zM6.58 12h.477v2.35H6.58v-.953H5.505v.953h-.477V12h.477v.954H6.58V12zm2.682 1.341c0 .377-.188.588-.532.588-.343 0-.543-.21-.543-.599V12h-.476v1.341c0 .666.365 1.042 1.008 1.042s1.02-.388 1.02-1.064v-1.33h-.477v1.352zm4.988-1.34h-.388l-.532 1.618L12.81 12h-.51l.82 2.35h.399l.531-1.54.532 1.54h.4l.82-2.35h-.499l-.521 1.619L14.25 12zm2.394 1.34h.865v-.432h-.865v-.476h1.264V12h-1.73v2.35h1.774v-.432h-1.308v-.576zm1.884 1.01h.466V12h-.466v2.35zm-7.847-.489l-.21.488h-.488l1.03-2.35h.422l1.03 2.35h-.498l-.21-.488H10.68z"
    fill="rgba(255, 255, 255, 0.54)" fill-rule="evenodd"></path>
</svg>