<svg xmlns="http://www.w3.org/2000/svg" width="48" height="48" version="1.1" viewBox="0 0 48 48"><g fill="none" fill-rule="evenodd" stroke="none" stroke-width="1"><path fill="#FFF" stroke="#000" stroke-opacity=".24" stroke-width=".5" d="M14.77.25C6.75.25.25 6.75.25 14.77v18.46c0 8.02 6.5 14.52 14.52 14.52h18.46c8.02 0 14.52-6.5 14.52-14.52V14.77c0-8.02-6.5-14.52-14.52-14.52H14.77z"/><g fill="#8BC34A"><path d="M27.157 27.259a.74.74 0 01-.593.298h-5.053a.735.735 0 01-.592-.298l-1.185-1.602H14v5.049c0 .673.509 1.221 1.134 1.221h18.44c.626 0 1.135-.548 1.135-1.221v-5.012h-6.396l-1.156 1.565z"/><path d="M20.697 24.483l1.185 1.601h4.312l1.156-1.564a.74.74 0 01.593-.298h6.38l-4.418-7.753c-.147-.292-.402-.469-.677-.469h-9.76c-.276 0-.532.179-.68.473 0 0-3.317 5.695-4.422 7.71h5.74a.74.74 0 01.591.3zm.723-6.764h5.89a.737.737 0 010 1.473h-5.89a.737.737 0 010-1.473zm-2.927 3.907c0-.407.33-.737.736-.737h10.228a.737.737 0 010 1.473H19.229a.737.737 0 01-.736-.736z"/></g></g></svg>