<svg xmlns="http://www.w3.org/2000/svg" width="96" height="96" viewBox="0 0 48 48">
    <defs>
        <linearGradient id="paint0_linear" x1="14.7154" y1="7.13989" x2="75.259" y2="80.0598"
            gradientUnits="userSpaceOnUse">
            <stop stop-color="#0C0E0F"></stop>
            <stop offset="1" stop-color="#383835"></stop>
        </linearGradient>
    </defs>
    <g fill="none" fill-rule="evenodd">
        <path fill="#303030"
            d="M24 2.176c2.948 0 5.804.576 8.491 1.713a21.652 21.652 0 0 1 6.936 4.679 21.771 21.771 0 0 1 4.678 6.935 21.689 21.689 0 0 1 1.714 8.492 21.67 21.67 0 0 1-1.714 8.49 21.652 21.652 0 0 1-4.678 6.937 21.771 21.771 0 0 1-6.936 4.678A21.689 21.689 0 0 1 24 45.813a21.67 21.67 0 0 1-8.491-1.713 21.652 21.652 0 0 1-6.936-4.678 21.771 21.771 0 0 1-4.678-6.936 21.689 21.689 0 0 1-1.714-8.491c0-2.949.577-5.805 1.714-8.492a21.652 21.652 0 0 1 4.678-6.935 21.771 21.771 0 0 1 6.936-4.679A21.67 21.67 0 0 1 24 2.176zM24 0C10.743 0 0 10.743 0 24c0 13.251 10.743 24 24 24 13.251 0 24-10.743 24-24-.005-13.257-10.749-24-24-24z">
        </path>
        <g class="__initial-preloader-container" fill="none" width="48" height="48">
            <circle class="__initial-preloader-circle" cx="24px" cy="24px" r="23px" stroke-width="2px" stroke="#8BC34A"
                fill="url(#paint0_linear)" stroke-dasharray="1, 150" stroke-dashoffset="0" stroke-linecap="round">
            </circle>
        </g>
        <g fill="#FFF">
            <path fill="#FFF"
                d="M22.549 32.317H11.715c.212-3.821 2.065-5.186 4.946-6.99 1.783-1.126 3.963-2.344 3.963-4.763 0-1.853-1.315-3.142-3.212-3.142-2.485 0-3.344 2.11-3.393 4.175h-1.842l-.022-.445c0-3.284 2.136-5.464 5.349-5.464 3.142 0 5.186 1.898 5.186 4.833 0 3.234-2.533 4.784-4.974 6.262-1.522.913-3.262 1.81-3.707 3.686h8.54v1.848zM36.247 28.294h-2.272v4.023h-1.854v-4.023h-7.295v-2.027l7.333-10.579h1.816v10.77h2.272v1.836zm-4.126-9.73l-5.316 7.888h5.316v-7.888z">
            </path>
        </g>
    </g>
</svg>