<svg xmlns="http://www.w3.org/2000/svg" xmlns:xlink="http://www.w3.org/1999/xlink" width="40" height="40"
    viewBox="0 0 40 40">
    <defs>
        <path id="b"
            d="M6.502 24.713A15.146 15.146 0 0 1 5 18.113C5 9.766 11.716 3 20 3c8.284 0 15 6.766 15 15.113 0 6.97-4.683 12.838-11.053 14.584l.754 2.846a1.159 1.159 0 0 1-.809 1.418c-.123.033-.25.045-.377.036-7.386-.53-14.048-5.204-17.013-12.284zm6.796-4.873a2.08 2.08 0 0 0 2.074-2.085 2.08 2.08 0 0 0-2.074-2.085 2.08 2.08 0 0 0-2.075 2.085 2.08 2.08 0 0 0 2.075 2.085zm6.702 0a2.08 2.08 0 0 0 2.074-2.085A2.08 2.08 0 0 0 20 15.67a2.08 2.08 0 0 0-2.074 2.085A2.08 2.08 0 0 0 20 19.84zm6.702 0a2.08 2.08 0 0 0 2.075-2.085 2.08 2.08 0 0 0-2.075-2.085 2.08 2.08 0 0 0-2.074 2.085 2.08 2.08 0 0 0 2.074 2.085z" />
        <filter id="a" width="130%" height="126.5%" x="-15%" y="-13.2%" filterUnits="objectBoundingBox">
            <feOffset in="SourceAlpha" result="shadowOffsetOuter1" />
            <feGaussianBlur in="shadowOffsetOuter1" result="shadowBlurOuter1" stdDeviation="1.5" />
            <feColorMatrix in="shadowBlurOuter1" values="0 0 0 0 0 0 0 0 0 0 0 0 0 0 0 0 0 0 0.25 0" />
        </filter>
    </defs>
    <g fill="none" fill-rule="evenodd">
        <use fill="#000" filter="url(#a)" xlink:href="#b" />
        <use fill="#FFF" xlink:href="#b" />
    </g>
</svg>