<svg xmlns="http://www.w3.org/2000/svg" xmlns:xlink="http://www.w3.org/1999/xlink" width="24px" height="24px"
  viewBox="0 0 24 24" version="1.1">
  <!-- Generator: Sketch 64 (93537) - https://sketch.com -->
  <title>Icons/Payment/44/oldphone</title>
  <desc>Created with Sketch.</desc>
  <g id="Icons/Payment/44/oldphone" stroke="none" stroke-width="1" fill="none" fill-rule="evenodd">
    <g id="Group-43" transform="translate(2.000000, 2.000000)" fill="#607D8B" fill-rule="nonzero">
      <path
        d="M6.59440704,6.95210883 L1.7435943,2.10057007 C2.36970638,1.47468549 2.99457372,0.847556602 3.62193056,0.220427715 C3.91195863,-0.0694949647 4.37998675,-0.0744721781 4.67125957,0.211717592 L8.4503377,3.99315546 C8.73912101,4.28183384 8.73912101,4.75715772 8.44660343,5.0483247 L7.61884093,5.87454213 L6.84833719,6.6447659 C6.75373576,6.74057726 6.66784762,6.84261013 6.59440704,6.95210883 Z M10.5850936,14.8546794 C9.79093953,14.1715568 9.02914908,13.446128 8.28976422,12.7082561 C7.55162413,11.965407 6.8284211,11.206382 6.1438055,10.4087835 C5.58366546,9.76174578 5.47412696,8.82478536 5.76664454,8.03589704 L0.787621962,3.05743935 C-0.371245541,4.24823765 -0.22311962,7.20096949 1.04653114,9.79534197 C1.59173411,10.9177036 2.29875531,11.9305665 3.02942688,12.8936573 C3.75885368,13.8492823 4.55923156,14.7526465 5.40193113,15.6012614 C6.24712021,16.448632 7.14583379,17.2524519 8.10429563,17.9816137 C9.0677365,18.7145084 10.0834571,19.4162955 11.1987582,19.960056 C13.7978079,21.2280011 16.7528578,21.3673631 17.9428442,20.2076724 L12.9625769,15.2292147 C12.1734018,15.521626 11.2348561,15.4133716 10.5850936,14.8546794 Z M20.7858661,16.3242016 L17.006788,12.5452524 C16.7167599,12.2590626 16.2412633,12.2590626 15.9512352,12.5489853 L15.9487457,12.5489853 L15.1184937,13.3776913 L14.352969,14.1466708 C14.2583675,14.2412378 14.1550528,14.3246062 14.0455143,14.401753 L18.8950823,19.2520474 C19.5224391,18.6236742 20.1485512,17.9990339 20.7771528,17.3731494 C21.0696704,17.0832267 21.0758942,16.6141243 20.7858661,16.3242016 Z"
        id="sub_icon_oldphone" />
    </g>
  </g>
</svg>