<svg height="24px" width="24px" fill="none" viewBox="0 0 24 24" xmlns="http://www.w3.org/2000/svg">
  <path
    d="M19.103 3.982h-4.228C14.425 2.812 13.345 2 12.086 2c-1.35 0-2.429.811-2.788 1.982H4.979C3.9 3.982 3 4.882 3 5.964v14.054C3 21.099 3.9 22 4.98 22h14.035c1.08 0 1.979-.9 1.979-1.982V6.055a1.896 1.896 0 0 0-1.89-2.073zm-7.017 0c.54 0 .99.45.99.99s-.45.991-.99.991-.99-.45-.99-.99c-.09-.54.36-.99.99-.99zm-1.424 13.082L7.42 13.818l1.153-1.154 2.089 2.092 5.33-5.266 1.153 1.155-6.483 6.42z"
    fill="#FFF" fill-rule="evenodd"></path>
</svg>