<svg height="24px" width="24px" fill="none" viewBox="0 0 24 24" xmlns="http://www.w3.org/2000/svg">
  <path
    d="M18.45 6.7h.3A2.25 2.25 0 0 1 21 8.95v8.61a2.25 2.25 0 0 1-2.25 2.25H5.25A2.25 2.25 0 0 1 3 17.56V6.25A2.25 2.25 0 0 1 5.25 4h10.8a2.25 2.25 0 0 1 2.25 2.25v.45h.15zm-13.2-.9a.45.45 0 0 0-.45.45v.45h11.7v-.45a.45.45 0 0 0-.45-.45H5.25zM19.2 17.56a.45.45 0 0 1-.45.45H5.25a.45.45 0 0 1-.45-.45V8.5h13.95a.45.45 0 0 1 .45.45v8.61zm-4.09-2.596a1.8 1.8 0 1 0 0-3.6 1.8 1.8 0 0 0 0 3.6z"
    fill="#8dc641" fill-rule="evenodd"></path>
</svg>