<svg xmlns="http://www.w3.org/2000/svg" xmlns:xlink="http://www.w3.org/1999/xlink" version="1.1" id="Слой_1" x="0px"
  y="0px" viewBox="0 0 619.1 269" style="enable-background:new 0 0 619.1 269;" xml:space="preserve">
  <g>
    <g>
      <polygon style="fill:#EAEDF8;"
        points="159.9,267.8 158.9,120 153.2,120 153.2,64.6 158.9,64.6 161.9,53.2 161.9,53.2 161.9,53.2     167.6,45.4 168.2,44.9 168.2,44.2 168.2,34.5 168.2,34.4 168.2,34.4 183.7,4.5 184.1,4.5 199.6,34.4 199.7,34.5 199.7,34.5     199.7,44.9 200.2,45.4 205.9,53.2 205.9,53.2 205.9,53.3 205.9,64.6 211.6,64.6 211.6,120 205.9,120 205.9,267.8   " />
    </g>
    <g>
      <g>
        <g>
          <g>
            <path style="fill:#000105;"
              d="M160.7,265.8c5.2,0,10.4,0,15.6,0h28.4l0,0l0,0v-4.9v-31.2c0-4.2,0-8.3,0-12.5       c-0.1-9-0.2-18-0.3-26.9c-0.1-3.1-0.2-6.3-0.1-9.4c0.2-4.3,0.5-8.6,0.5-13c0-2.4-0.1-4.8-0.1-7.3c0-7.6-0.1-15.2-0.1-22.8       c0-6.6-0.1-13.2-0.1-19.9v-0.3h0.3c1.9,0,3.7,0,5.6,0h0.1l-0.3,0.3l-0.1-21.2c0-3.4,0-6.8-0.1-10.1v-0.3       c-0.3-4.7-0.1-9.1-0.2-14c0-3.3-0.1-6.5-0.1-9.8l0.7,0.7h-1.2c-1.5,0-3,0-4.5,0h-0.8v-0.7c0-2,0.1-4,0.1-6V51l0.1,0.4l0,0l0,0       l0,0l-5.6-10.9l0.1,0.1l-0.5-0.5l-0.2-0.1v-0.2l0.1-10.4l0.1,0.2l-6.5-12.4L182.7,1l-0.2-0.3l0.4,0.2h-0.4l0.4-0.2       c-5.1,9.7-10.3,19.3-15.6,28.8l0,0l0,0l0,0l0,0l0,0v-0.2c0,1.8-0.1,3.7-0.1,5.5c0,1.6-0.1,3.3-0.1,4.9v0.1l-0.1,0.1       c-0.2,0.2-0.4,0.3-0.6,0.5v-0.1c-2,3.6-3.9,7.1-5.8,10.8l0,0l0,0l0,0l0,0l0,0l0,0c0,1,0,2,0.1,3.1c0.1,2.7,0.2,5.6,0.3,8.3v0.4       h-0.4c-1.3,0-2.7,0.1-3.9,0.1H155l0.5-0.5l-0.1,55.4l-0.3-0.3h5.7h0.3v0.3v7.4v48.8v18.5c-0.2,2.9-0.2,7-0.2,10       c-0.3,8.6-0.2,16.9-0.3,25.6c0,10.1-0.1,20.1-0.1,30.2c0,0.2,0,2,0,3.8c0,0.9,0,1.8,0,2.4c0,0.7,0,1.1,0,1.1l-0.4-0.7       c0,0,0.1-49,0.1-49.7c0-7.2,0.2-9,0.4-17.3c0.3-13,0.2-30.8,0.2-43.8c0-1.4,0-2.8,0-4.1V118l0.2,0.2h-5.7h-0.2V118L155,63.1       c0-0.2,0-0.3,0-0.5v-0.2h0.2c1.9,0,3.8,0,5.7-0.1l-0.3,0.3c-0.1-3.8-0.1-7.6-0.2-11.4v-0.1l0.1-0.1l0,0l0,0l0,0l0,0l0,0       c0.4-0.7,0.7-1.4,1.1-2.1c1.5-2.8,3-5.9,4.6-8.4l0.2-0.3v-0.1l0,0c0.2-0.2,0.4-0.3,0.6-0.5l-0.1,0.2c0.1-3.4,0.2-6.9,0.2-10.4       l0,0l0,0l0,0l0,0l0,0l0,0c0.2-0.4,0.4-0.8,0.6-1.1l14.7-27.8l0,0l0,0h0.4l0,0l0,0l10.9,20.3l4.6,8.7l0,0l0,0l-0.1,10.4l0,0       l0.5,0.5l0,0l0,0l0.7,1.3l5,9.5l0,0l0,0l0,0l0,0v11.4l0,0h5.7h0.1v0.1l0.1,10l0.1,14.5V99l0.1,19v0.2h-0.2h-5.7l0.2-0.2       l0.3,54.9c-0.1,3.7-0.4,7.4-0.5,11.1c0,3.3,0.1,6.9,0.2,10.2c0.2,9.4,0.3,18.9,0.5,28.3c0.1,5.8-0.1,11.3-0.1,17       c-0.1,5.8-0.1,11.6-0.2,17.4l-0.1,8.9v0.3h-0.3l-32.3-0.2C168.5,265.9,164.6,265.8,160.7,265.8z" />
          </g>
        </g>
      </g>
    </g>
    <g>
      <g>
        <g>
          <g>
            <path style="fill:#000105;"
              d="M204.7,62.6c-0.4,0-0.8,0-1.1,0c-0.8,0-1.6,0-2.4,0c-0.8,0-1.5,0-2.3,0c-0.3,0-0.6,0-0.9,0       c-0.6,0.1-1.3,0.2-1.9,0.3c-0.2,0.1-0.5,0.2-0.7,0.1c-0.3-0.2-0.6-0.5-0.9-0.5c-0.2,0-0.3,0.1-0.5,0.1c-0.5,0-1.1,0.1-1.6,0.1       c-0.6,0-1.2,0.1-1.8,0.1c-0.5,0-1,0.1-1.5,0.1c-0.2,0-0.5,0.1-0.7,0.1l0,0c-0.3,0.3-0.7,0.1-1,0.2c-0.3,0-0.5,0.1-0.8,0.1       s-0.5-0.1-0.8-0.1l-3.1-0.3l-1.3,0.2c-0.9,0.1-1.9,0.1-2.8-0.2c-0.5-0.1-1-0.3-1.5-0.1c-0.3,0.1-0.6,0.3-0.9,0.3l-5.1-0.2h-3.5       h-1.3c-0.2-0.2-0.5-0.2-0.7-0.2c-0.6-0.3-1.2-0.2-1.9-0.3c-0.7,0-1.5-0.1-2.2-0.1c0,0-0.5-0.1-0.5,0l0.1-0.4       c0,0,3.5,0.1,3.6,0.1c0.5,0,0.7,0.2,1.3,0.4c0.9,0.3,2.2,0.2,3.2,0.2c0.1,0,0.2,0,0.3,0l6.7-0.1c0.5,0,1-0.2,1.4-0.2       c0.2,0,0.5-0.1,0.7,0.1c0.3,0.2,0.6,0.3,0.9,0.3l4-0.1l1.6,0.1c0.9-0.1,1.8,0,2.7-0.1l1.1,0.1h0.9l5.8-0.5       c0.3,0.1,0.5,0.4,0.8,0.5c0.2,0,0.5-0.1,0.7-0.2c0.7-0.1,1.4-0.3,2-0.5c0.4-0.1,0.8,0.1,1.2,0.1c0.4,0.1,0.8,0.1,1.3,0.2       c1,0.1,2,0.2,3,0.3C204.1,62.6,204.4,62.6,204.7,62.6z" />
          </g>
        </g>
      </g>
    </g>
    <g>
      <g>
        <g>
          <g>
            <path style="fill:#000105;"
              d="M204.7,118c-0.4,0-0.8,0-1.1,0c-0.8,0-1.6,0-2.4,0c-0.8,0-1.5,0-2.3,0c-0.3,0-0.6,0-0.9,0       c-0.6,0.1-1.3,0.2-1.9,0.3c-0.2,0.1-0.5,0.2-0.7,0.1c-0.3-0.2-0.6-0.5-0.9-0.5c-0.2,0-0.3,0.1-0.5,0.1c-0.5,0-1.1,0.1-1.6,0.1       c-0.6,0-1.2,0.1-1.8,0.1c-0.5,0-1,0.1-1.5,0.1c-0.2,0-0.5,0.1-0.7,0.1l0,0c-0.3,0.3-0.7,0.1-1,0.2c-0.3,0-0.5,0.1-0.8,0.1       s-0.5-0.1-0.8-0.1l-3.1-0.3l-1.3,0.2c-0.9,0.1-1.9,0.1-2.8-0.2c-0.5-0.1-1-0.3-1.5-0.1c-0.3,0.1-0.6,0.3-0.9,0.3l-5.1-0.2h-3.5       h-1.3c-0.2-0.2-0.5-0.2-0.7-0.2c-0.6-0.3-1.2-0.2-1.9-0.3c-0.7,0-1.5-0.1-2.2-0.1c0,0-0.5-0.1-0.5,0l0.1-0.4       c0,0,3.5,0.1,3.6,0.1c0.5,0,0.7,0.2,1.3,0.4c0.9,0.3,2.2,0.2,3.2,0.2c0.1,0,0.2,0,0.3,0l6.7-0.1c0.5,0,1-0.2,1.4-0.2       c0.2,0,0.5-0.1,0.7,0.1c0.3,0.2,0.6,0.3,0.9,0.3l4-0.1l1.6,0.1c0.9-0.1,1.8,0,2.7-0.1l1.1,0.1h0.9l5.8-0.5       c0.3,0.1,0.5,0.4,0.8,0.5c0.2,0,0.5-0.1,0.7-0.2c0.7-0.1,1.4-0.3,2-0.5c0.4-0.1,0.8,0.1,1.2,0.1c0.4,0.1,0.8,0.1,1.3,0.2       c1,0.1,2,0.2,3,0.3C204.1,117.9,204.4,117.9,204.7,118z" />
          </g>
        </g>
      </g>
    </g>
    <g>
      <g>
        <g>
          <g>
            <path style="fill:#000105;"
              d="M204.7,51.2c-0.4,0-0.8,0-1.1,0c-0.8,0-1.6,0-2.4,0c-0.8,0-1.5,0-2.3,0c-0.3,0-0.6,0-0.9,0       c-0.6,0.1-1.3,0.2-1.9,0.3c-0.2,0.1-0.5,0.2-0.7,0.1c-0.3-0.2-0.6-0.5-0.9-0.5c-0.2,0-0.3,0.1-0.5,0.1c-0.5,0-1.1,0.1-1.6,0.1       c-0.6,0-1.2,0.1-1.8,0.1c-0.5,0-1,0.1-1.5,0.1c-0.2,0-0.5,0.1-0.7,0.1l0,0c-0.3,0.3-0.7,0.1-1,0.2c-0.3,0-0.5,0.1-0.8,0.1       s-0.5-0.1-0.8-0.1l-3.1-0.3l-1.3,0.2c-0.9,0.1-1.9,0.1-2.8-0.2c-0.5-0.1-1-0.3-1.5-0.2c-0.3,0.1-0.6,0.3-0.9,0.3l-5.1-0.2h-3.5       h-1.3c-0.2-0.2-0.5-0.2-0.7-0.2c-0.6-0.3-1.2-0.2-1.9-0.3c-0.7,0-1.5-0.1-2.2-0.1c0,0-0.5-0.1-0.5,0l0.1-0.4       c0,0,3.5,0.1,3.6,0.1c0.5,0,0.6,0.2,1.3,0.4c0.9,0.3,2.2,0.2,3.2,0.2c0.1,0,0.2,0,0.3,0l6.7-0.1c0.5,0,1-0.2,1.4-0.2       c0.2,0,0.5-0.1,0.7,0.1c0.3,0.2,0.6,0.3,0.9,0.3l4-0.1l1.6,0.1c0.9-0.1,1.8,0,2.7-0.1l1,0.1h0.9l5.7-0.5       c0.3,0.1,0.5,0.4,0.8,0.5c0.2,0,0.5-0.1,0.7-0.2c0.7-0.1,1.4-0.3,2-0.5c0.4-0.1,0.8,0.1,1.2,0.1c0.4,0.1,0.8,0.1,1.3,0.2       c1,0.1,2,0.2,3,0.3C204.1,51.2,204.4,51.2,204.7,51.2z" />
          </g>
        </g>
      </g>
    </g>
    <g>
      <g>
        <g>
          <g>
            <path style="fill:#000105;"
              d="M199,40.4c-0.3,0-0.5,0-0.8,0c-0.6,0-1.2,0-1.8,0c-0.5,0-1.1,0-1.6,0c-0.2,0-0.4,0-0.7,0       c-0.5,0.1-0.9,0.2-1.4,0.3c-0.2,0.1-0.3,0.2-0.5,0.1c-0.2-0.2-0.4-0.5-0.7-0.5c-0.1,0-0.3,0.1-0.4,0.1c-0.4,0-0.8,0.1-1.2,0.1       s-0.9,0.1-1.3,0.1c-0.4,0-0.7,0.1-1.1,0.1c-0.2,0-0.4,0-0.5,0l0,0c-0.3,0.3-0.5,0.1-0.7,0.1s-0.4,0.1-0.6,0.1       c-0.2,0-0.4-0.1-0.5-0.1l-2.2-0.4l-1,0.1c-0.7,0.1-1.4,0-2.1-0.2c-0.4-0.1-0.7-0.3-1.1-0.2c-0.2,0.1-0.4,0.3-0.7,0.3l-3.7-0.2       h-2.6h-1c-0.2-0.2-0.4-0.2-0.5-0.2c-0.4-0.3-0.9-0.3-1.3-0.3c-0.5-0.1-1.1-0.1-1.6-0.1c0,0-0.4-0.1-0.4,0v-0.4l2.6,0.1       c0.4,0,0.5,0.2,0.9,0.4c0.7,0.3,1.6,0.2,2.3,0.2c0.1,0,0.1,0,0.2,0h4.9c0.4,0,0.7-0.2,1.1-0.2c0.2,0,0.3,0,0.5,0.1       c0.2,0.2,0.4,0.3,0.7,0.3l2.9-0.1l1.2,0.1c0.7-0.1,1.3,0,2-0.1l0.8,0.1h0.6l4.2-0.4c0.2,0.1,0.4,0.4,0.6,0.5       c0.2,0,0.4-0.1,0.5-0.1c0.5-0.1,1-0.3,1.5-0.5c0.3-0.1,0.6,0.1,0.9,0.2c0.3,0.1,0.6,0.2,0.9,0.2c0.7,0.1,1.4,0.2,2.2,0.3       C198.6,40.3,198.8,40.3,199,40.4z" />
          </g>
        </g>
      </g>
    </g>
    <g>
      <g>
        <g>
          <g>
            <path style="fill:#000105;"
              d="M198.4,29.5c-0.3,0-0.5,0-0.8,0c-0.6,0-1.1,0-1.7,0c-0.5,0-1.1,0-1.6,0c-0.2,0-0.4,0-0.6,0       c-0.5,0.1-0.9,0.2-1.4,0.3c-0.2,0.1-0.3,0.2-0.5,0.1c-0.2-0.2-0.4-0.5-0.7-0.5c-0.1,0-0.2,0.1-0.4,0.1c-0.4,0-0.8,0.1-1.2,0.1       s-0.9,0.1-1.3,0.1c-0.4,0-0.7,0.1-1.1,0.1c-0.2,0-0.3,0.1-0.5,0.1l0,0c-0.2,0.3-0.5,0.1-0.7,0.2c-0.2,0-0.4,0.1-0.6,0.1       c-0.2,0-0.4-0.1-0.5-0.1l-2.2-0.3l-1,0.2c-0.7,0.1-1.3,0.1-2-0.2c-0.4-0.1-0.7-0.3-1.1-0.1c-0.2,0.1-0.4,0.3-0.6,0.3l-3.6-0.2       h-2.5h-1c-0.2-0.2-0.4-0.2-0.5-0.2c-0.4-0.3-0.9-0.2-1.3-0.3c-0.5,0-1-0.1-1.6-0.1c0,0-0.4-0.1-0.4,0v-0.4c0,0,2.5,0.1,2.6,0.1       c0.4,0,0.5,0.2,0.9,0.4c0.7,0.3,1.6,0.2,2.3,0.2c0.1,0,0.1,0,0.2,0l4.8-0.1c0.3,0,0.7-0.2,1-0.2c0.2,0,0.3-0.1,0.5,0.1       s0.4,0.3,0.7,0.3l2.8-0.1l1.2,0.1c0.7-0.1,1.3,0,2-0.1l0.8,0.1h0.6l4.1-0.5c0.2,0.1,0.4,0.4,0.6,0.5c0.2,0,0.4-0.1,0.5-0.2       c0.5-0.1,1-0.3,1.5-0.5c0.3-0.1,0.6,0.1,0.9,0.1c0.3,0.1,0.6,0.1,0.9,0.2c0.7,0.1,1.4,0.2,2.1,0.3       C198,29.4,198.2,29.5,198.4,29.5z" />
          </g>
        </g>
      </g>
    </g>
    <g>
      <g>
        <g>
          <g>
            <path style="fill:#000105;"
              d="M175.4,253.4c0-1.1,0-2.1,0-3.2c0-2.3,0-4.5,0-6.8c0-2.1,0-4.2,0-6.3c0-0.8,0-1.7,0-2.5       c-0.1-1.8-0.2-3.6-0.3-5.5c-0.1-0.6-0.2-1.3-0.1-1.9c0.2-0.9,0.5-1.7,0.5-2.6c0-0.5-0.1-1-0.1-1.5c0-1.5-0.1-3.1-0.1-4.6       c0-1.7-0.1-3.4-0.1-5.2c0-1.4-0.1-2.9-0.1-4.3c0-0.7-0.1-1.4-0.1-2.1c0,0,0,0,0-0.1c-0.3-1-0.1-1.9-0.2-2.8       c0-0.7-0.1-1.5-0.1-2.2s0.1-1.4,0.1-2.1l0.3-8.7l-0.2-3.7c-0.1-2.7-0.1-5.3,0.2-7.9c0.1-1.4,0.3-2.8,0.1-4.3       c-0.1-0.8-0.3-1.7-0.3-2.5l0.2-14.2v-9.9v-3.7c0.2-0.6,0.2-1.4,0.2-2c0.3-1.7,0.2-3.4,0.3-5.2c0-2,0.1-4.1,0.1-6.1       c0-0.1,0.1-1.5,0-1.5l0.4,0.1c0,0-0.1,9.9-0.1,10.1c0,1.5-0.2,1.8-0.4,3.5c-0.3,2.6-0.2,6.2-0.2,8.9c0,0.3,0,0.6,0,0.8       l0.1,18.8c0,1.4,0.2,2.7,0.2,4c0,0.6,0.1,1.3-0.1,1.9c-0.2,0.9-0.3,1.7-0.3,2.6l0.1,11.1l-0.1,4.5c0.1,2.6,0,5.1,0.1,7.7       l-0.1,2.9v2.4l0.5,16.1c-0.1,0.7-0.4,1.5-0.5,2.3c0,0.7,0.1,1.4,0.2,2.1c0.1,1.9,0.3,3.8,0.5,5.7c0.1,1.2-0.1,2.3-0.1,3.4       c-0.1,1.2-0.1,2.3-0.2,3.5c-0.1,2.8-0.2,5.6-0.3,8.4C175.5,251.8,175.5,252.6,175.4,253.4z" />
          </g>
        </g>
      </g>
    </g>
    <g>
      <g>
        <g>
          <g>
            <path style="fill:#000105;"
              d="M189.4,253.4c0-1.1,0-2.1,0-3.2c0-2.3,0-4.5,0-6.8c0-2.1,0-4.2,0-6.3c0-0.8,0-1.7,0-2.5       c-0.1-1.8-0.2-3.6-0.3-5.5c-0.1-0.6-0.2-1.3-0.1-1.9c0.2-0.9,0.5-1.7,0.5-2.6c0-0.5-0.1-1-0.1-1.5c0-1.5-0.1-3.1-0.1-4.6       c0-1.7-0.1-3.4-0.1-5.2c0-1.4-0.1-2.9-0.1-4.3c0-0.7-0.1-1.4-0.1-2.1c0,0,0,0,0-0.1c-0.3-1-0.1-1.9-0.2-2.8       c0-0.7-0.1-1.5-0.1-2.2s0.1-1.4,0.1-2.1l0.3-8.7l-0.2-3.7c-0.1-2.7-0.1-5.3,0.2-7.9c0.1-1.4,0.3-2.8,0.1-4.3       c-0.1-0.8-0.3-1.7-0.3-2.5l0.2-14.2v-9.9v-3.7c0.2-0.6,0.2-1.4,0.2-2c0.3-1.7,0.2-3.4,0.3-5.2c0-2,0.1-4.1,0.1-6.1       c0-0.1,0.1-1.5,0-1.5l0.4,0.1c0,0-0.1,9.9-0.1,10.1c0,1.5-0.2,1.8-0.4,3.5c-0.3,2.6-0.2,6.2-0.2,8.9c0,0.3,0,0.6,0,0.8       l0.1,18.8c0,1.4,0.2,2.7,0.2,4c0,0.6,0.1,1.3-0.1,1.9c-0.2,0.9-0.3,1.7-0.3,2.6l0.1,11.1l-0.1,4.5c0.1,2.6,0,5.1,0.1,7.7       l-0.1,2.9v2.4l0.5,16.1c-0.1,0.7-0.4,1.5-0.5,2.3c0,0.7,0.1,1.4,0.2,2.1c0.1,1.9,0.3,3.8,0.5,5.7c0.1,1.2-0.1,2.3-0.1,3.4       c-0.1,1.2-0.1,2.3-0.2,3.5c-0.1,2.8-0.2,5.6-0.3,8.4C189.5,251.8,189.5,252.6,189.4,253.4z" />
          </g>
        </g>
      </g>
    </g>
    <g>
      <g>
        <g>
          <g>
            <path style="fill:#000105;"
              d="M203.8,90.3c-0.1-1.1-0.1-2.3-0.3-3.4c-0.4-2.4-1.2-4.7-2.3-6.8c-1.1-2-2.5-3.8-4.2-5.3       c-0.3-0.3-0.7-0.6-1-0.9c-0.4-0.3-0.7-0.5-1.1-0.8c-1.7-1-3.4-1.9-5.3-2.4c-0.6-0.2-1.3-0.2-1.9-0.5c-0.8-0.4-1.7-0.8-2.7-0.9       c-0.5,0-1,0-1.6,0c-0.8-0.1-1.6,0-2.5,0.1c-0.8,0.1-1.6,0.3-2.4,0.4l-1.3,0.4l-0.7,0.2l-0.6,0.3l-1.3,0.5l-1.2,0.6       c-1.3,0.7-2.6,1.6-3.7,2.6l-1.6,1.5l0,0c-0.4,1-1.2,1.5-1.8,2.4c-0.5,0.6-0.8,1.3-1.1,2c-0.4,0.6-0.7,1.3-1.1,1.9       c0,0-0.1,0.1-0.2,0.3c-0.1,0.2-0.2,0.6-0.4,0.9c-0.4,0.8-0.6,1.9-0.9,3c-0.1,0.6-0.2,1.1-0.3,1.6s-0.1,1-0.1,1.5       c0,0.4-0.1,0.8-0.1,1c0,0.3,0,0.4,0,0.4s0,0.2,0.1,0.6c0,0.4,0.1,0.9,0.2,1.3c0.1,0.5,0.2,1,0.3,1.3c0,0.2,0.1,0.3,0.1,0.4       s0,0.2,0,0.2c0.7,2.7,1.8,5.2,3.3,7.6c0.4,0.6,0.8,1.3,1.3,1.9c0.2,0.3,0.5,0.6,0.7,0.9c0.3,0.3,0.6,0.5,0.9,0.7       c0.7,0.5,1.6,0.9,2.2,1.4c0,0,0.2,0.1,0.5,0.4c0.3,0.2,0.8,0.5,1.4,0.9c1.2,0.6,2.9,1.5,4.8,1.9c0.9,0.3,1.8,0.3,2.7,0.5       c0.9,0.1,1.7,0.1,2.4,0.1s1.3-0.1,1.7-0.1c0.2,0,0.4,0,0.5,0s0.2,0,0.2,0s0.6-0.1,1.6-0.2c0.9-0.2,2.2-0.5,3.4-1       s2.4-1.1,3.2-1.6c0.9-0.5,1.4-0.9,1.4-0.9s0.2-0.1,0.5-0.4c0.3-0.2,0.7-0.5,1-0.9c0.4-0.3,0.7-0.7,1-0.9       c0.2-0.3,0.4-0.5,0.4-0.5c0.5-0.4,1.1-1,1.6-1.5c1.4-1.3,2.2-3,3-4.7c0.9-2,1.4-4.2,1.6-6.4c0-0.1,0.2-1.6,0.1-1.6l0.4,0.2       c0,0,0,0.7-0.1,1.7s-0.3,2.4-0.7,3.8c-0.2,0.7-0.4,1.3-0.6,1.9c-0.1,0.3-0.2,0.6-0.3,0.9s-0.3,0.5-0.4,0.8       c-0.2,0.5-0.4,0.9-0.6,1.1c-0.2,0.3-0.3,0.4-0.3,0.4c-0.8,1.4-1.2,1.6-2.5,2.9c-1.1,1-2.3,2.1-3.6,3.1s-2.8,1.9-4.1,2.5       c-0.3,0.1-0.5,0.2-0.8,0.3c0,0-0.3,0.1-0.8,0.3c-0.5,0.2-1.3,0.4-2.2,0.6c-1.8,0.4-4.4,0.7-6.9,0.5s-5-1-6.7-1.8       c-0.4-0.2-0.8-0.4-1.2-0.6c-0.3-0.2-0.6-0.4-0.9-0.5c-0.5-0.3-0.7-0.4-0.7-0.4c-0.6-0.4-1.2-0.8-1.8-1.2       c-0.6-0.4-1.2-0.9-1.7-1.4s-1-1-1.3-1.6c-0.4-0.9-0.9-1.6-1.4-2.5c0,0-0.1-0.2-0.3-0.4c-0.2-0.3-0.4-0.7-0.7-1.2       c-0.5-1-1.1-2.4-1.5-3.8c-0.2-0.7-0.4-1.4-0.5-2.1s-0.2-1.3-0.2-1.9s-0.1-1-0.1-1.4c0-0.2,0-0.3,0-0.4s0-0.1,0-0.1       s0-0.3,0.1-0.8c0-0.5,0-1.1,0.2-1.7c0.1-0.6,0.2-1.2,0.3-1.7c0.1-0.4,0.2-0.7,0.2-0.7c0.6-2.7,1.9-5.2,3.4-7.5       c0,0,0.1-0.2,0.3-0.4c0.2-0.2,0.4-0.6,0.7-0.8c0.5-0.6,1.1-1.2,1.1-1.2l1.9-1.7c0,0,0.2-0.2,0.6-0.5c0.2-0.1,0.4-0.3,0.7-0.5       s0.6-0.4,0.9-0.6c0.7-0.5,1.5-0.9,2.4-1.3s1.9-0.8,3-1.1c1-0.3,2.1-0.5,3.1-0.7c0.5,0,1-0.1,1.5-0.1c0.2,0,0.5,0,0.7-0.1       c0.2,0,0.4,0,0.7,0c0.8,0,1.5,0,2,0.1s0.8,0.1,0.8,0.1c0.8,0.2,1.5,0.7,2.3,1c0.7,0.2,1.5,0.4,2.2,0.6c2,0.7,3.9,1.5,5.7,2.7       c1.1,0.7,1.9,1.7,2.7,2.7c0.4,0.5,0.8,1,1.1,1.6l0.5,0.8l0.5,0.8c1.5,2.6,2.4,5.6,2.7,8.6C203.8,88.6,203.8,89.4,203.8,90.3z" />
          </g>
        </g>
      </g>
    </g>
    <g>
      <g>
        <g>
          <g>
            <path style="fill:#000105;"
              d="M191.8,98.2l-0.4-0.4l-0.9-0.9l-0.9-0.9c-0.1-0.1-0.2-0.3-0.4-0.3c-0.3-0.2-0.6-0.4-1-0.5       c-0.1,0-0.3,0-0.3-0.2s0.1-0.6,0-0.7c-0.1,0-0.2-0.1-0.3-0.1c-0.2-0.2-0.5-0.4-0.7-0.6c-0.3-0.2-0.5-0.4-0.8-0.6l-0.7-0.5       c-0.1-0.1-0.2-0.2-0.3-0.3l0,0c-0.4,0.1-0.4-0.2-0.5-0.3c-0.1-0.1-0.3-0.1-0.4-0.2c-0.1-0.1-0.1-0.3-0.2-0.4l-1-1.4l-0.6-0.4       c-0.4-0.3-0.8-0.7-1-1.2c-0.1-0.2-0.1-0.4-0.2-0.5l0,0l0,0c0-0.1,0-0.2-0.1-0.3c-0.1-0.2-0.3-0.3-0.3-0.5l0.2-2.8v-2v-0.7       c0.2-0.1,0.2-0.3,0.2-0.4c0.3-0.3,0.2-0.7,0.3-1c0-0.4,0.1-0.8,0.1-1.2c0,0,0.1-0.3,0-0.3h0.4l-0.1,2c0,0.3-0.2,0.4-0.4,0.7       c-0.3,0.5-0.2,1.2-0.2,1.8v0.2l0.1,3.7c0,0.3,0.2,0.5,0.2,0.8v0.1l-0.1-0.3c0.1,0.1,0.2,0.1,0.1,0.3c0,0.3,0,0.4,0.1,0.6       l1.6,1.5l0.6,0.7c0.4,0.3,0.7,0.7,1.1,1l0.4,0.4l0.3,0.3l2.6,1.9c0,0.2-0.1,0.5,0,0.6s0.3,0.1,0.4,0.2c0.4,0.2,0.8,0.3,1.1,0.5       c0.2,0.1,0.3,0.4,0.4,0.6c0.1,0.2,0.2,0.4,0.4,0.6l1,1.4L191.8,98.2z" />
          </g>
        </g>
      </g>
    </g>
  </g>
  <g>
    <g>
      <g>
        <path style="fill:#EAEDF8;"
          d="M422.7,267.7l0.2-3.7h-69.3v-13.1h12.3v-12h12.3v-13.2h12.3l-1.4-12h12.3v-12h12.3l-0.7-12     l4.7-0.7l2.1-17l37.6,0.7v17.7l7.4-1.4l0.7,14.1h12.3v12h12.3l-0.7,11.4h12.3v13.2H514v12h12.3v13.1h-69l0.2,3.7l0,0l0,0     L422.7,267.7z M446.2,185.4h4.2v-7.5h-4.2V185.4z M436.1,184.8l5.4,0.7V178l-5.4-0.7V184.8z M427.1,184.8h4.2v-7.5h-4.2V184.8z" />
      </g>
    </g>
    <g>
      <g>
        <g>
          <path style="fill:none;"
            d="M421.1,268.1l0.2-3.7H352v-13.1h12.3V238h12.3v-13.2h12.3v-12h12.3v-12h12.3v-12h6v-17.7h38.3v17.7      h6v12h12.6v12h12.3v12H501V238h12.4v13.3h12.3v13.1h-69l0.2,3.7l0,0l0,0H421.1z M446.6,183.8h4.2v-7.5h-4.2V183.8z M435.8,183.8      h6.1v-7.5h-6.1V183.8z M426.9,183.8h4.2v-7.5h-4.2V183.8z" />
          <g>
            <g>
              <path style="fill:#000105;"
                d="M426.9,183.8v-0.6v-1.3v-1.2c0-0.2,0-0.3,0-0.5c-0.1-0.3-0.2-0.7-0.3-1        c-0.1-0.1-0.2-0.2-0.1-0.4c0.2-0.2,0.5-0.3,0.5-0.5c0-0.1-0.1-0.2-0.1-0.3c0-0.3-0.1-0.6-0.1-0.9c0-0.3-0.1-0.6-0.1-0.9V176        l0.3-0.1h0.1l0.8-0.1c0.1,0,0.3-0.1,0.4-0.1l0,0c0.2-0.3,0.4-0.1,0.5-0.2c0.1,0,0.3-0.1,0.4-0.1c0.1,0,0.3,0.1,0.4,0.1        l1.5,0.3l0.4,0.1v0.3v0.1l0.2,0.7c0.1,0.5,0.1,1-0.2,1.5c-0.1,0.3-0.3,0.5-0.1,0.8c0.1,0.2,0.3,0.3,0.3,0.5l-0.2,2.7v1.2v0.3        h-0.3h-0.8h-0.7c-0.1-0.2-0.3-0.2-0.4-0.2c-0.3-0.3-0.7-0.2-1-0.3c-0.4,0-0.8-0.1-1.2-0.1c0,0-0.3-0.1-0.3,0V183l1.9,0.1        c0.3,0,0.3,0.2,0.7,0.4c0.5,0.3,1.1,0.2,1.6,0.2l-0.1,0.1c0,0,0,0,0-0.1v-0.2l-0.1-3.6c0-0.3-0.2-0.5-0.2-0.8        c0-0.1-0.1-0.3,0.1-0.4c0.2-0.2,0.3-0.3,0.3-0.5l-0.1-2.1l0.1,0.1l0,0l-0.9-0.1c-0.5,0.1-1,0-1.5,0.1l-0.6-0.1h-0.5l-0.9,0.1        l0.2-0.2l0.3,2.2c-0.1,0.1-0.4,0.3-0.5,0.4c0,0.1,0.1,0.3,0.2,0.4c0.1,0.4,0.3,0.7,0.5,1.1c0.1,0.2-0.1,0.4-0.1,0.7        c-0.1,0.2-0.1,0.4-0.2,0.7l-0.3,1.6L426.9,183.8z" />
            </g>
          </g>
          <g>
            <g>
              <path style="fill:#000105;"
                d="M435.8,183.8v-0.7v-1.5v-1.4c0-0.2,0-0.4,0-0.6c-0.1-0.4-0.2-0.8-0.3-1.2        c-0.1-0.1-0.2-0.3-0.1-0.4c0.2-0.2,0.5-0.4,0.5-0.6c0-0.1-0.1-0.2-0.1-0.3c0-0.3,0-0.6-0.1-0.8v-0.1h0.2h0.2        c0.4,0,0.8-0.1,1.1-0.1l1-0.1c0.2,0,0.3-0.1,0.5-0.1l0,0c0.2-0.3,0.4-0.1,0.6-0.2c0.2,0,0.3-0.1,0.5-0.1s0.3,0.1,0.5,0.1        l1.8,0.3l0.4,0.1v0.3v0.1l0.2,0.8c0.1,0.6,0.1,1.2-0.2,1.8c-0.1,0.3-0.3,0.6-0.1,0.9c0.1,0.2,0.3,0.4,0.3,0.5l-0.2,3.1v0.2        v0.3h-0.3h-2h-0.8c-0.1-0.2-0.3-0.2-0.4-0.2c-0.4-0.3-0.8-0.2-1.1-0.3c-0.4,0-0.9-0.1-1.3-0.1c0,0-0.3-0.1-0.3,0v-0.4l2.2,0.1        c0.3,0,0.4,0.2,0.8,0.4c0.6,0.3,1.4,0.2,2,0.2h0.2h0.9l-0.1,0.1l-0.1-3.2c0-0.3-0.2-0.6-0.2-0.9c0-0.1-0.1-0.3,0.1-0.4        c0.2-0.2,0.3-0.4,0.3-0.6l-0.1-2.4l0.1,0.1h-0.1l-1-0.1c-0.6,0.1-1.1,0-1.7,0.1l-0.6-0.1h-0.5l-2.2,0.3l0.4-0.4l0.2,1.4        c-0.1,0.2-0.4,0.3-0.5,0.5c0,0.1,0.1,0.3,0.2,0.5c0.1,0.4,0.3,0.8,0.5,1.3c0.1,0.3-0.1,0.5-0.1,0.8c-0.1,0.3-0.1,0.5-0.2,0.8        l-0.3,1.8L435.8,183.8z" />
            </g>
          </g>
          <g>
            <g>
              <path style="fill:#000105;"
                d="M446.6,183.8v-0.6v-1.3v-1.2c0-0.2,0-0.3,0-0.5c-0.1-0.3-0.2-0.7-0.3-1        c-0.1-0.1-0.2-0.2-0.1-0.4c0.2-0.2,0.5-0.3,0.5-0.5c0-0.1-0.1-0.2-0.1-0.3c0-0.3-0.1-0.6-0.1-0.9c0-0.3-0.1-0.6-0.1-0.9V176        l0.3-0.1h0.1l0.8-0.1c0.1,0,0.3-0.1,0.4-0.1l0,0c0.2-0.3,0.4-0.1,0.5-0.2c0.1,0,0.3-0.1,0.4-0.1c0.1,0,0.3,0.1,0.4,0.1        l1.5,0.3l0.4,0.1v0.3v0.1l0.2,0.7c0.1,0.5,0.1,1-0.2,1.5c-0.1,0.3-0.3,0.5-0.1,0.8c0.1,0.2,0.3,0.3,0.3,0.5l-0.2,2.7v1.2v0.3        h-0.3h-0.7h-0.8c-0.1-0.2-0.3-0.2-0.4-0.2c-0.3-0.3-0.7-0.2-1-0.3c-0.4,0-0.8-0.1-1.2-0.1c0,0-0.3-0.1-0.3,0V183l1.9,0.1        c0.3,0,0.3,0.2,0.7,0.4c0.5,0.3,1.1,0.2,1.6,0.2l-0.1,0.1c0,0,0,0,0-0.1v-0.2l-0.1-3.6c0-0.3-0.2-0.5-0.2-0.8        c0-0.1-0.1-0.3,0.1-0.4c0.2-0.2,0.3-0.3,0.3-0.5l-0.1-2.1l0.1,0.1l0,0l-0.9-0.1c-0.5,0.1-1,0-1.5,0.1l-0.6-0.1h-0.3l-0.9,0.1        l0.2-0.2l0.3,2.2c-0.1,0.1-0.4,0.3-0.5,0.4c0,0.1,0.1,0.3,0.2,0.4c0.1,0.4,0.3,0.7,0.5,1.1c0.1,0.2-0.1,0.4-0.1,0.7        c-0.1,0.2-0.1,0.4-0.2,0.7l-0.3,1.6V183.8z" />
            </g>
          </g>
          <g>
            <g>
              <path style="fill:#000105;"
                d="M421.1,268.1c4.6,0,9.2,0,13.9,0h22l0,0l0,0l0,0l0,0l-0.2-3.7l0,0h3.9h27.8c3.7,0,7.4,0,11.1,0        c8-0.1,16-0.2,24-0.3c0.7,0,1.4,0,2.2-0.1l-0.4,0.4c-0.1-2.1-0.1-4.2,0-6.2c0.1-2.3,0.2-4.6,0.4-6.9l0.1,0.1        c-1.6-0.1-3.1-0.1-4.7-0.1c-2.2,0-4.3,0.1-6.5,0.1h-1.2h-0.1v-0.1l-0.1-13.3l0.1,0.1h-5.8H501h-0.2v-0.2        c0-4.4-0.1-8.8-0.1-13.2l0.3,0.3h-2.9l-9.4,0.1h-0.4v-0.4l-0.1-9.5c0-0.8,0-1.7,0-2.5l0.4,0.4c-2.2,0-4.3,0-6.5,0h-0.2        c-1.9,0.2-3.8,0.2-5.6,0.2h-0.7v-0.7c0-2.2,0-4.5,0-6.9l-0.1-5.2l0.7,0.7l-4.6,0.1c-2.6,0-5.2,0-7.7-0.1h-0.7v-0.6        c0-0.5,0-1.1,0-1.6l0.1-10.5l0.5,0.5l-6-0.1h-0.5v-0.5l0.1-17.7l0.3,0.3h-4l-16.5,0.2c-6,0.1-11.9,0.1-17.9,0l0.5-0.5        c0,5.7-0.1,11.3-0.2,17v0.7v0.3h-0.3c-2,0-4-0.1-6-0.1l0.2-0.2c-0.1,4-0.1,7.9,0,12v0.1v0.2h-0.2c-3.5,0.1-7.3,0.3-10.9,0.3        h-1.5l0.5-0.5v12v0.4H401h-12.3l0.4-0.4v12v0.4h-0.4h-12.3l0.3-0.3v12.3v0.9v0.3h-0.3h-12.3l0.3-0.3v13.3v0.3h-0.3h-12.3        l0.3-0.3v4.5v8.6l-0.3-0.3h7.8c2.6,0.2,6.2,0.2,8.9,0.2c7.6,0.3,15.1,0.2,22.8,0.3c9,0,17.9,0.1,26.9,0.1c0.2,0,1.4,0,2.8,0        l-0.3-0.4c0,0.9-0.1,1.8-0.1,2.5s0,1.2,0,1.2l-0.4-0.7l0.2-3.1l0.8,0.8l-41.2-0.1c-6.4,0-8-0.2-15.4-0.4        c-3.7-0.1-7.9-0.2-12.6-0.2h-0.1V264c0-4.2,0-8.7,0-13.1v-0.1h0.1c4.3,0,8.6,0,12.3,0l-0.1,0.1c0-0.4,0-0.7,0-1v-3.7v-8.7        v-0.1h0.1h12.3l-0.2,0.2v-13.2v-0.2h0.2h12.3l-0.2,0.2v-12v-0.2h0.2h12.3l-0.2,0.2v-11.5c0-0.2,0-0.3,0-0.5v-0.2h0.2        c4.2,0,8.2-0.1,12.3-0.2l-0.4,0.4c0-1.6,0-3.3,0-4.9c0-2.3,0-4.8,0-7.1V188h0.4c0.5,0,1,0,1.4,0.1c1.5,0.1,3.1,0.2,4.6,0.2        l-0.1,0.1c0.1-2.2,0.1-4.5,0.1-6.8v-10.9l0,0l0,0l38-0.1h0.2h0.1v0.1l-0.1,17.7l0,0h2h4l0,0l0,0v12l0,0H476h0.1v0.1v5.4v6.7        l-0.1-0.1h6.3h6.1h0.1v0.1v4.5l0.1,7.6l-0.1-0.1l12.3-0.1h0.2v0.2l0.1,13.2l-0.3-0.3l12.3-0.1h0.4v0.4l0.1,13.3l-0.5-0.5        l12.1-0.1h0.3h0.6v0.5c-0.1,3.2-0.4,6.5-0.5,9.6c0,1.1,0,2.3,0,3.5v0.1h-0.1c-1.9,0-3.8,0.1-5.6,0.1        c-8.4,0.2-16.8,0.3-25.2,0.5c-5.1,0.1-10-0.1-15.1-0.1c-5.2-0.1-10.3-0.1-15.5-0.2l-7.5-0.1l0.3-0.3l0.1,3.7l0,0l0,0v0.3h-0.3        l-25.5-0.2C428,268.1,424.5,268.1,421.1,268.1z" />
            </g>
          </g>
        </g>
      </g>
      <g>
        <g>
          <g>
            <g>
              <path style="fill:#000105;"
                d="M425.9,188h5.7h12.3h8.4l0,0l0.2,3.1c0.1,1.5,0.2,3.1,0.3,4.6c0.3,3.3,0.6,6.6,0.9,9.9        c0.1,1.1,0.3,2.3,0.3,3.5c-0.1,1.6-0.3,3.2-0.2,4.8c0.1,0.9,0.2,1.8,0.3,2.7c0.1,2.8,0.4,5.6,0.6,8.4c0.2,3.1,0.5,6.2,0.7,9.3        l0.6,7.8c0.1,1.2,0.2,2.5,0.3,3.7v0.1c0.4,1.7,0.3,3.3,0.5,5.2c0.1,1.3,0.3,2.7,0.4,4c0.1,1.3,0.1,2.6,0.1,3.9l0.4,9.7v0.5        h-0.4l-6.1-0.2l-6.8,0.1c-4.8,0.1-9.6,0-14.4-0.3c-2.6-0.1-5.1-0.4-7.7-0.2c-0.5,0-1.1,0.1-1.7,0.1h-0.3v-0.3c0-1,0-1.9,0-2.9        l1.9-25.8l1.2-17.9l0.5-6.8c0.2-1.1,0.3-2.6,0.5-3.6c0.5-3.1,0.7-6.2,0.9-9.4l0.9-11.1c0-0.2,0.3-2.6,0.2-2.7l0.4,0.3        c0,0-1.3,18-1.4,18.3c-0.2,2.6-0.4,3.3-0.8,6.3c-0.6,4.7-1,11.3-1.3,16.1l-0.1,1.5l-2.2,34c-0.1,1.2-0.1,2.5-0.1,3.7l-0.3-0.4        c1.2,0,2.4-0.1,3.7-0.1c1.1,0,2.4,0,3.5,0.1c1.6,0.2,3.1,0.3,4.7,0.4l20.2,0.1l4.5,0.1l-0.1,0.1l-0.2-3.7        c-0.3-4.6-0.5-9.3-0.9-13.9l-0.3-5.3l-0.3-4.3l-2.2-29.2c0-1.4,0.3-2.8,0.2-4.1c0-1.2-0.3-2.5-0.4-3.8        c-0.4-3.5-0.7-6.9-1.1-10.4c-0.2-1.9-0.2-3.8-0.2-5.7l0.6,0.6c-0.2,0-0.4,0-0.6,0l-6.4-0.2c-5.1-0.1-10.1-0.2-15.2-0.3        L425.9,188z" />
            </g>
          </g>
        </g>
      </g>
      <g>
        <g>
          <g>
            <g>
              <path style="fill:#000105;"
                d="M425,268.2c0.1-0.7,0.1-1.4,0.2-2c0.1-1.5,0.2-2.9,0.3-4.4c0.1-1.4,0.2-2.7,0.3-4.1        c0-0.5,0.1-1.1,0.1-1.6c0-1.2,0-2.4-0.1-3.5c0-0.4-0.1-0.8,0-1.2c0.2-0.5,0.6-1.1,0.6-1.7c0-0.3-0.1-0.6,0-1        c0.1-1,0.1-2,0.1-3c0.1-1.1,0.1-2.2,0.1-3.3c0-0.9,0.1-1.9,0.1-2.8c0-0.4,0-0.9,0.1-1.3l0,0c-0.3-0.6,0-1.2,0-1.8        c0-0.5,0-1,0-1.4c0-0.5,0.1-0.9,0.2-1.4l0.8-5.6v-2.4c0-1.7,0.2-3.4,0.6-5.1c0.2-0.9,0.5-1.8,0.4-2.7        c-0.1-0.5-0.2-1.1-0.2-1.6l0.9-9.2l0.5-6.4l0.2-2.4c0.2-0.4,0.2-0.9,0.3-1.3c0.3-1.1,0.4-2.2,0.5-3.3c0.1-1.3,0.3-2.6,0.4-3.9        c0-0.1,0.2-0.9,0.1-1l0.4,0.1c0,0-0.6,6.4-0.6,6.5c-0.1,0.9-0.3,1.2-0.5,2.2c-0.4,1.7-0.5,4-0.6,5.7c0,0.2,0,0.4,0,0.5        l-0.8,12.1c-0.1,0.9,0.1,1.7,0,2.6c0,0.4,0,0.9-0.2,1.2c-0.3,0.5-0.4,1.1-0.4,1.7l-0.4,7.2l-0.3,2.9c-0.1,1.7-0.3,3.3-0.3,5        l-0.2,1.9l-0.1,1.5l-0.3,10.4c-0.1,0.5-0.5,0.9-0.6,1.4c-0.1,0.4,0,0.9,0.1,1.4c0,1.2,0.1,2.5,0.2,3.7c0,0.8-0.2,1.5-0.3,2.2        c-0.1,0.8-0.3,1.5-0.4,2.3c-0.2,1.8-0.5,3.6-0.7,5.4C425.1,267.2,425.1,267.7,425,268.2z" />
            </g>
          </g>
        </g>
      </g>
      <g>
        <g>
          <g>
            <g>
              <path style="fill:#000105;"
                d="M452.5,268.2c-0.1-0.7-0.1-1.4-0.2-2c-0.1-1.5-0.2-2.9-0.3-4.4c-0.1-1.4-0.2-2.7-0.3-4.1        c0-0.5-0.1-1.1-0.2-1.6c-0.2-1.2-0.3-2.3-0.6-3.5c-0.1-0.4-0.3-0.8-0.2-1.2c0.1-0.6,0.4-1.2,0.3-1.7c-0.1-0.3-0.1-0.6-0.2-0.9        c-0.1-1-0.2-2-0.3-3c-0.1-1.1-0.2-2.2-0.4-3.3c-0.1-0.9-0.2-1.8-0.3-2.8c-0.1-0.4-0.1-0.9-0.2-1.3l0,0        c-0.4-0.6-0.2-1.2-0.3-1.8c-0.1-0.5-0.2-0.9-0.2-1.4c-0.1-0.5,0-0.9,0-1.4l-0.1-5.6l-0.3-2.4c-0.2-1.7-0.3-3.4-0.2-5.1        c0-0.9,0.2-1.8-0.1-2.8c-0.1-0.5-0.4-1.1-0.4-1.6l-0.6-9.3l-0.5-6.4l-0.2-2.4c0.1-0.4,0.1-0.9,0.1-1.3c0.2-1.1,0.1-2.2,0-3.4        c-0.1-1.3-0.1-2.6-0.2-4c0-0.1,0-1-0.1-1l0.4,0.1c0,0,0.4,6.4,0.4,6.5c0.1,0.9-0.1,1.2-0.2,2.3c-0.2,1.7,0.1,4,0.3,5.7        c0,0.2,0,0.4,0,0.5l1,12.1c0.1,0.9,0.4,1.7,0.4,2.6c0,0.4,0.1,0.9,0,1.3c-0.2,0.6-0.2,1.1-0.2,1.7l0.7,7.2l0.1,2.9        c0.2,1.6,0.2,3.3,0.5,5l0.1,1.9l0.1,1.5l1.3,10.4c-0.1,0.5-0.4,1-0.4,1.5c0,0.4,0.2,0.9,0.3,1.3c0.2,1.2,0.5,2.4,0.8,3.7        c0.2,0.7,0,1.5,0,2.2c0,0.8,0,1.5,0,2.3c0,1.8,0.1,3.6,0.1,5.4C452.5,267.2,452.5,267.7,452.5,268.2z" />
            </g>
          </g>
        </g>
      </g>
      <g>
        <g>
          <g>
            <g>
              <path style="fill:#000105;"
                d="M425,200.6c-0.1,0-0.2,0-0.3,0c-0.2,0-0.4,0-0.6,0s-0.4,0-0.6,0c-0.1,0-0.2,0-0.2,0        c-0.2,0.1-0.3,0.2-0.5,0.3c-0.1,0.1-0.1,0.2-0.2,0.1c-0.1-0.2-0.2-0.5-0.2-0.5l-0.1,0.1c-0.1,0-0.3,0.1-0.4,0.1        c-0.2,0-0.3,0.1-0.5,0.1c-0.1,0-0.3,0.1-0.4,0.1c-0.1,0-0.1,0.1-0.2,0.1l0,0c-0.1,0.3-0.2,0.1-0.3,0.2c-0.1,0-0.1,0.1-0.2,0.1        c-0.1,0-0.1-0.1-0.2-0.1l-0.8-0.3l-0.3,0.2c-0.2,0.1-0.5,0.1-0.7-0.2c-0.1-0.1-0.3-0.3-0.4-0.1c-0.1,0.1-0.2,0.3-0.2,0.3        l-1.3-0.2h-1h-0.3c-0.1-0.2-0.1-0.2-0.2-0.2c-0.2-0.3-0.3-0.2-0.5-0.3c-0.2,0-0.4-0.1-0.6-0.1c0,0-0.1-0.1-0.1,0v-0.4l0.9,0.1        c0.1,0,0.2,0.2,0.3,0.4c0.2,0.3,0.6,0.2,0.8,0.2h0.1l1.7-0.1c0.1,0,0.2-0.2,0.4-0.2c0.1,0,0.1-0.1,0.2,0.1        c0.1,0.2,0.2,0.3,0.2,0.3l1-0.1l0.4,0.1c0.2-0.1,0.5,0,0.7-0.1l0.3,0.1h0.2l1.5-0.5c0.1,0.1,0.1,0.4,0.2,0.5        c0.1,0,0.1-0.1,0.2-0.2c0.2-0.1,0.4-0.3,0.5-0.5c0.1-0.1,0.2,0.1,0.3,0.1c0.1,0.1,0.2,0.1,0.3,0.2c0.3,0.1,0.5,0.2,0.8,0.3        C424.8,200.6,424.9,200.6,425,200.6z" />
            </g>
          </g>
        </g>
      </g>
      <g>
        <g>
          <g>
            <g>
              <path style="fill:#000105;"
                d="M424.2,212.8c-0.2,0-0.4,0-0.6,0c-0.4,0-0.9,0-1.3,0c-0.4,0-0.8,0-1.2,0c-0.2,0-0.3,0-0.5,0        c-0.3,0.1-0.7,0.2-1,0.3c-0.1,0.1-0.2,0.2-0.4,0.1c-0.2-0.2-0.3-0.5-0.5-0.5c-0.1,0-0.2,0.1-0.3,0.1c-0.3,0-0.6,0.1-0.9,0.1        s-0.7,0.1-1,0.1s-0.5,0.1-0.8,0.1c-0.1,0-0.3,0.1-0.4,0.1l0,0c-0.2,0.3-0.4,0.1-0.5,0.2c-0.1,0-0.3,0.1-0.4,0.1        c-0.1,0-0.3-0.1-0.4-0.1l-1.6-0.3l-0.7,0.2c-0.5,0.1-1,0.1-1.5-0.2c-0.3-0.1-0.5-0.3-0.8-0.1c-0.2,0.1-0.3,0.3-0.5,0.3        l-2.7-0.2h-1.8h-0.7c-0.1-0.2-0.3-0.2-0.4-0.2c-0.3-0.3-0.6-0.2-1-0.3c-0.4,0-0.8-0.1-1.2-0.1c0,0-0.3-0.1-0.3,0v-0.4l1.9,0.1        c0.3,0,0.3,0.2,0.7,0.4c0.5,0.3,1.2,0.2,1.7,0.2c0.1,0,0.1,0,0.2,0l3.6-0.1c0.3,0,0.5-0.2,0.8-0.2c0.1,0,0.3-0.1,0.4,0.1        c0.2,0.2,0.3,0.3,0.5,0.3l2.1-0.1l0.9,0.1c0.5-0.1,1,0,1.5-0.1l0.6,0.1h0.5l3.1-0.5c0.1,0.1,0.3,0.4,0.4,0.5        c0.1,0,0.3-0.1,0.4-0.2c0.4-0.1,0.7-0.3,1.1-0.5c0.2-0.1,0.4,0.1,0.7,0.1c0.2,0.1,0.4,0.1,0.7,0.2        C423.1,212.6,423.7,212.7,424.2,212.8C423.9,212.7,424.1,212.8,424.2,212.8z" />
            </g>
          </g>
        </g>
      </g>
      <g>
        <g>
          <g>
            <g>
              <path style="fill:#000105;"
                d="M423.4,224.7c-0.3,0-0.6,0-0.9,0c-0.6,0-1.2,0-1.9,0c-0.6,0-1.2,0-1.8,0c-0.2,0-0.5,0-0.7,0        c-0.5,0.1-1,0.2-1.5,0.3c-0.2,0.1-0.4,0.2-0.5,0.1c-0.2-0.2-0.5-0.5-0.7-0.5c-0.1,0-0.3,0.1-0.4,0.1c-0.4,0-0.9,0.1-1.3,0.1        c-0.5,0-1,0.1-1.4,0.1c-0.4,0-0.8,0.1-1.2,0.1c-0.2,0-0.4,0.1-0.6,0.1l0,0c-0.3,0.3-0.5,0.1-0.8,0.2c-0.2,0-0.4,0.1-0.6,0.1        s-0.4-0.1-0.6-0.1l-2.4-0.3l-1,0.2c-0.7,0.1-1.5,0.1-2.2-0.2c-0.4-0.1-0.8-0.3-1.2-0.1c-0.2,0.1-0.5,0.3-0.7,0.3l-3.9-0.2        h-2.7h-1c-0.2-0.2-0.4-0.2-0.6-0.2c-0.5-0.3-1-0.2-1.4-0.3c-0.6,0-1.1-0.1-1.7-0.1c0,0-0.4-0.1-0.4,0V224l2.8,0.1        c0.4,0,0.5,0.2,1,0.4c0.7,0.3,1.7,0.2,2.5,0.2c0.1,0,0.2,0,0.2,0l5.2-0.1c0.4,0,0.7-0.2,1.1-0.2c0.2,0,0.4-0.1,0.5,0.1        c0.2,0.2,0.5,0.3,0.7,0.3l3.1-0.1l1.3,0.1c0.7-0.1,1.4,0,2.1-0.1l0.8,0.1h0.7l4.5-0.5c0.2,0.1,0.4,0.4,0.6,0.5        c0.2,0,0.4-0.1,0.6-0.2c0.5-0.1,1.1-0.3,1.6-0.5c0.3-0.1,0.6,0.1,1,0.1c0.3,0.1,0.7,0.1,1,0.2c0.8,0.1,1.5,0.2,2.3,0.3        C423,224.6,423.2,224.7,423.4,224.7z" />
            </g>
          </g>
        </g>
      </g>
      <g>
        <g>
          <g>
            <g>
              <path style="fill:#000105;"
                d="M422.5,238c-0.4,0-0.8,0-1.2,0c-0.8,0-1.7,0-2.5,0s-1.6,0-2.4,0c-0.3,0-0.6,0-0.9,0        c-0.7,0.1-1.4,0.2-2,0.3c-0.2,0.1-0.5,0.2-0.7,0.1c-0.3-0.2-0.6-0.5-1-0.5c-0.2,0-0.4,0.1-0.5,0.1c-0.6,0-1.1,0.1-1.7,0.1        c-0.6,0-1.3,0.1-1.9,0.1c-0.5,0-1.1,0.1-1.6,0.1c-0.3,0-0.5,0.1-0.8,0.1l0,0c-0.4,0.3-0.7,0.1-1.1,0.2c-0.3,0-0.6,0.1-0.8,0.1        c-0.3,0-0.5-0.1-0.8-0.1l-3.2-0.3l-1.4,0.2c-1,0.1-2,0.1-3-0.2c-0.5-0.1-1-0.3-1.6-0.1c-0.3,0.1-0.6,0.3-0.9,0.3l-5.3-0.2        h-3.7h-1.4c-0.2-0.2-0.5-0.2-0.8-0.2c-0.6-0.3-1.3-0.2-1.9-0.3c-0.8,0-1.5-0.1-2.3-0.1c0,0-0.5-0.1-0.6,0l0.1-0.4        c0,0,3.7,0.1,3.8,0.1c0.5,0,0.7,0.2,1.3,0.4c1,0.3,2.3,0.2,3.3,0.2c0.1,0,0.2,0,0.3,0l7-0.1c0.5,0,1-0.2,1.5-0.2        c0.2,0,0.5-0.1,0.7,0.1c0.3,0.2,0.6,0.3,1,0.3l4.1-0.1l1.7,0.1c1-0.1,1.9,0,2.9-0.1l1.1,0.1h0.9l6-0.5        c0.3,0.1,0.6,0.4,0.8,0.5c0.3,0,0.5-0.1,0.8-0.2c0.7-0.1,1.4-0.3,2.1-0.5c0.4-0.1,0.8,0.1,1.3,0.1c0.4,0.1,0.9,0.1,1.3,0.2        c1,0.1,2.1,0.2,3.1,0.3C421.9,237.9,422.2,237.9,422.5,238z" />
            </g>
          </g>
        </g>
      </g>
      <g>
        <g>
          <g>
            <g>
              <path style="fill:#000105;"
                d="M465.8,200.6c-0.1,0-0.2,0-0.3,0c-0.2,0-0.4,0-0.6,0s-0.4,0-0.6,0c-0.1,0-0.2,0-0.2,0        c-0.2,0.1-0.3,0.2-0.5,0.3c-0.1,0.1-0.1,0.2-0.2,0.1c-0.1-0.2-0.2-0.5-0.2-0.5l-0.1,0.1c-0.1,0-0.3,0.1-0.4,0.1        c-0.2,0-0.3,0.1-0.5,0.1c-0.1,0-0.3,0.1-0.4,0.1c-0.1,0-0.1,0.1-0.2,0.1l0,0c-0.1,0.3-0.2,0.1-0.3,0.2c-0.1,0-0.1,0.1-0.2,0.1        c-0.1,0-0.1-0.1-0.2-0.1l-0.8-0.3l-0.3,0.2c-0.2,0.1-0.5,0.1-0.7-0.2c-0.1-0.1-0.3-0.3-0.4-0.1c-0.1,0.1-0.2,0.3-0.2,0.3        l-1.3-0.2h-0.9H456c-0.1-0.2-0.1-0.2-0.2-0.2c-0.2-0.3-0.3-0.2-0.5-0.3c-0.2,0-0.4-0.1-0.6-0.1c0,0-0.1-0.1-0.1,0v-0.4        l0.9,0.1c0.1,0,0.2,0.2,0.3,0.4c0.2,0.3,0.6,0.2,0.8,0.2h0.1l1.7-0.1c0.1,0,0.2-0.2,0.4-0.2c0.1,0,0.1-0.1,0.2,0.1        c0.1,0.2,0.2,0.3,0.2,0.3l1-0.1l0.4,0.1c0.2-0.1,0.5,0,0.7-0.1l0.3,0.1h0.2l1.5-0.5c0.1,0.1,0.1,0.4,0.2,0.5        c0.1,0,0.1-0.1,0.2-0.2c0.2-0.1,0.4-0.3,0.5-0.5c0.1-0.1,0.2,0.1,0.3,0.1c0.1,0.1,0.2,0.1,0.3,0.2c0.3,0.1,0.5,0.2,0.8,0.3        C465.7,200.6,465.8,200.6,465.8,200.6z" />
            </g>
          </g>
        </g>
      </g>
      <g>
        <g>
          <g>
            <g>
              <path style="fill:#000105;"
                d="M477.9,212.8c-0.2,0-0.4,0-0.6,0c-0.4,0-0.9,0-1.3,0c-0.4,0-0.8,0-1.2,0c-0.2,0-0.3,0-0.5,0        c-0.3,0.1-0.7,0.2-1,0.3c-0.1,0.1-0.2,0.2-0.4,0.1c-0.2-0.2-0.3-0.5-0.5-0.5c-0.1,0-0.2,0.1-0.3,0.1c-0.3,0-0.6,0.1-0.9,0.1        s-0.7,0.1-1,0.1s-0.5,0.1-0.8,0.1c-0.1,0-0.3,0.1-0.4,0.1l0,0c-0.2,0.3-0.4,0.1-0.5,0.2c-0.1,0-0.3,0.1-0.4,0.1        c-0.1,0-0.3-0.1-0.4-0.1l-1.6-0.3l-0.7,0.2c-0.5,0.1-1,0.1-1.5-0.2c-0.3-0.1-0.5-0.3-0.8-0.1c-0.2,0.1-0.3,0.3-0.5,0.3        l-2.7-0.2H458h-0.7c-0.1-0.2-0.3-0.2-0.4-0.2c-0.3-0.3-0.6-0.2-1-0.3c-0.4,0-0.8-0.1-1.2-0.1c0,0-0.3-0.1-0.3,0v-0.4l1.9,0.1        c0.3,0,0.3,0.2,0.7,0.4c0.5,0.3,1.2,0.2,1.7,0.2c0.1,0,0.1,0,0.2,0l3.6-0.1c0.3,0,0.5-0.2,0.8-0.2c0.1,0,0.3-0.1,0.4,0.1        c0.2,0.2,0.3,0.3,0.5,0.3l2.1-0.1l0.9,0.1c0.5-0.1,1,0,1.5-0.1l0.6,0.1h0.5l3.1-0.5c0.1,0.1,0.3,0.4,0.4,0.5        c0.1,0,0.3-0.1,0.4-0.2c0.4-0.1,0.7-0.3,1.1-0.5c0.2-0.1,0.4,0.1,0.7,0.1c0.2,0.1,0.4,0.1,0.7,0.2        C476.7,212.6,477.3,212.7,477.9,212.8C477.6,212.7,477.7,212.8,477.9,212.8z" />
            </g>
          </g>
        </g>
      </g>
      <g>
        <g>
          <g>
            <g>
              <path style="fill:#000105;"
                d="M488.8,224.7c-0.3,0-0.6,0-0.9,0c-0.6,0-1.2,0-1.9,0c-0.6,0-1.2,0-1.8,0c-0.2,0-0.5,0-0.7,0        c-0.5,0.1-1,0.2-1.5,0.3c-0.2,0.1-0.4,0.2-0.5,0.1c-0.2-0.2-0.5-0.5-0.7-0.5c-0.1,0-0.3,0.1-0.4,0.1c-0.4,0-0.9,0.1-1.3,0.1        c-0.5,0-1,0.1-1.4,0.1c-0.4,0-0.8,0.1-1.2,0.1c-0.2,0-0.4,0.1-0.6,0.1l0,0c-0.3,0.3-0.5,0.1-0.8,0.2c-0.2,0-0.4,0.1-0.6,0.1        s-0.4-0.1-0.6-0.1l-2.4-0.3l-1,0.2c-0.7,0.1-1.5,0.1-2.2-0.2c-0.4-0.1-0.8-0.3-1.2-0.1c-0.2,0.1-0.5,0.3-0.7,0.3l-4-0.2h-2.7        h-1c-0.2-0.2-0.4-0.2-0.6-0.2c-0.5-0.3-1-0.2-1.4-0.3c-0.6,0-1.1-0.1-1.7-0.1c0,0-0.4-0.1-0.4,0V224l2.8,0.1        c0.4,0,0.5,0.2,1,0.4c0.7,0.3,1.7,0.2,2.5,0.2c0.1,0,0.2,0,0.2,0l5.2-0.1c0.4,0,0.7-0.2,1.1-0.2c0.2,0,0.4-0.1,0.5,0.1        c0.2,0.2,0.5,0.3,0.7,0.3l3.1-0.1l1.3,0.1c0.7-0.1,1.4,0,2.1-0.1l0.8,0.1h0.7l4.5-0.5c0.2,0.1,0.4,0.4,0.6,0.5        c0.2,0,0.4-0.1,0.6-0.2c0.5-0.1,1.1-0.3,1.6-0.5c0.3-0.1,0.6,0.1,1,0.1c0.3,0.1,0.7,0.1,1,0.2c0.8,0.1,1.5,0.2,2.3,0.3        C488.3,224.6,488.5,224.7,488.8,224.7z" />
            </g>
          </g>
        </g>
      </g>
      <g>
        <g>
          <g>
            <g>
              <path style="fill:#000105;"
                d="M500.4,238c-0.4,0-0.8,0-1.2,0c-0.8,0-1.7,0-2.5,0s-1.6,0-2.4,0c-0.3,0-0.6,0-0.9,0        c-0.7,0.1-1.4,0.2-2,0.3c-0.2,0.1-0.5,0.2-0.7,0.1c-0.3-0.2-0.6-0.5-1-0.5c-0.2,0-0.4,0.1-0.5,0.1c-0.6,0-1.1,0.1-1.7,0.1        c-0.6,0-1.3,0.1-1.9,0.1c-0.5,0-1.1,0.1-1.6,0.1c-0.3,0-0.5,0.1-0.8,0.1l0,0c-0.4,0.3-0.7,0.1-1.1,0.2c-0.3,0-0.6,0.1-0.8,0.1        c-0.3,0-0.5-0.1-0.8-0.1l-3.2-0.3l-1.4,0.2c-1,0.1-2,0.1-3-0.2c-0.5-0.1-1-0.3-1.6-0.1c-0.3,0.1-0.6,0.3-0.9,0.3l-5.3-0.2        h-3.7H460c-0.2-0.2-0.5-0.2-0.8-0.2c-0.6-0.3-1.3-0.2-1.9-0.3c-0.8,0-1.5-0.1-2.3-0.1c0,0-0.5-0.1-0.6,0l0.1-0.4        c0,0,3.7,0.1,3.8,0.1c0.5,0,0.7,0.2,1.3,0.4c1,0.3,2.3,0.2,3.3,0.2c0.1,0,0.2,0,0.3,0l7-0.1c0.5,0,1-0.2,1.5-0.2        c0.2,0,0.5-0.1,0.7,0.1c0.3,0.2,0.6,0.3,1,0.3l4.1-0.1l1.7,0.1c1-0.1,1.9,0,2.9-0.1l1.1,0.1h0.9l6-0.5        c0.3,0.1,0.6,0.4,0.8,0.5c0.3,0,0.5-0.1,0.8-0.2c0.7-0.1,1.4-0.3,2.1-0.5c0.4-0.1,0.8,0.1,1.3,0.1c0.4,0.1,0.9,0.1,1.3,0.2        c1,0.1,2.1,0.2,3.1,0.3C499.8,237.9,500.1,237.9,500.4,238z" />
            </g>
          </g>
        </g>
      </g>
      <g>
        <g>
          <g>
            <g>
              <path style="fill:#000105;"
                d="M421.6,251.2c-0.5,0-1,0-1.5,0c-1.1,0-2.1,0-3.2,0c-1,0-2,0-3,0c-0.4,0-0.8,0-1.2,0        c-0.9,0.1-1.7,0.2-2.6,0.3c-0.3,0.1-0.6,0.2-0.9,0.1c-0.4-0.2-0.8-0.5-1.2-0.5c-0.2,0-0.5,0.1-0.7,0.1c-0.7,0-1.4,0.1-2.2,0.1        s-1.6,0.1-2.4,0.1c-0.7,0-1.3,0.1-2,0.1c-0.3,0-0.6,0.1-1,0.1l0,0c-0.4,0.3-0.9,0.1-1.3,0.2c-0.3,0-0.7,0.1-1,0.1        s-0.7-0.1-1-0.1l-4.1-0.3l-1.8,0.2c-1.2,0.1-2.5,0.1-3.7-0.2c-0.7-0.1-1.3-0.3-2-0.1c-0.4,0.1-0.8,0.3-1.2,0.3l-6.7-0.2h-4.6        h-1.8c-0.3-0.2-0.7-0.2-0.9-0.2c-0.8-0.3-1.6-0.2-2.4-0.3c-1,0-1.9-0.1-2.9-0.1c0,0-0.7-0.1-0.7,0l0.1-0.4        c0,0,4.6,0.1,4.7,0.1c0.7,0,0.9,0.2,1.6,0.4c1.2,0.3,2.9,0.2,4.2,0.2c0.1,0,0.3,0,0.4,0l8.8-0.1c0.6,0,1.3-0.2,1.9-0.2        c0.3,0,0.6-0.1,0.9,0.1c0.4,0.2,0.8,0.3,1.2,0.3l5.2-0.1l2.1,0.1c1.2-0.1,2.4,0,3.6-0.1l1.4,0.1h1.1l7.5-0.5        c0.3,0.1,0.7,0.4,1.1,0.5c0.3,0,0.7-0.1,1-0.2c0.9-0.1,1.8-0.3,2.7-0.5c0.5-0.1,1.1,0.1,1.6,0.1c0.5,0.1,1.1,0.1,1.6,0.2        c1.3,0.1,2.6,0.2,3.9,0.3C420.9,251.2,421.2,251.2,421.6,251.2z" />
            </g>
          </g>
        </g>
      </g>
      <g>
        <g>
          <g>
            <g>
              <path style="fill:#000105;"
                d="M513.7,251.2c-0.5,0-1,0-1.5,0c-1.1,0-2.1,0-3.2,0c-1,0-2,0-3,0c-0.4,0-0.8,0-1.2,0        c-0.9,0.1-1.7,0.2-2.6,0.3c-0.3,0.1-0.6,0.2-0.9,0.1c-0.4-0.2-0.8-0.5-1.2-0.5c-0.2,0-0.5,0.1-0.7,0.1c-0.7,0-1.4,0.1-2.2,0.1        s-1.6,0.1-2.4,0.1c-0.7,0-1.3,0.1-2,0.1c-0.3,0-0.6,0.1-1,0.1l0,0c-0.4,0.3-0.9,0.1-1.3,0.2c-0.3,0-0.7,0.1-1,0.1        s-0.7-0.1-1-0.1l-4.1-0.3l-1.8,0.2c-1.2,0.1-2.5,0.1-3.7-0.2c-0.7-0.1-1.3-0.3-2-0.1c-0.4,0.1-0.8,0.3-1.2,0.3l-6.7-0.2h-4.6        h-1.8c-0.3-0.2-0.7-0.2-0.9-0.2c-0.8-0.3-1.6-0.2-2.4-0.3c-1,0-1.9-0.1-2.9-0.1c0,0-0.7-0.1-0.7,0l0.1-0.4        c0,0,4.6,0.1,4.7,0.1c0.7,0,0.9,0.2,1.6,0.4c1.2,0.3,2.9,0.2,4.2,0.2c0.1,0,0.3,0,0.4,0l8.8-0.1c0.6,0,1.3-0.2,1.9-0.2        c0.3,0,0.6-0.1,0.9,0.1c0.4,0.2,0.8,0.3,1.2,0.3l5.2-0.1l2.1,0.1c1.2-0.1,2.4,0,3.6-0.1l1.4,0.1h1.1l7.5-0.5        c0.3,0.1,0.7,0.4,1.1,0.5c0.3,0,0.7-0.1,1-0.2c0.9-0.1,1.8-0.3,2.7-0.5c0.5-0.1,1.1,0.1,1.6,0.1c0.5,0.1,1.1,0.1,1.6,0.2        c1.3,0.1,2.6,0.2,3.9,0.3C512.9,251.2,513.3,251.2,513.7,251.2z" />
            </g>
          </g>
        </g>
      </g>
    </g>
  </g>
  <g>
    <path style="fill:#ECF3E5;"
      d="M111.9,268.4l-0.6-77l-44.6-1.7l1.9,77H51.7l3-77H39.3l-1.5-10.1h17.3l0.6-17.2H39.3l-1.5-7.1h-5.4   l-6.3-19.2c0.6,0.4,5.3,3.1,15,5.8c9.4,2.6,25.7,5.8,49.7,5.8c23.9,0,36.8-1.4,46.2-4.1c9.8-2.7,14.5-5.4,15.2-5.9l-6.3,19.2h-5.4   L139,164h-16.6l0.6,17.2h17.3l-1.5,10.1h-15.4l5.5,77L111.9,268.4L111.9,268.4z M111.6,181.4l0.4-17.2l-45.8-1.7l0.4,17.2h15.7   l0.4-16.6l13.4,1L96,181.3h15.6V181.4z" />
  </g>
  <g>
    <g>
      <g>
        <path style="fill:none;"
          d="M111.9,266.6l1.9-77H65.9l1.9,77h-17l3-77H38.4l-1.5-10.1h17.3l0.6-14.7H38.4l-1.5-7.1h-5.4     l-6.3-19.2c0.6,0.4,5.3,3.1,15,5.8c9.4,2.6,25.7,5.8,49.7,5.8c23.9,0,40.1-3.1,49.5-5.7c9.8-2.7,14.5-5.4,15.2-5.9l-6.3,19.2     h-5.4l-1.5,7.1H125l0.6,14.7h17.3l-1.5,10.1H126l3,77L111.9,266.6L111.9,266.6z M114,179.6l0.4-14.7H65.3l0.4,14.7h15.7l0.4-14.1     l16.8-0.6l-0.1,14.7L114,179.6L114,179.6z" />
        <g>
          <g>
            <path style="fill:#000105;"
              d="M114,179.6h-4h-8.5h-3.2l0,0v-4.8c0-1.1,0-2.1,0-3.2c-0.1-2.2-0.1-4.5-0.3-6.7l0.3,0.3h-0.1       c-0.8,0.1-1.6,0.3-2.4,0.2c-1.1-0.1-2.2-0.4-3.3-0.3c-0.6,0.1-1.2,0.1-1.8,0.2c-1.9,0.1-3.9,0.2-5.8,0.3l-3.2,0.2l0.2-0.2v3.3       v5.4c0,0.9,0,1.7,0,2.6v0.1c0.2,0.9,0.2,1.8,0.1,2.7v0.6h-0.6c-0.3,0-0.6,0-0.9,0c-0.9,0-1.9,0.1-2.8,0.1s-1.8-0.1-2.7-0.1       l-9.4-0.3h-0.4v-0.3v-1.6l-0.3-4.7c-0.2-2.8-0.2-5.6-0.1-8.4v-0.4h0.4c0.5,0,1,0.1,1.6,0.1c1.8,0.1,3.5,0.3,5.4,0.1       c1-0.1,2.1-0.3,3.1-0.3l17.9,0.2h12.5h4.7c0.7,0.2,1.8,0.2,2.5,0.2c0.5,0.1,0.9,0.1,1.4,0.1l-0.1-0.1c-0.2,1.7-0.2,3.4-0.3,5.1       l-0.3,7.7c0,0.1-0.1,1.8-0.1,1.9l-0.4-0.2c0,0,0.4-12.5,0.4-12.7c0-0.8,0.1-1.3,0.1-1.8l0.6,0.6c-0.7-0.1-1.4-0.1-2.6-0.3       c-3.3-0.3-7.9-0.2-11.2-0.2h-1.1l-23.7,0.1c-1.7,0-3.4,0.2-5.1,0.2c-0.8,0-1.7,0.1-2.5-0.1c-1-0.2-2-0.3-3.1-0.3l0,0v0.2       l0.5,14v0.5l-0.1-0.1l5.2,0.1c3.2-0.1,6.5,0,9.7-0.1H81l-0.1,0.1l0.1-2.9l0.1-3v-8.2v-0.2h0.3l12.1-0.7       c0.9,0.1,1.9,0.4,2.9,0.4c0.6,0,1.2-0.1,1.8-0.2h0.2v0.2c0,0.3,0,0.6,0.1,0.8l0.4,7.2c0.1,1.5-0.1,2.9-0.2,4.3l-0.1,2.3       l-0.5-0.5l2.1,0.1l10.5,0.3L114,179.6z" />
          </g>
        </g>
        <g>
          <g>
            <path style="fill:#000105;"
              d="M111.9,266.7h16.9l0,0l0,0l-0.1-1.9c-0.5-13.4-1.1-26.9-1.6-40.3l-1.4-34.8l0,0h2.9       c4.2,0,8.3,0,12.5,0l0,0l0,0c0.1-0.8,0.2-1.7,0.4-2.5l1-7.5l0.1,0.1c-5.8,0.1-11.6,0.1-17.3,0.2h-0.2v-0.2       c-0.1-2.6-0.3-5.1-0.4-7.6c-0.1-2.3-0.3-4.7-0.4-7.1v-0.5h0.5c1.5,0,2.9,0,4.3,0c4,0.1,8,0.4,12.1,0.4l0,0l0,0       c0.3-1.2,0.5-2.4,0.8-3.6c0.2-1.2,0.5-2.4,0.7-3.6l0,0l0,0c1.7,0,3.4,0,5.1,0h0.3H148c2.1-6.4,4.2-12.8,6.3-19.2l0.2,0.2       c-2,1.2-4.2,2.1-6.4,3c-9.6,3.7-19.7,5.8-29.9,7.1c-8.5,1.1-17.1,1.6-25.7,1.8c-4.1,0.1-8.2,0-12.3-0.1h-0.3       c-5.7,0.1-11.1-0.5-17-1.1c-4.4-0.5-8.8-1.1-13.2-1.9c-4.2-0.8-8.3-1.9-12.3-3.2c-4.4-1.4-8.7-2.9-12.7-5.3l0.8-0.6l6.2,19.3       l-0.4-0.3h5.4H37l0.1,0.3l1.5,7.1l-0.3-0.3h5.2l11.2-0.1h0.4v0.4l-0.4,11.2c0,1.2-0.1,2.4-0.1,3.5v0.5h-0.5       c-5.8,0-11.6,0-17.3,0l0.5-0.6l1.4,10.1l-0.5-0.4c5.1,0.1,10.3,0.1,15.4,0.2h0.3v0.3v0.9c-0.5,8.6-1,16.7-1.1,25.3       c-0.1,4.8-0.1,10-0.3,14.9L51,266.7l-0.4-0.4h16.9l-0.4,0.4l-0.7-32.1l-1.1-44.9v-0.3h0.3h14.1H102c3.4,0.2,8,0.2,11.5,0.2h0.1       v0.1c0,0.2,0,0.4,0,0.6c-0.5,10.4-0.7,20.4-1,31c-0.3,12.2-0.7,24.4-1,36.5c0,0.3-0.1,2.5-0.2,4.6c0,1.1-0.1,2.1-0.1,2.9       s0,1.3,0,1.4l-0.4-0.9c0,0,1.6-59.3,1.6-60.2c0.2-6.7,0.3-9.5,0.6-15.9l0.4,0.4c-0.8,0-2.7-0.1-5-0.1       c-12.7-0.3-29.3-0.2-42.9-0.2l0.1-0.1c0.1,3.9,0.2,7.1,0.3,10.1c0,1.7,0.1,3.3,0.1,5l1.6,61.9v0.2h-0.2H50.6h-0.2v-0.2       l1.3-33.2c0.3-8.1,0.4-16,0.7-24.1c0.2-3.8,0.3-8,0.6-11.6c0.2-2.7,0.4-5.4,0.6-8.1l0.1,0.1c-2.5,0-4.9-0.1-7.4-0.1h-8l0,0l0,0       l-1.5-10.1v-0.1h0.1h17.3l-0.1,0.1l0.6-14.7l0.1,0.1H38.6h-0.2h-0.1v-0.1l-1.5-7.1l0.1,0.1h-5.4h-0.1l0,0L27,144.4l-1.9-5.7       v-0.1h0.1c2.9,1.7,6,2.9,9.1,4s6.3,2,9.6,2.8c6.5,1.6,13,2.6,19.6,3.3c0,0,4.4,0.5,8.7,0.8c4.4,0.3,8.8,0.5,8.8,0.5       s0.9,0,2.2,0.1c1.3,0,3.1,0.1,4.9,0.1c3.6,0,7.1,0,7.1,0c10.1-0.2,20.3-1.1,30.3-2.8c5-0.9,10-1.9,14.8-3.4       c2.4-0.7,4.8-1.5,7.2-2.4c2.3-0.9,4.7-1.9,6.8-3.2l0.9-0.5l-0.3,0.9l-6.2,19.2l-0.1,0.3h-0.3h-5.4l0.5-0.4l-1.5,7.1l-0.1,0.4       h-0.4H139c-4.4-0.1-9-0.4-13.4-0.5c-0.2,0-0.4,0-0.6,0l0.1-0.1c0.1,3.8,0.4,7.9,0.6,11.8l0.2,2.9l-0.3-0.3       c5.8-0.1,11.5-0.2,17.3-0.2h0.6l-0.1,0.6l-1.3,10.1l-0.1,0.6h-0.6l-3.8,0.1c-3.9,0.1-7.8,0-11.6,0l0.7-0.7c0.1,3,0.2,5.9,0.2,9       c0.2,7,0.4,14,0.6,21l1.6,47v0.1H129h-2.8C121.3,266.7,116.6,266.7,111.9,266.7z" />
          </g>
        </g>
      </g>
    </g>
    <g>
      <g>
        <g>
          <g>
            <path style="fill:#000105;"
              d="M142.7,157.7c-0.9,0-1.8,0-2.7,0c-1.9,0-3.9,0-5.8,0c-1.8,0-3.6,0-5.4,0c-0.7,0-1.4,0-2.2,0       c-1.6,0.1-3.1,0.2-4.7,0.3c-0.5,0.1-1.1,0.2-1.6,0.1c-0.7-0.2-1.5-0.5-2.3-0.5c-0.4,0-0.8,0.1-1.3,0.1c-1.3,0-2.6,0.1-4,0.1       c-1.5,0-2.9,0.1-4.4,0.1c-1.2,0-2.5,0.1-3.7,0.1c-0.6,0-1.2,0.1-1.8,0.1l0,0c-0.8,0.3-1.6,0.1-2.4,0.2c-0.6,0-1.3,0.1-1.9,0.1       s-1.2-0.1-1.8-0.1l-7.4-0.3l-3.2,0.2c-2.3,0.1-4.5,0.1-6.8-0.2c-1.2-0.1-2.4-0.3-3.6-0.1c-0.7,0.1-1.4,0.3-2.1,0.3L61.4,158       h-8.5h-3.2c-0.5-0.2-1.2-0.2-1.7-0.2c-1.5-0.3-2.9-0.2-4.5-0.3c-1.7,0-3.5-0.1-5.2-0.1c-0.1,0-1.3-0.1-1.3,0l0.1-0.4       c0,0,8.5,0.1,8.6,0.1c1.3,0,1.6,0.2,3,0.4c2.3,0.3,5.4,0.2,7.6,0.2c0.2,0,0.5,0,0.7,0l16.1-0.1c1.2,0,2.3-0.2,3.5-0.2       c0.5,0,1.1-0.1,1.7,0.1c0.7,0.2,1.5,0.3,2.2,0.3l9.5-0.1l3.9,0.1c2.2-0.1,4.4,0,6.6-0.1l2.5,0.1h2.1l13.8-0.5       c0.6,0.1,1.3,0.4,1.9,0.5c0.6,0,1.2-0.1,1.8-0.2c1.6-0.1,3.3-0.3,4.9-0.5c1-0.1,2,0.1,3,0.1c1,0.1,2,0.1,3,0.2       c2.4,0.1,4.8,0.2,7.2,0.3C141.4,157.7,142.1,157.7,142.7,157.7z" />
          </g>
        </g>
      </g>
    </g>
    <g>
      <g>
        <g>
          <g>
            <path style="fill:#000105;"
              d="M65.9,189.7v-1.5l-0.1-3.3l-0.1-3.1c0-0.4,0-0.8-0.1-1.2c-0.1-0.9-0.2-1.8-0.4-2.6       c-0.1-0.3-0.2-0.6-0.1-0.9c0.1-0.4,0.5-0.9,0.4-1.3c0-0.2-0.1-0.5-0.1-0.7c0-0.7-0.1-1.5-0.2-2.2c-0.1-0.8-0.1-1.7-0.2-2.5       l-0.2-2.1c0-0.3-0.1-0.7-0.1-1l0,0c-0.4-0.5-0.2-0.9-0.2-1.4c0-0.3-0.1-0.5-0.1-0.8l0.7,0.7h-0.3c-0.3,0-0.7-0.1-1-0.1       l-4.2-0.3l-1.8,0.2c-1,0.1-2.1,0.1-3.1,0l0.4-0.4c0,0.3-0.1,0.5-0.1,0.8c-0.1,0.7-0.4,1.3-0.2,2.1c0.1,0.4,0.3,0.8,0.3,1.2       l-0.4,6.9l-0.2,4.8l-0.1,1.8c-0.2,0.3-0.2,0.7-0.3,1c-0.3,0.8-0.3,1.7-0.4,2.5l-0.2,3l-0.1,0.7l-0.4-0.1c0,0,0.3-4.8,0.3-4.9       c0-0.7,0.2-0.9,0.4-1.7c0.4-1.3,0.3-3,0.3-4.3v-0.4l0.3-9.1c0-0.7-0.2-1.3-0.1-2c0-0.3,0-0.7,0.1-0.9c0.2-0.4,0.3-0.8,0.4-1.3       v-0.1l0,0l0,0l5.3-0.1l2.2,0.1c1,0,1.9,0,2.9,0h0.1v0.1c0,0.3,0,0.6,0.1,0.8v1.4v1.2l0.7,7.8c-0.1,0.4-0.4,0.7-0.4,1.1       c0,0.3,0.1,0.7,0.2,1c0.2,0.9,0.4,1.9,0.6,2.8c0.1,0.6,0,1.1-0.1,1.7c-0.1,0.6-0.1,1.1-0.1,1.7l-0.2,4.1L65.9,189.7z" />
          </g>
        </g>
      </g>
    </g>
    <g>
      <g>
        <g>
          <g>
            <path style="fill:#000105;"
              d="M125.8,189.7l-0.1-1.5l-0.1-3.3l-0.1-3.1c0-0.4,0-0.8-0.1-1.2c-0.1-0.9-0.2-1.8-0.4-2.6       c-0.1-0.3-0.2-0.6-0.1-0.9c0.1-0.4,0.5-0.9,0.4-1.3c0-0.2-0.1-0.5-0.1-0.7c0-0.7-0.1-1.5-0.2-2.2c-0.1-0.8-0.1-1.7-0.2-2.5       l-0.2-2.1c0-0.3-0.1-0.7-0.1-1l0,0c-0.4-0.5-0.2-0.9-0.2-1.4c0-0.3-0.1-0.6-0.1-0.8l0.7,0.7h-0.2c-0.3,0-0.7-0.1-1-0.1       l-4.2-0.3l-1.8,0.2c-1,0.1-2.1,0.1-3.1,0l0.4-0.4c0,0.2-0.1,0.5-0.1,0.7c-0.1,0.7-0.4,1.4-0.2,2.1c0.1,0.4,0.3,0.8,0.3,1.2       l-0.3,6.9l-0.1,4.8v1.8c-0.2,0.3-0.2,0.7-0.3,1c-0.3,0.8-0.3,1.7-0.3,2.5l-0.2,3c0,0-0.1,0.7,0,0.7l-0.4-0.1       c0,0,0.2-4.8,0.2-4.9c0-0.7,0.2-0.9,0.4-1.7c0.3-1.3,0.3-3,0.3-4.3v-0.4l0.1-9.1c0-0.7-0.2-1.3-0.2-2c0-0.3,0-0.7,0.1-0.9       c0.2-0.4,0.3-0.8,0.3-1.3v-0.1l0,0l0,0l5.3-0.1l2.2,0.1c1,0,1.9,0,2.9,0h0.1v0.1c0,0.3,0.1,0.6,0.1,0.9v1.4v1.2l0.8,7.8       c-0.1,0.4-0.4,0.8-0.4,1.1s0.1,0.7,0.2,1c0.2,0.9,0.4,1.8,0.6,2.8c0.1,0.6,0,1.1-0.1,1.7c-0.1,0.6-0.1,1.1-0.1,1.7l-0.1,4.1       L125.8,189.7z" />
          </g>
        </g>
      </g>
    </g>
    <g>
      <g>
        <g>
          <g>
            <path style="fill:#000105;"
              d="M81.4,179.6c0.1,0,0.3,0,0.4,0c0.3,0,0.6,0,0.9,0s0.6,0,0.9,0c0.1,0,0.2,0,0.3,0       c0.3-0.1,0.5-0.2,0.8-0.3c0.1-0.1,0.2-0.2,0.3-0.1c0.1,0.2,0.2,0.5,0.4,0.5c0.1,0,0.1-0.1,0.2-0.1c0.2,0,0.4-0.1,0.6-0.1       s0.5-0.1,0.7-0.1s0.4-0.1,0.6-0.1c0.1,0,0.2-0.1,0.3-0.1l0,0c0.1-0.3,0.3-0.1,0.4-0.2c0.1,0,0.2-0.1,0.3-0.1       c0.1,0,0.2,0.1,0.3,0.1l1.2,0.3l0.5-0.2c0.4-0.1,0.7-0.1,1.1,0.2c0.2,0.1,0.4,0.3,0.6,0.1c0.1-0.1,0.2-0.3,0.3-0.3l2,0.2h1.4       h0.5c0.1,0.2,0.2,0.2,0.3,0.2c0.2,0.3,0.5,0.2,0.7,0.3c0.3,0,0.6,0.1,0.8,0.1c0,0,0.2,0.1,0.2,0v0.4l-1.4-0.1       c-0.2,0-0.3-0.2-0.5-0.4c-0.4-0.3-0.9-0.2-1.2-0.2h-0.1l-2.6,0.1c-0.2,0-0.4,0.2-0.6,0.2c-0.1,0-0.2,0.1-0.3-0.1       c-0.1-0.2-0.2-0.3-0.4-0.3l-1.5,0.1l-0.6-0.1c-0.4,0.1-0.7,0-1.1,0.1l-0.4-0.1h-0.3l-2.2,0.5c-0.1-0.1-0.2-0.4-0.3-0.5       c-0.1,0-0.2,0.1-0.3,0.2c-0.3,0.1-0.5,0.3-0.8,0.5c-0.2,0.1-0.3-0.1-0.5-0.1c-0.2-0.1-0.3-0.1-0.5-0.2       c-0.4-0.1-0.8-0.2-1.2-0.3C81.6,179.7,81.5,179.7,81.4,179.6z" />
          </g>
        </g>
      </g>
    </g>
  </g>
  <g>
    <g>
      <path style="fill:#CEE6EA;"
        d="M198.8,267.3v-6.7h8.8v-6.7h5.3v-69.8h-5.3v-7h-7.3v-11.3h-6.2l89.5-46.5l89.5,46.5h-6.2v11.3h-7.3    v7h-5.3v69.8h5.3v6.7h8.8v6.7H198.8z M335,253.9h12.2v-69.8H335v6.2V253.9z M315.8,253.9H328v-69.8h-12.2v6.2V253.9z M296.6,253.9    h12.2v-69.8h-12.2v6.2V253.9z M277.4,253.9h12.2v-69.8h-12.2v6.2l0,0V253.9z M258.2,253.9h12.2v-69.8h-12.2v6.2V253.9z     M239.1,253.9h12.2v-69.8h-12.2v6.2V253.9z M219.9,253.9h12.2v-69.8h-12.2v6.2V253.9z" />
    </g>
  </g>
  <g>
    <g>
      <path style="fill:none;"
        d="M200.5,265v-6.7h8.8v-6.7h5.3v-69.8h-5.3v-7H202v-11.3h-6.2l89.5-46.5l89.5,46.5h-6.2v11.3h-7.3v7H356    v69.8h5.3v6.7h8.8v6.7H200.5z M336.7,251.6h12.2v-69.8h-12.2v6.2V251.6z M317.5,251.6h12.2v-69.8h-12.2v6.2V251.6z M298.4,251.6    h12.2v-69.8h-12.2v6.2V251.6z M279.2,251.6h12.2v-69.8h-12.2v6.2l0,0V251.6z M260,251.6h12.2v-69.8H260v6.2V251.6z M240.8,251.6    H253v-69.8h-12.2v6.2V251.6z M221.6,251.6h12.2v-69.8h-12.2v6.2V251.6z" />
      <g>
        <g>
          <path style="fill:#000105;"
            d="M221.6,251.6v-4.2v-9V230c0-1.1,0-2.2,0-3.4c-0.1-2.4-0.2-4.8-0.3-7.2c-0.1-0.8-0.2-1.7-0.1-2.5      c0.2-1.2,0.5-2.3,0.5-3.5c0-0.7-0.1-1.3-0.1-2c0-2-0.1-4.1-0.1-6.1c0-2.3-0.1-4.6-0.1-6.8l-0.1-5.7c0-0.9-0.1-1.8-0.1-2.7V190      c-0.3-1.3-0.1-2.5-0.2-3.8c0-1-0.1-2-0.1-3c0-0.5,0-0.9,0-1.4l0.1-0.8l0.7,0.1c0.5,0,1,0.1,1.4,0.1l10.7,0.3h0.3v0.3v0.8l0.2,5      c0.1,3.5,0.1,7-0.2,10.5c-0.1,1.9-0.3,3.7-0.1,5.6c0.1,1.1,0.3,2.2,0.3,3.3l-0.2,18.9V239v5c-0.2,0.8-0.2,1.9-0.2,2.7      c-0.2,1.6-0.2,3.2-0.2,4.8l0.2-0.2c-0.7,0-1.4,0-2.1,0l-8.1-0.1c-0.1,0-1.9-0.1-2,0l0.2-0.4l12,0.1l-0.7,0.7v-1.4      c0-1.9,0.2-2.4,0.4-4.7c0.3-3.5,0.2-8.3,0.2-11.8v-1.1l-0.1-24.9c0-1.8-0.2-3.6-0.2-5.4c0-0.8-0.1-1.8,0.1-2.6      c0.2-1.1,0.3-2.3,0.3-3.5l-0.1-14.5l0.1,0.1h-0.3l-6-0.1c-1.9,0-3.9,0-5.8,0l0,0c0,1.5,0,2.9,0.1,4.4l-0.1,3.9v3.2l0.5,21.4      c-0.1,1-0.4,2-0.5,3c0,0.9,0.1,1.9,0.2,2.8l0.5,7.6c0.1,1.6-0.1,3-0.1,4.6c-0.1,1.6-0.1,3.1-0.2,4.7l-0.3,11.1L221.6,251.6z" />
        </g>
      </g>
      <g>
        <g>
          <path style="fill:#000105;"
            d="M240.8,251.6v-4.2v-9V230c0-1.1,0-2.2,0-3.4c-0.1-2.4-0.2-4.8-0.3-7.2c-0.1-0.8-0.2-1.7-0.1-2.5      c0.2-1.2,0.5-2.3,0.5-3.5c0-0.7-0.1-1.3-0.1-2c0-2-0.1-4.1-0.1-6.1c0-2.3-0.1-4.6-0.1-6.8l-0.1-5.7c0-0.9-0.1-1.8-0.1-2.7V190      c-0.3-1.3-0.1-2.5-0.2-3.8c0-1-0.1-2-0.1-3c0-0.5,0-0.9,0-1.4l0.1-0.8l0.7,0.1c0.5,0,1,0.1,1.4,0.1l10.7,0.3h0.3v0.3v0.8l0.2,5      c0.1,3.5,0.1,7-0.2,10.5c-0.1,1.9-0.3,3.7-0.1,5.6c0.1,1.1,0.3,2.2,0.3,3.3l-0.2,18.9V239v5c-0.2,0.8-0.2,1.9-0.2,2.7      c-0.2,1.6-0.2,3.2-0.2,4.8l0.2-0.2c-0.7,0-1.4,0-2.1,0l-8.1-0.1c-0.1,0-1.9-0.1-2,0l0.2-0.4l12,0.1l-0.7,0.7v-1.4      c0-1.9,0.2-2.4,0.4-4.7c0.3-3.5,0.2-8.3,0.2-11.8v-1.1l-0.1-24.9c0-1.8-0.2-3.6-0.2-5.4c0-0.8-0.1-1.8,0.1-2.6      c0.2-1.1,0.3-2.3,0.3-3.5l-0.1-14.5l0.1,0.1h-0.3l-6-0.1c-1.9,0-3.9,0-5.8,0l0,0c0,1.5,0,2.9,0.1,4.4L241,190v3.2l0.5,21.4      c-0.1,1-0.4,2-0.5,3c0,0.9,0.1,1.9,0.2,2.8l0.5,7.6c0.1,1.6-0.1,3-0.1,4.6c-0.1,1.6-0.1,3.1-0.2,4.7l-0.3,11.1L240.8,251.6z" />
        </g>
      </g>
      <g>
        <g>
          <path style="fill:#000105;"
            d="M260,251.6v-4.2v-9V230c0-1.1,0-2.2,0-3.4c-0.1-2.4-0.2-4.8-0.3-7.2c-0.1-0.8-0.2-1.7-0.1-2.5      c0.2-1.2,0.5-2.3,0.5-3.5c0-0.7-0.1-1.3-0.1-2c0-2-0.1-4.1-0.1-6.1c0-2.3-0.1-4.6-0.1-6.8l-0.1-5.7c0-0.9-0.1-1.8-0.1-2.7V190      c-0.3-1.3-0.1-2.5-0.2-3.8c0-1-0.1-2-0.1-3c0-0.5,0-0.9,0-1.4l0.1-0.8l0.7,0.1c0.5,0,1,0.1,1.4,0.1l10.7,0.3h0.3v0.3v0.8l0.2,5      c0.1,3.5,0.1,7-0.2,10.5c-0.1,1.9-0.3,3.7-0.1,5.6c0.1,1.1,0.3,2.2,0.3,3.3l-0.2,18.9V239v5c-0.2,0.8-0.2,1.9-0.2,2.7      c-0.2,1.6-0.2,3.2-0.2,4.8l0.2-0.2c-0.7,0-1.4,0-2.1,0l-8.1-0.1c-0.1,0-1.9-0.1-2,0l0.2-0.4l12,0.1l-0.7,0.7v-1.4      c0-1.9,0.2-2.4,0.4-4.7c0.3-3.5,0.2-8.3,0.2-11.8v-1.1l-0.1-24.9c0-1.8-0.2-3.6-0.2-5.4c0-0.8-0.1-1.8,0.1-2.6      c0.2-1.1,0.3-2.3,0.3-3.5l-0.1-14.5l0.1,0.1H272l-6-0.1c-1.9,0-3.9,0-5.8,0l0,0c0,1.5,0,2.9,0.1,4.4l-0.1,3.9v3.2l0.5,21.4      c-0.1,1-0.4,2-0.5,3c0,0.9,0.1,1.9,0.2,2.8l0.5,7.6c0.1,1.6-0.1,3-0.1,4.6c-0.1,1.6-0.1,3.1-0.2,4.7l-0.3,11.1L260,251.6z" />
        </g>
      </g>
      <g>
        <g>
          <path style="fill:#000105;"
            d="M279.2,251.6v-4.2v-9V230c0-1.1,0-2.2,0-3.4c-0.1-2.4-0.2-4.8-0.3-7.2c-0.1-0.8-0.2-1.7-0.1-2.5      c0.2-1.2,0.5-2.3,0.5-3.5c0-0.7-0.1-1.3-0.1-2c0-2-0.1-4.1-0.1-6.1c0-2.3-0.1-4.6-0.1-6.8l-0.1-5.7c0-0.9-0.1-1.8-0.1-2.7V190      c-0.2-0.6-0.2-1.3-0.2-1.9l0.7,0.7l0,0l-0.7-0.7c0-0.6,0-1.2,0-1.9c0-1-0.1-2-0.1-3c0-0.5,0-0.9,0-1.4l0.1-0.8l0.7,0.1      c0.5,0,1,0.1,1.4,0.1l10.7,0.3h0.3v0.3v0.8l0.2,5c0.1,3.5,0.1,7-0.2,10.5c-0.1,1.9-0.3,3.7-0.1,5.6c0.1,1.1,0.3,2.2,0.3,3.3      l-0.2,18.9V239v5c-0.2,0.8-0.2,1.9-0.2,2.7c-0.2,1.6-0.2,3.2-0.2,4.8l0.2-0.2c-0.7,0-1.4,0-2.1,0l-8.1-0.1c-0.1,0-1.9-0.1-2,0      l0.2-0.4l12,0.1l-0.7,0.7v-1.4c0-1.9,0.2-2.4,0.4-4.7c0.3-3.5,0.2-8.3,0.2-11.8v-1.1l-0.1-24.9c0-1.8-0.2-3.6-0.2-5.4      c0-0.8-0.1-1.8,0.1-2.6c0.2-1.1,0.3-2.3,0.3-3.5l-0.1-14.5l0.1,0.1h-0.3l-6-0.1c-1.9,0-3.9,0-5.8,0l0,0c0,1.5,0,2.9,0.1,4.4v1.8      l-0.1-0.1l0,0l0.1,0.1v2.1v3.2l0.5,21.4c-0.1,1-0.4,2-0.5,3c0,0.9,0.1,1.9,0.2,2.8l0.5,7.6c0.1,1.6-0.1,3-0.1,4.6      c-0.1,1.6-0.1,3.1-0.2,4.7l-0.3,11.1L279.2,251.6z" />
        </g>
      </g>
      <g>
        <g>
          <path style="fill:#000105;"
            d="M298.4,251.6v-4.2v-9V230c0-1.1,0-2.2,0-3.4c-0.1-2.4-0.2-4.8-0.3-7.2c-0.1-0.8-0.2-1.7-0.1-2.5      c0.2-1.2,0.5-2.3,0.5-3.5c0-0.7-0.1-1.3-0.1-2c0-2-0.1-4.1-0.1-6.1c0-2.3-0.1-4.6-0.1-6.8l-0.1-5.7c0-0.9-0.1-1.8-0.1-2.7V190      c-0.3-1.3-0.1-2.5-0.2-3.8c0-1-0.1-2-0.1-3c0-0.5,0-0.9,0-1.4l0.1-0.8l0.7,0.1c0.5,0,1,0.1,1.4,0.1l10.7,0.3h0.3v0.3v0.8l0.2,5      c0.1,3.5,0.1,7-0.2,10.5c-0.1,1.9-0.3,3.7-0.1,5.6c0.1,1.1,0.3,2.2,0.3,3.3l-0.2,18.9V239v5c-0.2,0.8-0.2,1.9-0.2,2.7      c-0.2,1.6-0.2,3.2-0.2,4.8l0.2-0.2c-0.7,0-1.4,0-2.1,0l-8.1-0.1c-0.1,0-1.9-0.1-2,0l0.2-0.4l12,0.1l-0.7,0.7v-1.4      c0-1.9,0.2-2.4,0.4-4.7c0.3-3.5,0.2-8.3,0.2-11.8v-1.1l-0.1-24.9c0-1.8-0.2-3.6-0.2-5.4c0-0.8-0.1-1.8,0.1-2.6      c0.2-1.1,0.3-2.3,0.3-3.5l-0.1-14.5l0.1,0.1h-0.3l-6-0.1c-1.9,0-3.9,0-5.8,0l0,0c0,1.5,0,2.9,0.1,4.4l-0.1,3.9v3.2l0.5,21.4      c-0.1,1-0.4,2-0.5,3c0,0.9,0.1,1.9,0.2,2.8l0.5,7.6c0.1,1.6-0.1,3-0.1,4.6c-0.1,1.6-0.1,3.1-0.2,4.7l-0.3,11.1L298.4,251.6z" />
        </g>
      </g>
      <g>
        <g>
          <path style="fill:#000105;"
            d="M317.6,251.6v-4.2v-9V230c0-1.1,0-2.2,0-3.4c-0.1-2.4-0.2-4.8-0.3-7.2c-0.1-0.8-0.2-1.7-0.1-2.5      c0.2-1.2,0.5-2.3,0.5-3.5c0-0.7-0.1-1.3-0.1-2c0-2-0.1-4.1-0.1-6.1c0-2.3-0.1-4.6-0.1-6.8l-0.1-5.7c0-0.9-0.1-1.8-0.1-2.7V190      c-0.3-1.3-0.1-2.5-0.2-3.8c0-1-0.1-2-0.1-3c0-0.5,0-0.9,0-1.4l0.1-0.8l0.7,0.1c0.5,0,1,0.1,1.4,0.1l10.7,0.3h0.3v0.3v0.8l0.2,5      c0.1,3.5,0.1,7-0.2,10.5c-0.1,1.9-0.3,3.7-0.1,5.6c0.1,1.1,0.3,2.2,0.3,3.3l-0.2,18.9V239v5c-0.2,0.8-0.2,1.9-0.2,2.7      c-0.2,1.6-0.2,3.2-0.2,4.8l0.2-0.2c-0.7,0-1.4,0-2.1,0l-8.1-0.1c-0.1,0-1.9-0.1-2,0l0.2-0.4l12,0.1l-0.7,0.7v-1.4      c0-1.9,0.2-2.4,0.4-4.7c0.3-3.5,0.2-8.3,0.2-11.8v-1.1l-0.1-24.9c0-1.8-0.2-3.6-0.2-5.4c0-0.8-0.1-1.8,0.1-2.6      c0.2-1.1,0.3-2.3,0.3-3.5l-0.1-14.5l0.1,0.1h-0.3l-6-0.1c-1.9,0-3.9,0-5.8,0l0,0c0,1.5,0,2.9,0.1,4.4l-0.1,3.9v3.2l0.5,21.4      c-0.1,1-0.4,2-0.5,3c0,0.9,0.1,1.9,0.2,2.8l0.5,7.6c0.1,1.6-0.1,3-0.1,4.6c-0.1,1.6-0.1,3.1-0.2,4.7l-0.3,11.1L317.6,251.6z" />
        </g>
      </g>
      <g>
        <g>
          <path style="fill:#000105;"
            d="M336.8,251.6v-4.2v-9V230c0-1.1,0-2.2,0-3.4c-0.1-2.4-0.2-4.8-0.3-7.2c-0.1-0.8-0.2-1.7-0.1-2.5      c0.2-1.2,0.5-2.3,0.5-3.5c0-0.7-0.1-1.3-0.1-2c0-2-0.1-4.1-0.1-6.1c0-2.3-0.1-4.6-0.1-6.8l-0.1-5.7c0-0.9-0.1-1.8-0.1-2.7V190      c-0.3-1.3-0.1-2.5-0.2-3.8c0-1-0.1-2-0.1-3c0-0.5,0-0.9,0-1.4l0.1-0.8l0.7,0.1c0.5,0,1,0.1,1.4,0.1l10.7,0.3h0.3v0.3v0.8l0.2,5      c0.1,3.5,0.1,7-0.2,10.5c-0.1,1.9-0.3,3.7-0.1,5.6c0.1,1.1,0.3,2.2,0.3,3.3l-0.2,18.9V239v5c-0.2,0.8-0.2,1.9-0.2,2.7      c-0.2,1.6-0.2,3.2-0.2,4.8l0.2-0.2c-0.7,0-1.4,0-2.1,0l-8.1-0.1c-0.1,0-1.9-0.1-2,0l0.2-0.4l12,0.1l-0.7,0.7v-1.4      c0-1.9,0.2-2.4,0.4-4.7c0.3-3.5,0.2-8.3,0.2-11.8v-1.1l-0.1-24.9c0-1.8-0.2-3.6-0.2-5.4c0-0.8-0.1-1.8,0.1-2.6      c0.2-1.1,0.3-2.3,0.3-3.5l-0.1-14.5l0.1,0.1h-0.3l-6-0.1c-1.9,0-3.9,0-5.8,0l0,0c0,1.5,0,2.9,0.1,4.4L337,190v3.2l0.5,21.4      c-0.1,1-0.4,2-0.5,3c0,0.9,0.1,1.9,0.2,2.8l0.5,7.6c0.1,1.6-0.1,3-0.1,4.6c-0.1,1.6-0.1,3.1-0.2,4.7l-0.3,11.1L336.8,251.6z" />
        </g>
      </g>
      <g>
        <g>
          <path style="fill:#000105;"
            d="M200.5,265c5.5,0,10.9,0,16.4,0c11.7,0,23.3,0,35,0h32.8c4.4,0,8.7,0,13.1,0      c9.4-0.1,18.9-0.2,28.3-0.3c3.2-0.1,6.7-0.2,9.9-0.1c4.5,0.2,9,0.5,13.7,0.5c2.6,0,5-0.1,7.6-0.1c4.2,0,8.5,0,12.7,0l-0.1,0.1      v-6.7l0.1,0.1h-4.6h-4.2H361v-0.2v-6.7l0.2,0.2h-5.3h-0.2v-0.2c0-3.5,0-7-0.1-10.5c0-7.4-0.1-14.9-0.1-22.4      c0-3.5,0-7.1-0.1-10.6v-0.3c-0.3-5-0.1-9.6-0.2-14.8c0-3.7-0.1-7.5-0.1-11.2V181h0.8h0.3c1.7,0,3.3,0,5,0l-0.7,0.7      c0-2,0.1-4,0.1-6v-1v-0.6h0.6l7.3,0.1l-0.6,0.6l0.1-11.3V163h0.5h6.2l-0.2,0.8l-17-9l-17.3-8.8c-12.3-6.3-24.4-12.6-36.5-19.1      c-6.3-3.4-12.2-6.7-18.6-9.9h0.1c-0.3,0.2-0.6,0.3-0.9,0.5c-3.7,2-7.6,4.3-11.3,6.2l-65.5,33.9l-11.7,6.1l-0.1-0.6h6.2h0.3v0.3      v11.3l-0.3-0.3h7.3h0.3v0.3v7l-0.3-0.3h5.3h0.3v0.3v0.9V202c-0.2,3.1-0.2,7.3-0.2,10.5c-0.3,9-0.2,17.8-0.3,26.9v12l0.3-0.3      h-5.3H209v0.3v6.7l0.3-0.3h-7.7c-0.1,0-0.5,0-1.1,0h-0.3v0.3c0,1,0,2.7,0,4.1s0,2.6,0,2.6l-0.4-0.8v-5.9v-0.8h0.7h8.8l-0.7,0.7      v-6.7v-0.7h0.7h5.3l-0.7,0.7l0.1-25.6c0-7.6,0.2-9.5,0.4-18.2c0.2-7.7,0.2-17,0.2-26l0.1,0.1c-1.8,0-3.6,0-5.3,0h-0.1v-0.1      c0-2.4,0-4.8,0-7l0.1,0.1c-2.6,0-5.1,0-7.3,0H202v-0.1c0-0.2,0-0.3,0-0.5c0-1.4,0-2.9,0-4.3v-6.4l0.1,0.1h-6.2h-0.6l0.5-0.3      l75.1-39.1c4.8-2.5,9.5-5.1,14.3-7.6l0.2-0.1l0.2,0.1c1.4,0.7,2.8,1.4,4.2,2.2c2.9,1.5,6.2,3.1,8.9,4.7      c3.8,2.2,7.8,4.4,11.8,6.5l51.3,26.5l13.1,6.9l0.2,0.1h-0.2h-6.2l0,0v2.5v8.8l0,0l0,0h-7.3l0,0v7l0,0l0,0h-5.3l0.1-0.1l0.1,11.5      l-0.1,15.3V221l0.2,30.6l-0.2-0.2h5.3h0.3v0.3v6.7l-0.3-0.3l8.8-0.1h0.4v0.4v6.7v0.4h-0.4l-25.6,0.1c-3.9-0.1-7.8-0.4-11.7-0.5      c-3.5,0-7.3,0.1-10.8,0.2c-9.9,0.2-19.8,0.3-29.8,0.5c-6.1,0.1-11.8-0.1-17.9-0.1c-6.1-0.1-12.2-0.1-18.3-0.2      c-14.4-0.1-28.9-0.2-43.3-0.3C208.7,265.1,204.6,265,200.5,265z" />
        </g>
      </g>
    </g>
  </g>
  <g>
    <path style="fill:#201600;" d="M361.2,174.8H209.3H361.2z" />
    <g>
      <g>
        <g>
          <path style="fill:#000105;"
            d="M361.2,174.8h-7.8h-16.6h-15.6c-2.1,0-4.2,0-6.2,0c-4.5,0.1-9,0.2-13.4,0.3      c-1.5,0.1-3.2,0.2-4.7,0.1c-2.1-0.2-4.3-0.5-6.5-0.5c-1.2,0-2.4,0.1-3.6,0.1c-3.8,0-7.6,0.1-11.4,0.1c-4.2,0-8.5,0.1-12.7,0.1      l-10.6,0.1c-1.7,0-3.4,0-5.1,0.1h-0.1c-2.4,0.3-4.6,0.1-7,0.2c-1.8,0-3.6,0.1-5.5,0.1c-1.7,0-3.5-0.1-5.2-0.1l-19.9-0.3v-0.7      h1.5l9.2-0.2c6.5-0.1,13-0.1,19.5,0.2c3.5,0.1,6.9,0.3,10.5,0.1c2-0.1,4.1-0.3,6.1-0.3l35,0.2h24.3h9.2c1.5,0.2,3.5,0.2,5,0.2      c4.3,0.3,8.4,0.2,12.8,0.3l15.1,0.1c0.2,0,3.6,0.1,3.7,0l-0.4,0.4c0,0-24.5-0.1-24.8-0.1c-3.6,0-4.5-0.2-8.6-0.4      c-6.5-0.3-15.4-0.2-21.9-0.2h-2.1l-46.2,0.1c-3.4,0-6.6,0.2-10,0.2c-1.6,0-3.3,0.1-4.8-0.1c-2.1-0.2-4.2-0.3-6.4-0.3l-26.8,0.1      v-0.2h0.6l11.2,0.1c6.3-0.1,12.6,0,18.9-0.1l7.3,0.1h5.9l39.7-0.5c1.8,0.1,3.7,0.4,5.5,0.5c1.7,0,3.5-0.1,5.1-0.2      c4.7-0.2,9.4-0.3,14.1-0.5c2.9-0.1,5.6,0.1,8.5,0.1l8.7,0.2c6.9,0.1,13.7,0.2,20.6,0.3L361.2,174.8z" />
        </g>
      </g>
    </g>
  </g>
  <g>
    <g>
      <g>
        <g>
          <path style="fill:#000105;"
            d="M209.3,163.9l8.2-0.1l17.6-0.2l16.5-0.2c2.2,0,4.4,0,6.6-0.1c4.7-0.2,9.5-0.3,14.2-0.5      c1.6-0.1,3.4-0.2,5-0.1c2.3,0.1,4.6,0.5,6.9,0.4c1.3,0,2.5-0.1,3.8-0.1c4,0,8-0.1,12.1-0.2c4.5-0.1,9-0.2,13.4-0.2l11.2-0.2      c1.8,0,3.6-0.1,5.4-0.1h0.1c2.5-0.4,4.8-0.2,7.4-0.2c1.9,0,3.9-0.1,5.8-0.2c1.8,0,3.7,0.1,5.5,0.1c0,0,1.4,0,3.5,0      c2.1,0.1,5,0.1,7.8,0.2h0.5c0.1,0,0.2,0,0.2,0s0,0-0.2,0.1c0,0,0,0-0.1,0.1c0,0-0.1,0.1-0.1,0.2c0,0.1,0,0.1,0,0.2l0,0      c0,0,0,0,0,0.1l0,0l0,0c-0.2-0.2-0.5-0.4-0.8-0.5c-0.6-0.4-1.2-0.7-1.8-1c-1.2-0.6-2.3-1.2-3.2-1.7c-1.9-1-3.1-1.6-3.1-1.6      l-8.9-4.1c-6.3-2.9-12.5-5.8-18.7-9c-3.4-1.7-6.5-3.4-10-4.8c-2-0.8-4.1-1.6-6-2.4l-25.6-11.9h0.3l-7.9,4.1l-22.5,11.8l-8.7,4.5      c-1.4,0.6-3.4,1.6-4.8,2.2c-4.1,1.9-8.1,3.9-12.2,6l-14.2,7.3c-0.2,0.1-3.4,1.7-3.5,1.8l0.1-0.6c0,0,23.1-11.9,23.4-12      c3.4-1.7,4.3-2.1,8.3-3.9c6.2-2.9,14.5-7.4,20.7-10.5l1.9-1l19.4-10.1h0.1h0.1l24.7,11.2c3.2,1.5,6.5,2.7,9.7,4.2      c1.5,0.7,3.2,1.4,4.6,2.2c1.9,1.2,4,2.1,6,3.2c0,0,6.6,3.1,13.2,6.1c3.3,1.6,6.6,3.1,9,4.3c2.5,1.2,4.1,2,4.1,2s2.7,1.3,5.3,2.8      c0.6,0.4,1.3,0.7,1.8,1.2c0,0,0.1,0.1,0.1,0.2c-0.1,0.1-0.1,0.1-0.2,0.1H361c-0.2,0-0.3,0-0.5,0c-0.3,0-0.6,0-0.9,0      c-1.1-0.1-1.9-0.1-1.9-0.1c-6.7,0-13.4-0.1-20.1,0.1h-7.7h-6.3l-42.1,0.8c-1.9-0.1-3.9-0.4-5.9-0.4c-1.8,0-3.7,0.1-5.4,0.2      c-5,0.2-10,0.4-15,0.6c-3.1,0.1-6,0-9-0.1L237,164c-7.3,0-14.5,0-21.8,0L209.3,163.9z" />
        </g>
      </g>
    </g>
  </g>
  <path style="fill:#F6EDD1;"
    d="M577.6,266.8l0.2-0.1l0-0.7c-0.1-8.8-2.6-17.1-6.9-23.3c-4.4-6.4-10.3-9.9-16.5-9.9  c-6.2,0-7.6,3.5-12,9.9c-4.3,6.2-6.7,14.5-6.9,23.3l0,0.7l0.2,0.1h-22.6l0.1-0.2c0.2-0.3,0.4-0.5,0.6-0.8c0.4-0.5,0.7-1,1-1.5  c1.6-2.8,3-5.3,4.3-7.9c5.7-10.3,10.1-19.6,13.7-29.3l0.6-1.7h-5.1v-5.4h8.2l-0.6-1.7c5-14.9,5.7-31,8.7-45.4l0.3-1.5h-4.7l0-5.4  h6.7l-0.8-1.8c0.4-2.8,0.8-5.6,1.2-8.3l0-0.1c0.6-3.9,1.2-2.6,1.8-6.6c2.5-20.7,3.8-42.5,4.1-66.8l0.2-1.5l-2.8,0V68.4  c0-2.1,1.7-3.8,3.8-3.8h3.2c2.1,0,3.8,1.7,3.8,3.8v12.4h-4.8l2.3,2.2c0.2,10.9,0.6,20.8,1.1,30.3c0.6,10.7,1.4,20.5,2.5,30.2  c1,8.9,2.2,12.1,3.6,20.4l-0.9,1.8h5.8v5.4h-3.6l0.3,1.5c2,10.4,2.5,21.4,5.2,31.1c0.6,2.1,1.3,4.7,2.1,7.1c0.4,1.3,0.9,2.7,1.4,4  c0.3,0.9,0.7,1.9,1,2.9l-1.5,2h7.9v5.4h-3.9l0.7,1.7c5.1,13.6,11.4,26.5,19.3,39.5l0.1,0.2H577.6z" />
  <g>
    <g>
      <g>
        <path
          d="M575.3,266.9l0.2-0.1l0.1-0.1l0-0.1c0-4.9-0.8-9.8-2.3-14.5c-1.6-4.7-4-9.2-7.3-12.8c-1.7-1.8-3.7-3.4-5.9-4.5     c-1.1-0.6-2.2-1-3.4-1.4c-1.2-0.3-2.4-0.5-3.6-0.6c-1.2-0.1-2.5,0-3.7,0.3c-1.2,0.3-2.3,0.8-3.3,1.6c-1.9,1.6-3.2,3.7-4.5,5.7     c-1.3,2-2.8,3.9-3.9,6.1c-1.1,2.1-2,4.3-2.7,6.6c-1.4,4.5-2,9.1-2.1,13.7l0,0.2l0.1,0.1l0.2,0.1l0.2-0.6c-7.5,0-15,0-22.6-0.1     l0.3,0.6c0.4-0.6,0.9-1.2,1.4-1.9c0.1-0.2,0.2-0.4,0.3-0.5l0.3-0.5l0.6-1c0.7-1.4,1.5-2.8,2.3-4.2c1.5-2.8,3.1-5.6,4.5-8.5     c4.1-8,7.8-16.4,10.9-25l0.1-0.3l-0.3,0c-1.7,0-3.4,0-5.1,0l0.2,0.2c0-1.8,0-3.6,0-5.4l-0.2,0.2c2.7,0,5.5,0,8.2,0l0.2,0     l-0.1-0.2l-0.6-1.7l0,0.1c2.5-7.6,3.9-15.5,5.1-23.4c1.2-7.9,2.1-15.8,3.8-23.6l0,0l0,0c-1.6,0-3.2,0-4.7,0l0,0     c0-1.8,0-3.6,0-5.4l0,0c2.3,0,4.5,0,6.7,0l0,0c-0.3-0.6-0.5-1.2-0.8-1.8l0,0l0,0c0.4-2.4,0.7-4.8,1.1-7.3     c0.2-1.2,0.3-2.4,0.7-3.6c0.2-0.6,0.5-1.1,0.7-1.7c0.2-0.6,0.3-1.2,0.4-1.8c2.1-17.1,3.4-34.4,3.8-51.7     c0.1-5.3,0.3-10.5,0.3-15.8l0,0l0,0c0.1-0.5,0.1-1,0.2-1.5l0,0c-0.9,0-1.8,0-2.8,0l0,0l0,0c0-3,0-6,0-9l0-2.3     c0-0.7-0.1-1.5,0.2-2.2c0.4-1.4,1.8-2.5,3.2-2.7c0.7,0,1.5,0,2.2,0c0.7,0,1.5-0.1,2.2,0.1c1.5,0.3,2.6,1.6,2.9,3.1     c0.1,3,0.1,6,0.1,9c0,1.3,0,2.6,0,4l0,0.1l-0.1,0c-1.5,0-3.1,0-4.8,0l0.1-0.3c0.8,0.7,1.5,1.4,2.3,2.2l0.1,0l0,0.1     c0.3,6.3,0.5,12.7,0.8,19.3c0.1,3.3,0.2,6.6,0.4,9.9c0.1,3.3,0.4,6.7,0.6,10c0.4,6.7,1,13.4,1.7,19.9c0.3,3.3,0.7,6.5,1.3,9.7     c0.6,3.2,1.3,6.3,1.8,9.4c0.1,0.9,0.3,1.7,0.5,2.6l0,0c-0.3,0.6-0.6,1.2-0.9,1.8l0,0h0c1.9,0,3.8,0,5.8,0l0,0c0,1.8,0,3.6,0,5.4     l0,0c-1.2,0-2.4,0-3.6,0l0,0l0,0c1.6,7.7,2.3,15.7,3.6,23.6c0.7,3.9,1.6,7.8,2.7,11.6l0.8,2.9c0.3,1,0.6,1.9,0.9,2.8     c0.7,1.9,1.3,3.7,2,5.6l0,0.1l-0.1,0.1c-0.5,0.7-1,1.4-1.4,2l-0.1-0.3c2.7,0,5.3,0,7.9,0l0.2,0l0,0.2c0,1.8,0,3.6,0,5.4l0,0.2     l-0.1,0l-0.1,0c-1.3,0-2.5,0-3.8,0l0.1-0.2c4.1,11.3,9,22.7,14.8,33.1c1.6,3,3.3,5.8,4.9,8.5l0.2-0.4c-7.6,0-14.9,0.1-22.6,0.1     c7.1,0.1,14.8,0.2,22.6,0.2l0,0c-5.7-9.5-11.1-19.6-15.2-29.3c-1.7-4.1-3.3-8.2-4.8-12.2l-0.1,0.1c1.3,0,2.6,0,3.9,0l0.1,0l0-0.1     c0-1.8,0-3.6,0-5.4l0-0.1l-0.1,0c-2.7,0-5.3,0-7.9,0l0,0.1c0.5-0.7,1-1.4,1.4-2l0,0l0,0c-0.9-2.6-1.9-5.3-2.8-8     c-0.8-2.7-1.7-5.4-2.3-8.2c-1.4-5.5-2.1-11.3-2.9-17.2c-0.6-4.4-1.2-8.8-2.1-13.2l0-0.2l0.3,0c1.2,0,2.4,0,3.6,0l-0.2,0.2     c0-1.8,0-3.6,0-5.4l0.2,0.2c-1.9,0-3.8,0-5.8,0l-0.4,0l0.2-0.3c0.3-0.6,0.6-1.2,0.9-1.8l0,0.1c-0.7-4.1-1.6-8.2-2.4-12.3     c-0.8-4.1-1.2-8.3-1.6-12.4c-0.8-8.3-1.4-16.6-1.9-24.8c-0.4-10.9-0.7-21.2-1-31.5l0,0l0,0l-2.3-2.2l-0.1,0.2c1.6,0,3.2,0,4.8,0     l0.2,0l0-0.2c0-2.2,0-4.4,0-6.6c0-1.1,0-2.2,0-3.4l0-1.7c0-0.6,0-1.2-0.1-1.7c-0.3-1.2-1.1-2.2-2.2-2.7c-0.5-0.3-1.2-0.4-1.8-0.4     c-0.6,0-1.2,0-1.7,0c-0.6,0-1.1,0-1.8,0c-0.6,0.1-1.2,0.3-1.7,0.6c-1,0.6-1.8,1.8-1.9,3c0,4.2,0,8.5,0,12.8l0,0.1l0.1,0     c0.9,0,1.8,0,2.8,0l-0.1-0.1c-0.1,0.5-0.1,1-0.2,1.5l0,0l0,0c-0.2,20.2-1.4,41.1-3.6,61.2c-0.2,1.7-0.4,3.4-0.6,5.2     c-0.1,0.9-0.2,1.7-0.5,2.5c-0.2,0.8-0.7,1.5-0.9,2.4c-0.3,0.9-0.4,1.7-0.5,2.6l-0.4,2.6l-0.8,5.2l0,0.1l0,0.1l0.8,1.8l0.4-0.6     c-2.3,0-4.5,0-6.7,0l-0.4,0l0,0.4c0,1.8,0,3.6,0,5.4l0,0.4l0.4,0c1.6,0,3.2,0,4.7,0l-0.4-0.5c-0.4,1.7-0.7,3.5-1,5.2     c-1.2,7.1-2,14-3,21c-1,7-2.4,13.9-4.6,20.8l0,0c0.2,0.5,0.4,1.1,0.6,1.7l0,0l0,0c-0.9,0-1.9,0-2.8,0c-1.8,0-3.5,0-5.4,0l0,0     c0,1.8,0,3.6,0,5.4l0,0c1.6,0,3.4,0,5.1,0h0l0,0c-2.6,7.2-5.6,14.2-9,21.1c-1.7,3.5-3.5,6.9-5.4,10.3c-0.9,1.7-1.8,3.4-2.8,5.1     l-1.4,2.6c-0.5,0.9-1.1,1.6-1.7,2.4l-0.1-0.1c7.4,0,15,0,22.6,0l-0.1,0.2l-0.2-0.1l-0.1,0l0-0.1c0-4.9,0.7-9.8,2.2-14.5     c0.7-2.3,1.7-4.6,2.9-6.8c1.2-2.2,2.7-4.1,4-6.2c1.4-2,2.7-4.2,4.9-5.5c1.1-0.6,2.3-1,3.6-1.1c1.2-0.1,2.5-0.1,3.7,0.1     c5,0.7,9.3,3.7,12.5,7.5c1.3,1.6,2.7,3.5,3.9,5.7c1.2,2.2,2.2,4.7,3,7.2c1.6,5,2,10.1,1.9,13.6l0,0.1l-0.1,0.1     C575.4,266.8,575.3,266.9,575.3,266.9" />
      </g>
    </g>
  </g>
  <g>
    <g>
      <g>
        <g>
          <path
            d="M565.1,171.2c-0.2,0-0.4,0-0.6,0c-0.4,0-0.8,0-1.2,0c-0.4,0-0.8,0-1.2,0c-0.2,0-0.3,0-0.5,0c-0.3,0.1-0.7,0.2-1,0.3      c-0.1,0.1-0.2,0.2-0.3,0.1c-0.2-0.2-0.3-0.5-0.5-0.5c-0.1,0-0.2,0.1-0.3,0.1c-0.3,0-0.6,0.1-0.8,0.1c-0.3,0-0.6,0.1-0.9,0.1      c-0.3,0-0.5,0.1-0.8,0.1c-0.1,0-0.3,0.1-0.4,0.1c0,0,0,0,0,0c-0.2,0.3-0.3,0.1-0.5,0.2c-0.1,0-0.3,0.1-0.4,0.1      c-0.1,0-0.3-0.1-0.4-0.1l-1.6-0.3l-0.7,0.2c-0.5,0.1-1,0.1-1.5-0.2c-0.3-0.1-0.5-0.3-0.8-0.1c-0.1,0.1-0.3,0.3-0.5,0.3l-2.6-0.2      h-1.8h-0.7c-0.1-0.2-0.3-0.2-0.4-0.2c-0.3-0.3-0.6-0.2-1-0.3c-0.4,0-0.7-0.1-1.1-0.1c0,0-0.3-0.1-0.3,0l0-0.4      c0,0,1.8,0.1,1.8,0.1c0.3,0,0.3,0.2,0.6,0.4c0.5,0.3,1.1,0.2,1.6,0.2c0.1,0,0.1,0,0.2,0l3.4-0.1c0.2,0,0.5-0.2,0.7-0.2      c0.1,0,0.2-0.1,0.4,0.1c0.2,0.2,0.3,0.3,0.5,0.3l2-0.1l0.8,0.1c0.5-0.1,0.9,0,1.4-0.1l0.5,0.1h0.4l3-0.5      c0.1,0.1,0.3,0.4,0.4,0.5c0.1,0,0.3-0.1,0.4-0.2c0.4-0.1,0.7-0.3,1.1-0.5c0.2-0.1,0.4,0.1,0.6,0.1c0.2,0.1,0.4,0.1,0.6,0.2      c0.5,0.1,1,0.2,1.5,0.3C564.8,171.2,565,171.2,565.1,171.2z" />
        </g>
      </g>
    </g>
  </g>
  <g>
    <g>
      <g>
        <g>
          <path
            d="M562.9,165.8c-0.2,0-0.3,0-0.5,0c-0.3,0-0.7,0-1,0c-0.3,0-0.6,0-0.9,0c-0.1,0-0.3,0-0.4,0c-0.3,0.1-0.5,0.2-0.8,0.3      c-0.1,0.1-0.2,0.2-0.3,0.1c-0.1-0.2-0.3-0.5-0.4-0.5c-0.1,0-0.1,0.1-0.2,0.1c-0.2,0-0.5,0.1-0.7,0.1c-0.3,0-0.5,0.1-0.8,0.1      c-0.2,0-0.4,0.1-0.6,0.1c-0.1,0-0.2,0.1-0.3,0.1c0,0,0,0,0,0c-0.1,0.3-0.3,0.1-0.4,0.2c-0.1,0-0.2,0.1-0.3,0.1      c-0.1,0-0.2-0.1-0.3-0.1l-1.3-0.3l-0.6,0.2c-0.4,0.1-0.8,0.1-1.2-0.2c-0.2-0.1-0.4-0.3-0.6-0.1c-0.1,0.1-0.2,0.3-0.4,0.3      l-2.1-0.2h-1.5h-0.6c-0.1-0.2-0.2-0.2-0.3-0.2c-0.3-0.3-0.5-0.2-0.8-0.3c-0.3,0-0.6-0.1-0.9-0.1c0,0-0.2-0.1-0.2,0l0-0.4      c0,0,1.5,0.1,1.5,0.1c0.2,0,0.3,0.2,0.5,0.4c0.4,0.3,0.9,0.2,1.3,0.2c0,0,0.1,0,0.1,0l2.8-0.1c0.2,0,0.4-0.2,0.6-0.2      c0.1,0,0.2-0.1,0.3,0.1c0.1,0.2,0.3,0.3,0.4,0.3l1.7-0.1l0.7,0.1c0.4-0.1,0.8,0,1.1-0.1l0.4,0.1h0.4l2.4-0.5      c0.1,0.1,0.2,0.4,0.3,0.5c0.1,0,0.2-0.1,0.3-0.2c0.3-0.1,0.6-0.3,0.9-0.5c0.2-0.1,0.3,0.1,0.5,0.1c0.2,0.1,0.3,0.1,0.5,0.2      c0.4,0.1,0.8,0.2,1.2,0.3C562.7,165.7,562.8,165.8,562.9,165.8z" />
        </g>
      </g>
    </g>
  </g>
  <g>
    <g>
      <g>
        <g>
          <path
            d="M576,219.9c-0.4,0-0.7,0-1.1,0c-0.8,0-1.5,0-2.3,0c-0.7,0-1.4,0-2.1,0c-0.3,0-0.6,0-0.9,0c-0.6,0.1-1.2,0.2-1.9,0.3      c-0.2,0.1-0.4,0.2-0.6,0.1c-0.3-0.2-0.6-0.5-0.9-0.5c-0.2,0-0.3,0.1-0.5,0.1c-0.5,0-1,0.1-1.6,0.1c-0.6,0-1.2,0.1-1.8,0.1      c-0.5,0-1,0.1-1.5,0.1c-0.2,0-0.5,0.1-0.7,0.1c0,0,0,0,0,0c-0.3,0.3-0.6,0.1-1,0.2c-0.3,0-0.5,0.1-0.8,0.1      c-0.2,0-0.5-0.1-0.7-0.1l-3-0.3l-1.3,0.2c-0.9,0.1-1.8,0.1-2.7-0.2c-0.5-0.1-1-0.3-1.4-0.1c-0.3,0.1-0.6,0.3-0.8,0.3l-4.8-0.2      h-3.4h-1.3c-0.2-0.2-0.5-0.2-0.7-0.2c-0.6-0.3-1.2-0.2-1.8-0.3c-0.7,0-1.4-0.1-2.1-0.1c0,0-0.5-0.1-0.5,0l0.1-0.4      c0,0,3.4,0.1,3.4,0.1c0.5,0,0.6,0.2,1.2,0.4c0.9,0.3,2.1,0.2,3,0.2c0.1,0,0.2,0,0.3,0l6.4-0.1c0.5,0,0.9-0.2,1.4-0.2      c0.2,0,0.5-0.1,0.7,0.1c0.3,0.2,0.6,0.3,0.9,0.3l3.8-0.1l1.5,0.1c0.9-0.1,1.7,0,2.6-0.1l1,0.1h0.8l5.5-0.5      c0.3,0.1,0.5,0.4,0.8,0.5c0.2,0,0.5-0.1,0.7-0.2c0.7-0.1,1.3-0.3,1.9-0.5c0.4-0.1,0.8,0.1,1.2,0.1c0.4,0.1,0.8,0.1,1.2,0.2      c0.9,0.1,1.9,0.2,2.8,0.3C575.5,219.8,575.7,219.8,576,219.9z" />
        </g>
      </g>
    </g>
  </g>
  <g>
    <g>
      <g>
        <g>
          <path
            d="M580.1,225.3c-0.4,0-0.8,0-1.3,0c-0.9,0-1.8,0-2.7,0c-0.8,0-1.7,0-2.5,0c-0.3,0-0.7,0-1,0c-0.7,0.1-1.4,0.2-2.2,0.3      c-0.2,0.1-0.5,0.2-0.8,0.1c-0.3-0.2-0.7-0.5-1-0.5c-0.2,0-0.4,0.1-0.6,0.1c-0.6,0-1.2,0.1-1.8,0.1c-0.7,0-1.4,0.1-2.1,0.1      c-0.6,0-1.1,0.1-1.7,0.1c-0.3,0-0.5,0.1-0.8,0.1c0,0,0,0,0,0c-0.4,0.3-0.7,0.1-1.1,0.2c-0.3,0-0.6,0.1-0.9,0.1      c-0.3,0-0.6-0.1-0.8-0.1l-3.5-0.3l-1.5,0.2c-1.1,0.1-2.1,0.1-3.2-0.2c-0.6-0.1-1.1-0.3-1.7-0.1c-0.3,0.1-0.7,0.3-1,0.3l-5.7-0.2      h-3.9h-1.5c-0.2-0.2-0.6-0.2-0.8-0.2c-0.7-0.3-1.4-0.2-2.1-0.3c-0.8,0-1.6-0.1-2.4-0.1c0,0-0.6-0.1-0.6,0l0.1-0.4      c0,0,4,0.1,4,0.1c0.6,0,0.7,0.2,1.4,0.4c1,0.3,2.5,0.2,3.5,0.2c0.1,0,0.2,0,0.3,0l7.5-0.1c0.5,0,1.1-0.2,1.6-0.2      c0.3,0,0.5-0.1,0.8,0.1c0.3,0.2,0.7,0.3,1,0.3l4.4-0.1l1.8,0.1c1-0.1,2,0,3.1-0.1l1.2,0.1h1l6.4-0.5c0.3,0.1,0.6,0.4,0.9,0.5      c0.3,0,0.6-0.1,0.8-0.2c0.8-0.1,1.5-0.3,2.3-0.5c0.5-0.1,0.9,0.1,1.4,0.1c0.5,0.1,0.9,0.1,1.4,0.2c1.1,0.1,2.2,0.2,3.3,0.3      C579.4,225.2,579.8,225.3,580.1,225.3z" />
        </g>
      </g>
    </g>
  </g>
</svg>