<svg height="16" width="16" version="1.1" viewBox="0 0 24 24" xmlns="http://www.w3.org/2000/svg">
  <g fill-rule="evenodd" stroke="none" stroke-width="1">
    <path
      d="M20.574 13.24a.633.633 0 0 0-.529.114 6.749 6.749 0 0 1-2.047 1.197 6.411 6.411 0 0 1-2.323.414 6.764 6.764 0 0 1-4.785-1.979 6.764 6.764 0 0 1-1.978-4.784c0-.782.138-1.541.368-2.232a6.177 6.177 0 0 1 1.104-1.978.587.587 0 0 0-.092-.828c-.161-.115-.345-.161-.53-.115a9.283 9.283 0 0 0-4.876 3.267A9.11 9.11 0 0 0 3 11.859 9.076 9.076 0 0 0 5.668 18.3a9.076 9.076 0 0 0 6.441 2.669 9.148 9.148 0 0 0 5.636-1.956 9.07 9.07 0 0 0 3.22-5.037c.116-.345-.069-.668-.39-.737zm-3.519 4.807a7.894 7.894 0 0 1-10.49-.621 7.894 7.894 0 0 1-2.323-5.59c0-1.817.598-3.473 1.633-4.807A7.909 7.909 0 0 1 8.521 4.82c-.115.253-.23.506-.322.782a7.654 7.654 0 0 0-.437 2.623c0 2.185.897 4.186 2.323 5.613a7.948 7.948 0 0 0 5.613 2.323c.966 0 1.886-.161 2.737-.483.3-.115.598-.23.874-.368a8.37 8.37 0 0 1-2.254 2.737z"
      fill="#FFF" fill-rule="nonzero"></path>
  </g>
</svg>