<svg height="16" width="16" version="1.1" viewBox="0 0 24 24" xmlns="http://www.w3.org/2000/svg">
  <g fill-rule="evenodd" stroke="none" stroke-width="1">
    <g fill="#8dc641" fill-rule="nonzero">
      <path
        d="M15.518 8.442a5.033 5.033 0 0 0-3.538-1.478c-1.373 0-2.64.554-3.538 1.478a5.033 5.033 0 0 0-1.478 3.538c0 1.373.58 2.64 1.478 3.538a5.033 5.033 0 0 0 3.538 1.479c1.373 0 2.64-.555 3.538-1.479a5.033 5.033 0 0 0 1.479-3.538c0-1.373-.555-2.64-1.479-3.538zm-.95 6.126a3.652 3.652 0 0 1-2.588 1.056 3.652 3.652 0 0 1-2.587-1.056 3.652 3.652 0 0 1-1.056-2.588c0-1.003.396-1.927 1.056-2.587a3.652 3.652 0 0 1 2.587-1.056c1.003 0 1.928.396 2.588 1.056a3.652 3.652 0 0 1 1.056 2.587 3.652 3.652 0 0 1-1.056 2.588zM21.274 11.294H19.24a.699.699 0 0 0-.687.686c0 .37.317.687.687.687h2.033c.37 0 .686-.317.686-.687a.699.699 0 0 0-.686-.686zM11.98 18.554a.699.699 0 0 0-.686.687v2.033c0 .37.317.686.686.686.37 0 .687-.316.687-.686V19.24a.699.699 0 0 0-.687-.687zM19.03 18.08l-1.452-1.453c-.238-.264-.687-.264-.95 0a.67.67 0 0 0 0 .95l1.451 1.453a.67.67 0 0 0 .95 0 .67.67 0 0 0 0-.95zM11.98 2a.699.699 0 0 0-.686.686V4.72c0 .37.317.687.686.687.37 0 .687-.317.687-.687V2.686A.699.699 0 0 0 11.98 2zM19.056 4.93a.67.67 0 0 0-.95 0l-1.453 1.453a.67.67 0 0 0 0 .95c.238.264.687.264.951 0l1.452-1.452a.67.67 0 0 0 0-.95zM4.72 11.294H2.685A.699.699 0 0 0 2 11.98c0 .37.29.687.686.687H4.72c.37 0 .687-.317.687-.687a.699.699 0 0 0-.687-.686zM7.307 16.627c-.238-.264-.687-.264-.95 0L4.903 18.08a.67.67 0 0 0 0 .95.67.67 0 0 0 .95 0l1.453-1.451a.67.67 0 0 0 0-.95zM7.307 6.383L5.855 4.93a.67.67 0 0 0-.95 0 .67.67 0 0 0 0 .95l1.451 1.452a.67.67 0 0 0 .95 0 .67.67 0 0 0 0-.95z">
      </path>
    </g>
  </g>
</svg>