<svg xmlns="http://www.w3.org/2000/svg" width="48" height="48" version="1.1" viewBox="0 0 48 48">
  <g fill="none" fill-rule="evenodd" stroke="none" stroke-width="1">
    <path fill="#FFF" stroke="#000" stroke-opacity=".24" stroke-width=".5"
      d="M14.77.25C6.75.25.25 6.75.25 14.77v18.46c0 8.02 6.5 14.52 14.52 14.52h18.46c8.02 0 14.52-6.5 14.52-14.52V14.77c0-8.02-6.5-14.52-14.52-14.52H14.77z" />
    <path fill="#FF9800"
      d="M21.022 33.148c.568.327 1.257.566 1.926.705a6.2 6.2 0 01-1.674-.339c-1.517-.556-6.226-2.878-8.195-6.362-.868-1.537-1.899-4.24-.038-8.219 1.818-3.887 2.495-3.601 2.93-3.47 0 0 .08.039.197.11-.278.354-.583.767-.924 1.258-1.966 2.83-2.423 5.597-1.396 8.458 1.387 3.863 5.648 6.983 7.174 7.86zm-6.81-7.99c-.597-1.661-1.157-4.5 1.35-8.107C17.338 14.491 18.151 14 18.62 14c.177 0 .304.07.416.125 0 0 .634.436.852 1.081.204.6 1.388 6.998 2.292 11.111.373 1.696.804 3.072.918 3.46.84 2.854 1.934 3.04 2.206 3.04a.37.37 0 00.064-.004c-.045.555-.608.784-1.35.784-.87 0-1.987-.315-2.804-.784-1.4-.805-5.65-3.888-7.003-7.655z" />
    <path fill="#93C01E"
      d="M24.384 21.371c-1.257 2.815-1.084 6.874-.356 9.239-1.067-2.147-1.874-5.917-1.182-8.726.422-1.714 1.162-3.35 5.07-5.356 3.818-1.96 4.179-1.318 4.442-.948 0 0 .174.293.253.67-.58.12-1.258.299-2.046.539-4.42 1.346-5.446 2.936-6.18 4.582zm10.997-4.461c.045.056.358.894.007 1.569-.054.105-.179.36-.354.717-.837 1.71-2.798 5.717-3.98 7.44-.17.249-.35.515-.538.794-1.401 2.081-3.137 4.653-4.6 5.007l-.023-.047c-.017-.029-.03-.06-.047-.09l.07.137c-.037.009-.073.023-.11.028-.027.005-.054.006-.082.007-1.545-.033-2.76-6.971-.987-10.943.72-1.612 1.739-3.09 5.94-4.371 1.55-.472 2.548-.666 3.202-.703.402.018 1.225.1 1.502.455z" />
  </g>
</svg>