<svg xmlns="http://www.w3.org/2000/svg" xmlns:xlink="http://www.w3.org/1999/xlink" width="48" height="48" version="1.1"
  viewBox="0 0 48 48">
  <defs>
    <path id="serviceTriolan_svg__a" d="M.042.042h3.846v6.764H.042z" />
  </defs>
  <g fill="none" fill-rule="evenodd" stroke="none" stroke-width="1">
    <path fill="#FFF" stroke="#000" stroke-opacity=".24" stroke-width=".5"
      d="M14.77.25C6.75.25.25 6.75.25 14.77v18.46c0 8.02 6.5 14.52 14.52 14.52h18.46c8.02 0 14.52-6.5 14.52-14.52V14.77c0-8.02-6.5-14.52-14.52-14.52H14.77z" />
    <path fill="#FF000D"
      d="M35.973 28.059h-1.632c-.002-.036-.004-.066-.004-.095v-5.176a.969.969 0 00-.01-.14c-.02-.135-.116-.21-.266-.212-.155-.003-.251.07-.274.207a.708.708 0 00-.008.116v5.296l-.073.003c-.498 0-.995-.001-1.492.002-.065 0-.077-.02-.077-.08.002-2.159.001-4.318.001-6.477v-.07h1.638v.197c.014-.001.02 0 .024-.003.214-.153.46-.21.714-.234.292-.027.58-.016.855.105.159.07.308.154.423.287.09.105.144.228.17.363.002.014.007.027.011.04v5.871z" />
    <g transform="translate(21.672 21.339)">
      <mask id="serviceTriolan_svg__b" fill="#fff">
        <use xlink:href="#serviceTriolan_svg__a" />
      </mask>
      <path fill="#FF000D"
        d="M2.242 3.428V1.415c0-.031.001-.062-.003-.092-.015-.111-.058-.205-.177-.233-.173-.042-.357.005-.377.246-.002.031-.005.062-.005.092v3.997c0 .045.003.09.01.135.02.106.071.186.183.215.21.054.358-.054.368-.271l.001-.074V3.428zM1.69 6.806c-.126-.016-.252-.029-.376-.05a1.87 1.87 0 01-.755-.275 1.134 1.134 0 01-.502-.841 2.032 2.032 0 01-.013-.251L.042 1.465c0-.69.317-1.114.982-1.304.42-.12.85-.14 1.283-.102.327.029.637.119.931.268.43.216.646.566.647 1.044a874.93 874.93 0 010 4.114c-.001.504-.212.89-.682 1.106-.132.06-.275.105-.417.138-.147.035-.3.045-.449.067-.016.002-.03.006-.047.01H1.69z"
        mask="url(#serviceTriolan_svg__b)" />
    </g>
    <path fill="#FF000D"
      d="M30.124 25.114c-.2.053-.384.112-.497.289a.368.368 0 00-.058.184c-.005.42-.005.839-.002 1.258 0 .1.035.19.133.24.217.107.42-.015.424-.256v-1.715zm-1.102 3.031c-.112-.02-.225-.036-.336-.062a1.027 1.027 0 01-.5-.26.851.851 0 01-.256-.613c-.007-.495-.009-.99-.002-1.486.005-.349.18-.618.442-.834.303-.248.645-.432.988-.616.171-.091.342-.184.51-.28.045-.024.085-.057.125-.088a.308.308 0 00.134-.273c-.008-.294-.002-.589-.003-.884a.738.738 0 00-.009-.11c-.018-.12-.087-.197-.194-.216-.131-.025-.22.014-.284.128a.952.952 0 00-.099.383c-.028.287 0 .572.017.858.005.083.001.167.001.256-.019 0-.04.003-.063.003l-1.436.001c-.06 0-.076-.016-.076-.075.002-.42 0-.84.002-1.259.002-.328.086-.627.326-.866.191-.19.428-.297.685-.364a3.857 3.857 0 011.175-.1c.307.015.607.064.888.193.412.19.638.516.693.964.01.083.013.167.013.25l.001 5.164v.096l-.073.003-1.307.001c-.056 0-.078-.013-.073-.071.005-.05.002-.1.002-.166-.2.244-.468.282-.74.313-.016.001-.032.006-.047.01h-.504zM12 21.427h.724v-1.33c.03-.002.054-.004.078-.004h1.486c.078 0 .078 0 .078.082 0 .393.001.786-.001 1.179 0 .058.015.076.075.075.25-.003.5 0 .749-.002.05 0 .063.016.062.063-.001.287-.002.573 0 .86.001.053-.018.064-.067.064-.243-.002-.487-.001-.73-.001-.088 0-.088 0-.088.085v3.52c0 .159 0 .318.004.478.007.22.106.346.323.382.18.03.362.034.543.05.02.002.04 0 .066 0 .002.024.005.044.005.064v1c.001.05-.01.068-.063.067-.383-.003-.766 0-1.149-.005a3.338 3.338 0 01-.76-.092c-.283-.07-.448-.246-.515-.53a3.825 3.825 0 01-.093-.87c-.003-1.35-.002-2.702-.002-4.053v-.1H12v-.982zM21.408 19.855v1.122c0 .09-.001.09-.087.09-.492 0-.985-.002-1.478 0-.06.001-.08-.014-.08-.077.003-.35.001-.7.001-1.05l-.002-.085h1.646zM17.85 24.172v-.083-1.301a.83.83 0 00-.015-.165c-.021-.1-.085-.164-.187-.177a.56.56 0 00-.17.003c-.108.02-.172.103-.182.224-.004.043-.003.086-.003.13v5.163c0 .102.01.092-.093.092l-1.473.001c-.059 0-.077-.014-.077-.074.002-2.161.002-4.323 0-6.484 0-.06.02-.075.077-.074.497.002.995.002 1.492 0 .06 0 .08.016.074.075-.004.042 0 .086 0 .13.009 0 .016.001.02-.001.217-.16.47-.216.731-.239.256-.022.511-.019.758.07.197.072.373.176.51.34.119.145.177.313.178.499.002.603 0 1.207.001 1.81 0 .038.003.067-.052.067-.515-.002-1.031 0-1.547-.001-.01 0-.02-.002-.042-.005M27.532 28.054H25.9c-.002-.025-.004-.049-.004-.073l-.001-8.036c0-.046.001-.075.063-.075.508.002 1.015.001 1.523.002.016 0 .032.002.052.004v8.178zM21.406 21.432v6.626H19.853c-.087 0-.087 0-.087-.086v-6.071-.418c-.001-.043.013-.056.056-.056l1.541.001c.012 0 .024.002.043.004" />
  </g>
</svg>