<svg xmlns="http://www.w3.org/2000/svg" width="48" height="48" version="1.1" viewBox="0 0 48 48">
  <g fill="none" fill-rule="evenodd" stroke="none" stroke-width="1">
    <path fill="#FFF" stroke="#000" stroke-opacity=".24" stroke-width=".5"
      d="M14.77.25C6.75.25.25 6.75.25 14.77v18.46c0 8.02 6.5 14.52 14.52 14.52h18.46c8.02 0 14.52-6.5 14.52-14.52V14.77c0-8.02-6.5-14.52-14.52-14.52H14.77z" />
    <path fill="#00B4DC"
      d="M24.34 23.875c0-.717.253-1.39.697-1.978h-2.765v4.997c0 .545-.444.99-.99.99h-5.056v1.05a.99.99 0 00.988.988h1.388v1.368l1.497-1.368h9.654a.99.99 0 00.988-.988v-.973c-.227.02-.456.032-.69.032-3.156 0-5.712-1.845-5.712-4.118" />
    <path fill="#009640" d="M17.215 21.897a.992.992 0 00-.989.99v4.997h5.056c.546 0 .99-.444.99-.99v-4.997h-5.057" />
    <path fill="#AECA37"
      d="M17.215 21.897h5.058V20.85a.991.991 0 00-.99-.988h-1.178V18.5l-1.49 1.361H12.99a.991.991 0 00-.989.988v6.046c0 .545.445.989.989.989h3.237v-4.998c0-.542.444-.989.989-.989" />
    <path fill="#E73363"
      d="M35.762 23.875c0-2.275-2.556-4.118-5.711-4.118-2.162 0-4.043.864-5.014 2.14h4.716c.543 0 .988.447.988.99v5.074c.67-.057 1.306-.2 1.883-.411l1.849.774-.635-1.368c1.181-.754 1.924-1.855 1.924-3.081" />
    <path fill="#643876"
      d="M29.753 21.897h-4.715c-.445.588-.699 1.261-.699 1.978 0 2.273 2.556 4.117 5.712 4.117.234 0 .463-.01.69-.03v-5.076a.993.993 0 00-.988-.989" />
  </g>
</svg>